solid AngledFanBracket
facet normal 0.0 1.0 -1.3957865362461235e-13
  outer loop
    vertex 0.0 80.00000000000107 7.999999999988834
    vertex 29.99999999999998 79.99999999999996 -1.1169887237372222e-11
    vertex -2.255973186038318e-14 79.99999999999996 -1.1169887237372222e-11
  endloop
endfacet
facet normal 0.0 1.0 -1.3957865362461235e-13
  outer loop
    vertex 29.99999999999998 79.99999999999996 -1.1169887237372222e-11
    vertex 0.0 80.00000000000107 7.999999999988834
    vertex 29.99999999999998 80.00000000000107 7.999999999988834
  endloop
endfacet
facet normal 0.0 -1.3957865362461235e-13 -1.0
  outer loop
    vertex -5.639932965095795e-15 -3.658206618105456e-14 -4.229949723821846e-15
    vertex 6.7378695499561525 24.124371367758446 -3.3712699298860113e-12
    vertex 7.499999999999997 19.999999999999947 -2.7959967674462403e-12
  endloop
endfacet
facet normal 0.0 -1.3957865362461235e-13 -1.0
  outer loop
    vertex 6.7378695499561525 24.124371367758446 -3.3712699298860113e-12
    vertex -5.639932965095795e-15 -3.658206618105456e-14 -4.229949723821846e-15
    vertex 6.113157972535785 28.27178230075111 -3.950773042049605e-12
  endloop
endfacet
facet normal 0.0 -1.3957865362461235e-13 -1.0
  outer loop
    vertex 6.113157972535785 28.27178230075111 -3.950773042049605e-12
    vertex -5.639932965095795e-15 -3.658206618105456e-14 -4.229949723821846e-15
    vertex -2.255973186038318e-14 79.99999999999996 -1.1169887237372222e-11
  endloop
endfacet
facet normal 0.0 -1.3957865362461235e-13 -1.0
  outer loop
    vertex 6.113157972535785 28.27178230075111 -3.950773042049605e-12
    vertex -2.255973186038318e-14 79.99999999999996 -1.1169887237372222e-11
    vertex 5.626554735988865 32.43765547359881 -4.531686137454471e-12
  endloop
endfacet
facet normal 0.0 -1.3957865362461235e-13 -1.0
  outer loop
    vertex 5.626554735988865 32.43765547359881 -4.531686137454471e-12
    vertex -2.255973186038318e-14 79.99999999999996 -1.1169887237372222e-11
    vertex 5.278596884119454 36.61739318491426 -5.115419199341886e-12
  endloop
endfacet
facet normal 0.0 -1.3957865362461235e-13 -1.0
  outer loop
    vertex 5.278596884119454 36.61739318491426 -5.115419199341886e-12
    vertex -2.255973186038318e-14 79.99999999999996 -1.1169887237372222e-11
    vertex 5.069668443572568 40.80638243159428 -5.700562244470575e-12
  endloop
endfacet
facet normal 0.0 -1.3957865362461235e-13 -1.0
  outer loop
    vertex 5.069668443572568 40.80638243159428 -5.700562244470575e-12
    vertex -2.255973186038318e-14 79.99999999999996 -1.1169887237372222e-11
    vertex 5.000000000000002 44.99999999999991 -6.285705289599264e-12
  endloop
endfacet
facet normal 0.0 -1.3957865362461235e-13 -1.0
  outer loop
    vertex 5.000000000000002 44.99999999999991 -6.285705289599264e-12
    vertex -2.255973186038318e-14 79.99999999999996 -1.1169887237372222e-11
    vertex 5.069668443572546 49.193617568405536 -6.870848334727952e-12
  endloop
endfacet
facet normal 0.0 -1.3957865362461235e-13 -1.0
  outer loop
    vertex 5.069668443572546 49.193617568405536 -6.870848334727952e-12
    vertex -2.255973186038318e-14 79.99999999999996 -1.1169887237372222e-11
    vertex 5.278596884119431 53.382606815085545 -7.45599137985664e-12
  endloop
endfacet
facet normal 0.0 -1.3957865362461235e-13 -1.0
  outer loop
    vertex 5.278596884119431 53.382606815085545 -7.45599137985664e-12
    vertex -2.255973186038318e-14 79.99999999999996 -1.1169887237372222e-11
    vertex 5.626554735988865 57.56234452640099 -8.038314458502782e-12
  endloop
endfacet
facet normal 0.0 -1.3957865362461235e-13 -1.0
  outer loop
    vertex 5.626554735988865 57.56234452640099 -8.038314458502782e-12
    vertex -2.255973186038318e-14 79.99999999999996 -1.1169887237372222e-11
    vertex 5.869856354262314 59.64528111282485 -8.328771006205215e-12
  endloop
endfacet
facet normal 0.0 -1.3957865362461235e-13 -1.0
  outer loop
    vertex 5.869856354262314 59.64528111282485 -8.328771006205215e-12
    vertex -2.255973186038318e-14 79.99999999999996 -1.1169887237372222e-11
    vertex 6.303455954400355 61.710772661904564 -8.617817570666374e-12
  endloop
endfacet
facet normal 0.0 -1.3957865362461235e-13 -1.0
  outer loop
    vertex 6.303455954400355 61.710772661904564 -8.617817570666374e-12
    vertex -2.255973186038318e-14 79.99999999999996 -1.1169887237372222e-11
    vertex 7.102338727742458 63.664243999553726 -8.889944336232247e-12
  endloop
endfacet
facet normal 0.0 -1.3957865362461235e-13 -1.0
  outer loop
    vertex 7.102338727742458 63.664243999553726 -8.889944336232247e-12
    vertex -2.255973186038318e-14 79.99999999999996 -1.1169887237372222e-11
    vertex 8.240322757893885 65.44167368864973 -9.138101386696462e-12
  endloop
endfacet
facet normal 0.0 -1.3957865362461235e-13 -1.0
  outer loop
    vertex 8.240322757893885 65.44167368864973 -9.138101386696462e-12
    vertex -2.255973186038318e-14 79.99999999999996 -1.1169887237372222e-11
    vertex 9.680112707252926 66.9848097339433 -9.353828822611375e-12
  endloop
endfacet
facet normal 0.0 -1.3957865362461235e-13 -1.0
  outer loop
    vertex 9.680112707252926 66.9848097339433 -9.353828822611375e-12
    vertex -2.255973186038318e-14 79.99999999999996 -1.1169887237372222e-11
    vertex 11.374522103238123 68.24307868427017 -9.530076727770619e-12
  endloop
endfacet
facet normal 0.0 -1.3957865362461235e-13 -1.0
  outer loop
    vertex 11.374522103238123 68.24307868427017 -9.530076727770619e-12
    vertex -2.255973186038318e-14 79.99999999999996 -1.1169887237372222e-11
    vertex 13.268019788307349 69.17524308457577 -9.659795185967823e-12
  endloop
endfacet
facet normal 0.0 -1.3957865362461235e-13 -1.0
  outer loop
    vertex 13.268019788307349 69.17524308457577 -9.659795185967823e-12
    vertex -2.255973186038318e-14 79.99999999999996 -1.1169887237372222e-11
    vertex 15.298549851708218 69.75075295780545 -9.740164230720437e-12
  endloop
endfacet
facet normal 0.0 -1.3957865362461235e-13 -1.0
  outer loop
    vertex 15.298549851708218 69.75075295780545 -9.740164230720437e-12
    vertex -2.255973186038318e-14 79.99999999999996 -1.1169887237372222e-11
    vertex 17.39956539803759 69.95074702432214 -9.768363895545916e-12
  endloop
endfacet
facet normal 0.0 -1.3957865362461235e-13 -1.0
  outer loop
    vertex 17.39956539803759 69.95074702432214 -9.768363895545916e-12
    vertex -2.255973186038318e-14 79.99999999999996 -1.1169887237372222e-11
    vertex 26.249999999999975 69.99999999999996 -9.775413811752286e-12
  endloop
endfacet
facet normal 0.0 -1.3957865362461235e-13 -1.0
  outer loop
    vertex 26.249999999999975 69.99999999999996 -9.775413811752286e-12
    vertex -2.255973186038318e-14 79.99999999999996 -1.1169887237372222e-11
    vertex 29.99999999999998 79.99999999999996 -1.1169887237372222e-11
  endloop
endfacet
facet normal 0.9888452297342408 0.14894667378574317 -2.0789776188878372e-14
  outer loop
    vertex 6.7378695499561525 24.124371367758446 -3.3712699298860113e-12
    vertex 6.113157972535785 28.27178230075223 7.999999999996053
    vertex 6.7378695499561525 24.12437136775956 7.999999999996632
  endloop
endfacet
facet normal 0.9888452297342408 0.14894667378574317 -2.0789776188878372e-14
  outer loop
    vertex 6.113157972535785 28.27178230075223 7.999999999996053
    vertex 6.7378695499561525 24.124371367758446 -3.3712699298860113e-12
    vertex 6.113157972535785 28.27178230075111 -3.950773042049605e-12
  endloop
endfacet
facet normal 0.9363291775690444 -0.3511234415883919 4.900933723294796e-14
  outer loop
    vertex 26.249999999999975 69.99999999999996 -9.775413811752286e-12
    vertex 29.99999999999998 80.00000000000107 7.999999999988834
    vertex 26.249999999999975 70.00000000000107 7.999999999990228
  endloop
endfacet
facet normal 0.9363291775690444 -0.3511234415883919 4.900933723294796e-14
  outer loop
    vertex 29.99999999999998 80.00000000000107 7.999999999988834
    vertex 26.249999999999975 69.99999999999996 -9.775413811752286e-12
    vertex 29.99999999999998 79.99999999999996 -1.1169887237372222e-11
  endloop
endfacet
facet normal 0.9932470838320914 0.11601823330428007 -1.6193668800517572e-14
  outer loop
    vertex 6.113157972535785 28.27178230075111 -3.950773042049605e-12
    vertex 5.626554735988865 32.43765547359993 7.999999999995472
    vertex 6.113157972535785 28.27178230075223 7.999999999996053
  endloop
endfacet
facet normal 0.9932470838320914 0.11601823330428007 -1.6193668800517572e-14
  outer loop
    vertex 5.626554735988865 32.43765547359993 7.999999999995472
    vertex 6.113157972535785 28.27178230075111 -3.950773042049605e-12
    vertex 5.626554735988865 32.43765547359881 -4.531686137454471e-12
  endloop
endfacet
facet normal 0.005564948529403396 -0.9999845155540485 1.3957649232649433e-13
  outer loop
    vertex 26.249999999999975 69.99999999999996 -9.775413811752286e-12
    vertex 17.39956539803759 69.95074702432325 7.999999999990235
    vertex 17.39956539803759 69.95074702432214 -9.768363895545916e-12
  endloop
endfacet
facet normal 0.005564948529403396 -0.9999845155540485 1.3957649232649433e-13
  outer loop
    vertex 17.39956539803759 69.95074702432325 7.999999999990235
    vertex 26.249999999999975 69.99999999999996 -9.775413811752286e-12
    vertex 26.249999999999975 70.00000000000107 7.999999999990228
  endloop
endfacet
facet normal 0.9833520281815029 0.18171072800284746 -2.5362938763785592e-14
  outer loop
    vertex 7.499999999999997 19.999999999999947 -2.7959967674462403e-12
    vertex 6.7378695499561525 24.12437136775956 7.999999999996632
    vertex 7.499999999999997 20.000000000001062 7.999999999997208
  endloop
endfacet
facet normal 0.9833520281815029 0.18171072800284746 -2.5362938763785592e-14
  outer loop
    vertex 6.7378695499561525 24.12437136775956 7.999999999996632
    vertex 7.499999999999997 19.999999999999947 -2.7959967674462403e-12
    vertex 6.7378695499561525 24.124371367758446 -3.3712699298860113e-12
  endloop
endfacet
facet normal 0.0 1.3957865362461235e-13 1.0
  outer loop
    vertex 0.0 1.0812808981519595e-12 7.999999999999999
    vertex 6.113157972535785 28.27178230075223 7.999999999996053
    vertex 0.0 80.00000000000107 7.999999999988834
  endloop
endfacet
facet normal 0.0 1.3957865362461235e-13 1.0
  outer loop
    vertex 6.113157972535785 28.27178230075223 7.999999999996053
    vertex 0.0 1.0812808981519595e-12 7.999999999999999
    vertex 6.7378695499561525 24.12437136775956 7.999999999996632
  endloop
endfacet
facet normal 0.0 1.3957865362461235e-13 1.0
  outer loop
    vertex 6.7378695499561525 24.12437136775956 7.999999999996632
    vertex 0.0 1.0812808981519595e-12 7.999999999999999
    vertex 7.499999999999997 20.000000000001062 7.999999999997208
  endloop
endfacet
facet normal 0.0 1.3957865362461235e-13 1.0
  outer loop
    vertex 0.0 80.00000000000107 7.999999999988834
    vertex 6.113157972535785 28.27178230075223 7.999999999996053
    vertex 5.626554735988865 32.43765547359993 7.999999999995472
  endloop
endfacet
facet normal 0.0 1.3957865362461235e-13 1.0
  outer loop
    vertex 0.0 80.00000000000107 7.999999999988834
    vertex 5.626554735988865 32.43765547359993 7.999999999995472
    vertex 5.278596884119454 36.61739318491538 7.9999999999948885
  endloop
endfacet
facet normal 0.0 1.3957865362461235e-13 1.0
  outer loop
    vertex 0.0 80.00000000000107 7.999999999988834
    vertex 5.278596884119454 36.61739318491538 7.9999999999948885
    vertex 5.069668443572568 40.806382431595395 7.999999999994303
  endloop
endfacet
facet normal 0.0 1.3957865362461235e-13 1.0
  outer loop
    vertex 0.0 80.00000000000107 7.999999999988834
    vertex 5.069668443572568 40.806382431595395 7.999999999994303
    vertex 5.000000000000002 45.00000000000102 7.999999999993718
  endloop
endfacet
facet normal 0.0 1.3957865362461235e-13 1.0
  outer loop
    vertex 0.0 80.00000000000107 7.999999999988834
    vertex 5.000000000000002 45.00000000000102 7.999999999993718
    vertex 5.069668443572546 49.19361756840665 7.999999999993133
  endloop
endfacet
facet normal 0.0 1.3957865362461235e-13 1.0
  outer loop
    vertex 0.0 80.00000000000107 7.999999999988834
    vertex 5.069668443572546 49.19361756840665 7.999999999993133
    vertex 5.278596884119431 53.38260681508666 7.999999999992547
  endloop
endfacet
facet normal 0.0 1.3957865362461235e-13 1.0
  outer loop
    vertex 0.0 80.00000000000107 7.999999999988834
    vertex 5.278596884119431 53.38260681508666 7.999999999992547
    vertex 5.626554735988865 57.56234452640211 7.9999999999919655
  endloop
endfacet
facet normal 0.0 1.3957865362461235e-13 1.0
  outer loop
    vertex 0.0 80.00000000000107 7.999999999988834
    vertex 5.626554735988865 57.56234452640211 7.9999999999919655
    vertex 5.869856354262314 59.64528111282596 7.999999999991675
  endloop
endfacet
facet normal 0.0 1.3957865362461235e-13 1.0
  outer loop
    vertex 0.0 80.00000000000107 7.999999999988834
    vertex 5.869856354262314 59.64528111282596 7.999999999991675
    vertex 6.303455954400355 61.71077266190568 7.999999999991386
  endloop
endfacet
facet normal 0.0 1.3957865362461235e-13 1.0
  outer loop
    vertex 0.0 80.00000000000107 7.999999999988834
    vertex 6.303455954400355 61.71077266190568 7.999999999991386
    vertex 7.102338727742458 63.66424399955485 7.999999999991114
  endloop
endfacet
facet normal 0.0 1.3957865362461235e-13 1.0
  outer loop
    vertex 0.0 80.00000000000107 7.999999999988834
    vertex 7.102338727742458 63.66424399955485 7.999999999991114
    vertex 8.240322757893885 65.44167368865085 7.999999999990866
  endloop
endfacet
facet normal 0.0 1.3957865362461235e-13 1.0
  outer loop
    vertex 0.0 80.00000000000107 7.999999999988834
    vertex 8.240322757893885 65.44167368865085 7.999999999990866
    vertex 9.680112707252926 66.98480973394442 7.99999999999065
  endloop
endfacet
facet normal 0.0 1.3957865362461235e-13 1.0
  outer loop
    vertex 0.0 80.00000000000107 7.999999999988834
    vertex 9.680112707252926 66.98480973394442 7.99999999999065
    vertex 11.374522103238123 68.24307868427128 7.999999999990473
  endloop
endfacet
facet normal 0.0 1.3957865362461235e-13 1.0
  outer loop
    vertex 0.0 80.00000000000107 7.999999999988834
    vertex 11.374522103238123 68.24307868427128 7.999999999990473
    vertex 13.268019788307349 69.17524308457689 7.999999999990344
  endloop
endfacet
facet normal 0.0 1.3957865362461235e-13 1.0
  outer loop
    vertex 0.0 80.00000000000107 7.999999999988834
    vertex 13.268019788307349 69.17524308457689 7.999999999990344
    vertex 15.298549851708218 69.75075295780657 7.999999999990264
  endloop
endfacet
facet normal 0.0 1.3957865362461235e-13 1.0
  outer loop
    vertex 0.0 80.00000000000107 7.999999999988834
    vertex 15.298549851708218 69.75075295780657 7.999999999990264
    vertex 17.39956539803759 69.95074702432325 7.999999999990235
  endloop
endfacet
facet normal 0.0 1.3957865362461235e-13 1.0
  outer loop
    vertex 0.0 80.00000000000107 7.999999999988834
    vertex 17.39956539803759 69.95074702432325 7.999999999990235
    vertex 26.249999999999975 70.00000000000107 7.999999999990228
  endloop
endfacet
facet normal 0.0 1.3957865362461235e-13 1.0
  outer loop
    vertex 0.0 80.00000000000107 7.999999999988834
    vertex 26.249999999999975 70.00000000000107 7.999999999990228
    vertex 29.99999999999998 80.00000000000107 7.999999999988834
  endloop
endfacet
facet normal 0.9987585269247992 0.049813701880157456 -6.952929440490198e-15
  outer loop
    vertex 5.278596884119454 36.61739318491426 -5.115419199341886e-12
    vertex 5.069668443572568 40.806382431595395 7.999999999994303
    vertex 5.278596884119454 36.61739318491538 7.9999999999948885
  endloop
endfacet
facet normal 0.9987585269247992 0.049813701880157456 -6.952929440490198e-15
  outer loop
    vertex 5.069668443572568 40.806382431595395 7.999999999994303
    vertex 5.278596884119454 36.61739318491426 -5.115419199341886e-12
    vertex 5.069668443572568 40.80638243159428 -5.700562244470575e-12
  endloop
endfacet
facet normal 0.9998620331685717 -0.01661067813215427 2.3184960894778838e-15
  outer loop
    vertex 5.000000000000002 44.99999999999991 -6.285705289599264e-12
    vertex 5.069668443572546 49.19361756840665 7.999999999993133
    vertex 5.000000000000002 45.00000000000102 7.999999999993718
  endloop
endfacet
facet normal 0.9998620331685717 -0.01661067813215427 2.3184960894778838e-15
  outer loop
    vertex 5.069668443572546 49.19361756840665 7.999999999993133
    vertex 5.000000000000002 44.99999999999991 -6.285705289599264e-12
    vertex 5.069668443572546 49.193617568405536 -6.870848334727952e-12
  endloop
endfacet
facet normal 0.09476089121296878 -0.9955000620273834 1.3895055834100025e-13
  outer loop
    vertex 17.39956539803759 69.95074702432214 -9.768363895545916e-12
    vertex 15.298549851708218 69.75075295780657 7.999999999990264
    vertex 15.298549851708218 69.75075295780545 -9.740164230720437e-12
  endloop
endfacet
facet normal 0.09476089121296878 -0.9955000620273834 1.3895055834100025e-13
  outer loop
    vertex 15.298549851708218 69.75075295780657 7.999999999990264
    vertex 17.39956539803759 69.95074702432214 -9.768363895545916e-12
    vertex 17.39956539803759 69.95074702432325 7.999999999990235
  endloop
endfacet
facet normal 0.9965527323313131 0.08296174831206403 -1.1579689131741853e-14
  outer loop
    vertex 5.626554735988865 32.43765547359881 -4.531686137454471e-12
    vertex 5.278596884119454 36.61739318491538 7.9999999999948885
    vertex 5.626554735988865 32.43765547359993 7.999999999995472
  endloop
endfacet
facet normal 0.9965527323313131 0.08296174831206403 -1.1579689131741853e-14
  outer loop
    vertex 5.278596884119454 36.61739318491538 7.9999999999948885
    vertex 5.626554735988865 32.43765547359881 -4.531686137454471e-12
    vertex 5.278596884119454 36.61739318491426 -5.115419199341886e-12
  endloop
endfacet
facet normal 0.9987585269247992 -0.049813701880157386 6.952929440490189e-15
  outer loop
    vertex 5.069668443572546 49.193617568405536 -6.870848334727952e-12
    vertex 5.278596884119431 53.38260681508666 7.999999999992547
    vertex 5.069668443572546 49.19361756840665 7.999999999993133
  endloop
endfacet
facet normal 0.9987585269247992 -0.049813701880157386 6.952929440490189e-15
  outer loop
    vertex 5.278596884119431 53.38260681508666 7.999999999992547
    vertex 5.069668443572546 49.193617568405536 -6.870848334727952e-12
    vertex 5.278596884119431 53.382606815085545 -7.45599137985664e-12
  endloop
endfacet
facet normal 0.9998620331685717 0.016610678132159648 -2.3184960894786344e-15
  outer loop
    vertex 5.069668443572568 40.80638243159428 -5.700562244470575e-12
    vertex 5.000000000000002 45.00000000000102 7.999999999993718
    vertex 5.069668443572568 40.806382431595395 7.999999999994303
  endloop
endfacet
facet normal 0.9998620331685717 0.016610678132159648 -2.3184960894786344e-15
  outer loop
    vertex 5.000000000000002 45.00000000000102 7.999999999993718
    vertex 5.069668443572568 40.80638243159428 -5.700562244470575e-12
    vertex 5.000000000000002 44.99999999999991 -6.285705289599264e-12
  endloop
endfacet
facet normal -1.0 -1.0574874309530015e-16 1.7624790515924498e-15
  outer loop
    vertex 0.0 80.00000000000107 7.999999999988834
    vertex -5.527134305793879e-13 76.00000000000078 5.999999999989395
    vertex 0.0 1.0812808981519595e-12 7.999999999999999
  endloop
endfacet
facet normal -1.0 -1.0574874309530015e-16 1.7624790515924498e-15
  outer loop
    vertex -5.527134305793879e-13 76.00000000000078 5.999999999989395
    vertex 0.0 80.00000000000107 7.999999999988834
    vertex -5.527134305793879e-13 76.51763809020582 5.93185165256746
  endloop
endfacet
facet normal -1.0 -1.0574874309530015e-16 1.7624790515924498e-15
  outer loop
    vertex -5.527134305793879e-13 76.51763809020582 5.93185165256746
    vertex 0.0 80.00000000000107 7.999999999988834
    vertex -5.527134305793879e-13 77.00000000000075 5.732050807558133
  endloop
endfacet
facet normal -1.0 -1.0574874309530015e-16 1.7624790515924498e-15
  outer loop
    vertex -5.527134305793879e-13 77.00000000000075 5.732050807558133
    vertex 0.0 80.00000000000107 7.999999999988834
    vertex -5.527134305793879e-13 77.41421356237379 5.414213562362294
  endloop
endfacet
facet normal -1.0 -1.0574874309530015e-16 1.7624790515924498e-15
  outer loop
    vertex -5.527134305793879e-13 77.41421356237379 5.414213562362294
    vertex 0.0 80.00000000000107 7.999999999988834
    vertex -5.527134305793879e-13 77.73205080756954 4.999999999989156
  endloop
endfacet
facet normal -1.0 -1.0574874309530015e-16 1.7624790515924498e-15
  outer loop
    vertex -5.527134305793879e-13 77.73205080756954 4.999999999989156
    vertex 0.0 80.00000000000107 7.999999999988834
    vertex -2.255973186038318e-14 79.99999999999996 -1.1169887237372222e-11
  endloop
endfacet
facet normal -1.0 -1.0574874309530015e-16 1.7624790515924498e-15
  outer loop
    vertex -5.527134305793879e-13 77.73205080756954 4.999999999989156
    vertex -2.255973186038318e-14 79.99999999999996 -1.1169887237372222e-11
    vertex -5.527134305793879e-13 77.93185165257871 4.517638090194171
  endloop
endfacet
facet normal -1.0 -1.0574874309530015e-16 1.7624790515924498e-15
  outer loop
    vertex -5.527134305793879e-13 77.93185165257871 4.517638090194171
    vertex -2.255973186038318e-14 79.99999999999996 -1.1169887237372222e-11
    vertex -5.527134305793879e-13 78.00000000000051 3.9999999999891194
  endloop
endfacet
facet normal -1.0 -1.0574874309530015e-16 1.7624790515924498e-15
  outer loop
    vertex -5.527134305793879e-13 78.00000000000051 3.9999999999891194
    vertex -2.255973186038318e-14 79.99999999999996 -1.1169887237372222e-11
    vertex -5.527134305793879e-13 77.93185165257857 3.4823619097840894
  endloop
endfacet
facet normal -1.0 -1.0574874309530015e-16 1.7624790515924498e-15
  outer loop
    vertex -5.527134305793879e-13 77.93185165257857 3.4823619097840894
    vertex -2.255973186038318e-14 79.99999999999996 -1.1169887237372222e-11
    vertex -5.527134305793879e-13 77.73205080756925 2.9999999999891593
  endloop
endfacet
facet normal -1.0 -1.0574874309530015e-16 1.7624790515924498e-15
  outer loop
    vertex -5.527134305793879e-13 77.73205080756925 2.9999999999891593
    vertex -2.255973186038318e-14 79.99999999999996 -1.1169887237372222e-11
    vertex -5.527134305793879e-13 77.4142135623734 2.5857864376161097
  endloop
endfacet
facet normal -1.0 -1.0574874309530015e-16 1.7624790515924498e-15
  outer loop
    vertex -5.527134305793879e-13 77.4142135623734 2.5857864376161097
    vertex -2.255973186038318e-14 79.99999999999996 -1.1169887237372222e-11
    vertex -5.527134305793879e-13 77.00000000000027 2.2679491924203856
  endloop
endfacet
facet normal -1.0 -1.0574874309530015e-16 1.7624790515924498e-15
  outer loop
    vertex -5.527134305793879e-13 77.00000000000027 2.2679491924203856
    vertex -2.255973186038318e-14 79.99999999999996 -1.1169887237372222e-11
    vertex -5.527134305793879e-13 76.5176380902053 2.068148347411194
  endloop
endfacet
facet normal -1.0 -1.0574874309530015e-16 1.7624790515924498e-15
  outer loop
    vertex -5.527134305793879e-13 76.5176380902053 2.068148347411194
    vertex -2.255973186038318e-14 79.99999999999996 -1.1169887237372222e-11
    vertex -5.527134305793879e-13 76.00000000000023 1.9999999999894025
  endloop
endfacet
facet normal -1.0 -1.0574874309530015e-16 1.7624790515924498e-15
  outer loop
    vertex -5.527134305793879e-13 76.00000000000078 5.999999999989395
    vertex -5.639932965095795e-15 -3.658206618105456e-14 -4.229949723821846e-15
    vertex 0.0 1.0812808981519595e-12 7.999999999999999
  endloop
endfacet
facet normal -1.0 -1.0574874309530015e-16 1.7624790515924498e-15
  outer loop
    vertex -5.639932965095795e-15 -3.658206618105456e-14 -4.229949723821846e-15
    vertex -5.527134305793879e-13 76.00000000000078 5.999999999989395
    vertex -5.527134305793879e-13 75.48236190979573 5.931851652567604
  endloop
endfacet
facet normal -1.0 -1.0574874309530015e-16 1.7624790515924498e-15
  outer loop
    vertex -5.639932965095795e-15 -3.658206618105456e-14 -4.229949723821846e-15
    vertex -5.527134305793879e-13 75.48236190979573 5.931851652567604
    vertex -5.527134305793879e-13 75.00000000000075 5.732050807558412
  endloop
endfacet
facet normal -1.0 -1.0574874309530015e-16 1.7624790515924498e-15
  outer loop
    vertex -5.639932965095795e-15 -3.658206618105456e-14 -4.229949723821846e-15
    vertex -5.527134305793879e-13 75.00000000000075 5.732050807558412
    vertex -5.527134305793879e-13 74.58578643762762 5.414213562362688
  endloop
endfacet
facet normal -1.0 -1.0574874309530015e-16 1.7624790515924498e-15
  outer loop
    vertex -5.639932965095795e-15 -3.658206618105456e-14 -4.229949723821846e-15
    vertex -5.527134305793879e-13 74.58578643762762 5.414213562362688
    vertex -5.527134305793879e-13 74.26794919243177 4.9999999999896385
  endloop
endfacet
facet normal -1.0 -1.0574874309530015e-16 1.7624790515924498e-15
  outer loop
    vertex -5.639932965095795e-15 -3.658206618105456e-14 -4.229949723821846e-15
    vertex -5.527134305793879e-13 74.26794919243177 4.9999999999896385
    vertex -5.527134305793879e-13 74.06814834742245 4.517638090194709
  endloop
endfacet
facet normal -1.0 -1.0574874309530015e-16 1.7624790515924498e-15
  outer loop
    vertex -5.639932965095795e-15 -3.658206618105456e-14 -4.229949723821846e-15
    vertex -5.527134305793879e-13 74.06814834742245 4.517638090194709
    vertex -5.527134305793879e-13 74.00000000000051 3.999999999989678
  endloop
endfacet
facet normal -1.0 -1.0574874309530015e-16 1.7624790515924498e-15
  outer loop
    vertex -5.639932965095795e-15 -3.658206618105456e-14 -4.229949723821846e-15
    vertex -5.527134305793879e-13 74.00000000000051 3.999999999989678
    vertex -5.527134305793879e-13 74.06814834742231 3.482361909784627
  endloop
endfacet
facet normal -1.0 -1.0574874309530015e-16 1.7624790515924498e-15
  outer loop
    vertex -5.639932965095795e-15 -3.658206618105456e-14 -4.229949723821846e-15
    vertex -5.527134305793879e-13 74.06814834742231 3.482361909784627
    vertex -5.527134305793879e-13 74.26794919243149 2.9999999999896416
  endloop
endfacet
facet normal -1.0 -1.0574874309530015e-16 1.7624790515924498e-15
  outer loop
    vertex -5.639932965095795e-15 -3.658206618105456e-14 -4.229949723821846e-15
    vertex -5.527134305793879e-13 74.26794919243149 2.9999999999896416
    vertex -5.527134305793879e-13 74.58578643762722 2.585786437616503
  endloop
endfacet
facet normal -1.0 -1.0574874309530015e-16 1.7624790515924498e-15
  outer loop
    vertex -5.639932965095795e-15 -3.658206618105456e-14 -4.229949723821846e-15
    vertex -5.527134305793879e-13 74.58578643762722 2.585786437616503
    vertex -5.527134305793879e-13 75.00000000000027 2.2679491924206636
  endloop
endfacet
facet normal -1.0 -1.0574874309530015e-16 1.7624790515924498e-15
  outer loop
    vertex -5.639932965095795e-15 -3.658206618105456e-14 -4.229949723821846e-15
    vertex -5.527134305793879e-13 75.00000000000027 2.2679491924206636
    vertex -5.527134305793879e-13 75.48236190979522 2.0681483474113387
  endloop
endfacet
facet normal -1.0 -1.0574874309530015e-16 1.7624790515924498e-15
  outer loop
    vertex -5.639932965095795e-15 -3.658206618105456e-14 -4.229949723821846e-15
    vertex -5.527134305793879e-13 75.48236190979522 2.0681483474113387
    vertex -5.527134305793879e-13 76.00000000000023 1.9999999999894025
  endloop
endfacet
facet normal -1.0 -1.0574874309530015e-16 1.7624790515924498e-15
  outer loop
    vertex -5.639932965095795e-15 -3.658206618105456e-14 -4.229949723821846e-15
    vertex -5.527134305793879e-13 76.00000000000023 1.9999999999894025
    vertex -2.255973186038318e-14 79.99999999999996 -1.1169887237372222e-11
  endloop
endfacet
facet normal 0.0 -0.9914448613738286 -0.1305261922199134
  outer loop
    vertex 9.999999999999446 78.00000000000051 3.9999999999891194
    vertex -5.527134305793879e-13 77.93185165257871 4.517638090194171
    vertex -5.527134305793879e-13 78.00000000000051 3.9999999999891194
  endloop
endfacet
facet normal 0.0 -0.9914448613738286 -0.1305261922199134
  outer loop
    vertex -5.527134305793879e-13 77.93185165257871 4.517638090194171
    vertex 9.999999999999446 78.00000000000051 3.9999999999891194
    vertex 9.999999999999446 77.93185165257871 4.517638090194171
  endloop
endfacet
facet normal -0.0 -0.9238795325112364 0.3826834323652116
  outer loop
    vertex 9.999999999999446 77.73205080756925 2.9999999999891593
    vertex -5.527134305793879e-13 77.93185165257857 3.4823619097840894
    vertex -5.527134305793879e-13 77.73205080756925 2.9999999999891593
  endloop
endfacet
facet normal -0.0 -0.9238795325112364 0.3826834323652116
  outer loop
    vertex -5.527134305793879e-13 77.93185165257857 3.4823619097840894
    vertex 9.999999999999446 77.73205080756925 2.9999999999891593
    vertex 9.999999999999446 77.93185165257857 3.4823619097840894
  endloop
endfacet
facet normal 0.0 0.9238795325112364 -0.3826834323652116
  outer loop
    vertex 9.999999999999446 74.26794919243177 4.9999999999896385
    vertex -5.527134305793879e-13 74.06814834742245 4.517638090194709
    vertex -5.527134305793879e-13 74.26794919243177 4.9999999999896385
  endloop
endfacet
facet normal 0.0 0.9238795325112364 -0.3826834323652116
  outer loop
    vertex -5.527134305793879e-13 74.06814834742245 4.517638090194709
    vertex 9.999999999999446 74.26794919243177 4.9999999999896385
    vertex 9.999999999999446 74.06814834742245 4.517638090194709
  endloop
endfacet
facet normal 0.7311664263933113 -0.6821991328895359 9.522043647259942e-14
  outer loop
    vertex 8.240322757893885 65.44167368864973 -9.138101386696462e-12
    vertex 9.680112707252926 66.98480973394442 7.99999999999065
    vertex 8.240322757893885 65.44167368865085 7.999999999990866
  endloop
endfacet
facet normal 0.7311664263933113 -0.6821991328895359 9.522043647259942e-14
  outer loop
    vertex 9.680112707252926 66.98480973394442 7.99999999999065
    vertex 8.240322757893885 65.44167368864973 -9.138101386696462e-12
    vertex 9.680112707252926 66.9848097339433 -9.353828822611375e-12
  endloop
endfacet
facet normal 0.9932470838320921 -0.11601823330427447 1.619366880051679e-14
  outer loop
    vertex 5.626554735988865 57.56234452640099 -8.038314458502782e-12
    vertex 5.869856354262314 59.64528111282596 7.999999999991675
    vertex 5.626554735988865 57.56234452640211 7.9999999999919655
  endloop
endfacet
facet normal 0.9932470838320921 -0.11601823330427447 1.619366880051679e-14
  outer loop
    vertex 5.869856354262314 59.64528111282596 7.999999999991675
    vertex 5.626554735988865 57.56234452640099 -8.038314458502782e-12
    vertex 5.869856354262314 59.64528111282485 -8.328771006205215e-12
  endloop
endfacet
facet normal 0.0 0.3826834323649639 -0.9238795325113389
  outer loop
    vertex -5.527134305793879e-13 75.48236190979573 5.931851652567604
    vertex 9.999999999999446 75.00000000000075 5.732050807558412
    vertex -5.527134305793879e-13 75.00000000000075 5.732050807558412
  endloop
endfacet
facet normal 0.0 0.3826834323649639 -0.9238795325113389
  outer loop
    vertex 9.999999999999446 75.00000000000075 5.732050807558412
    vertex -5.527134305793879e-13 75.48236190979573 5.931851652567604
    vertex 9.999999999999446 75.48236190979573 5.931851652567604
  endloop
endfacet
facet normal 0.0 0.7933533402911415 -0.6087614290088429
  outer loop
    vertex 9.999999999999446 74.58578643762762 5.414213562362688
    vertex -5.527134305793879e-13 74.26794919243177 4.9999999999896385
    vertex -5.527134305793879e-13 74.58578643762762 5.414213562362688
  endloop
endfacet
facet normal 0.0 0.7933533402911415 -0.6087614290088429
  outer loop
    vertex -5.527134305793879e-13 74.26794919243177 4.9999999999896385
    vertex 9.999999999999446 74.58578643762762 5.414213562362688
    vertex 9.999999999999446 74.26794919243177 4.9999999999896385
  endloop
endfacet
facet normal 0.5961911230432942 -0.8028425404799969 1.1205968087276131e-13
  outer loop
    vertex 11.374522103238123 68.24307868427017 -9.530076727770619e-12
    vertex 9.680112707252926 66.98480973394442 7.99999999999065
    vertex 9.680112707252926 66.9848097339433 -9.353828822611375e-12
  endloop
endfacet
facet normal 0.5961911230432942 -0.8028425404799969 1.1205968087276131e-13
  outer loop
    vertex 9.680112707252926 66.98480973394442 7.99999999999065
    vertex 11.374522103238123 68.24307868427017 -9.530076727770619e-12
    vertex 11.374522103238123 68.24307868427128 7.999999999990473
  endloop
endfacet
facet normal 0.9363291775690444 -0.35112344158839204 4.8789274987157266e-14
  outer loop
    vertex -5.639932965095795e-15 -3.658206618105456e-14 -4.229949723821846e-15
    vertex 7.499999999999997 20.000000000001062 7.999999999997208
    vertex 0.0 1.0812808981519595e-12 7.999999999999999
  endloop
endfacet
facet normal 0.9363291775690444 -0.35112344158839204 4.8789274987157266e-14
  outer loop
    vertex 7.499999999999997 20.000000000001062 7.999999999997208
    vertex -5.639932965095795e-15 -3.658206618105456e-14 -4.229949723821846e-15
    vertex 7.499999999999997 19.999999999999947 -2.7959967674462403e-12
  endloop
endfacet
facet normal -0.0 -0.13052619221991238 0.9914448613738288
  outer loop
    vertex 9.999999999999446 76.5176380902053 2.068148347411194
    vertex -5.527134305793879e-13 76.00000000000023 1.9999999999894025
    vertex 9.999999999999446 76.00000000000023 1.9999999999894025
  endloop
endfacet
facet normal -0.0 -0.13052619221991238 0.9914448613738288
  outer loop
    vertex -5.527134305793879e-13 76.00000000000023 1.9999999999894025
    vertex 9.999999999999446 76.5176380902053 2.068148347411194
    vertex -5.527134305793879e-13 76.5176380902053 2.068148347411194
  endloop
endfacet
facet normal 0.0 -0.9238795325113432 -0.38268343236495367
  outer loop
    vertex 9.999999999999446 77.93185165257871 4.517638090194171
    vertex -5.527134305793879e-13 77.73205080756954 4.999999999989156
    vertex -5.527134305793879e-13 77.93185165257871 4.517638090194171
  endloop
endfacet
facet normal 0.0 -0.9238795325113432 -0.38268343236495367
  outer loop
    vertex -5.527134305793879e-13 77.73205080756954 4.999999999989156
    vertex 9.999999999999446 77.93185165257871 4.517638090194171
    vertex 9.999999999999446 77.73205080756954 4.999999999989156
  endloop
endfacet
facet normal 0.9965527323313126 -0.0829617483120697 1.1579689131742645e-14
  outer loop
    vertex 5.278596884119431 53.382606815085545 -7.45599137985664e-12
    vertex 5.626554735988865 57.56234452640211 7.9999999999919655
    vertex 5.278596884119431 53.38260681508666 7.999999999992547
  endloop
endfacet
facet normal 0.9965527323313126 -0.0829617483120697 1.1579689131742645e-14
  outer loop
    vertex 5.626554735988865 57.56234452640211 7.9999999999919655
    vertex 5.278596884119431 53.382606815085545 -7.45599137985664e-12
    vertex 5.626554735988865 57.56234452640099 -8.038314458502782e-12
  endloop
endfacet
facet normal 0.0 -0.13052619222018846 -0.9914448613737924
  outer loop
    vertex -5.527134305793879e-13 76.51763809020582 5.93185165256746
    vertex 9.999999999999446 76.00000000000078 5.999999999989395
    vertex -5.527134305793879e-13 76.00000000000078 5.999999999989395
  endloop
endfacet
facet normal 0.0 -0.13052619222018846 -0.9914448613737924
  outer loop
    vertex 9.999999999999446 76.00000000000078 5.999999999989395
    vertex -5.527134305793879e-13 76.51763809020582 5.93185165256746
    vertex 9.999999999999446 76.51763809020582 5.93185165256746
  endloop
endfacet
facet normal 0.0 0.608761429008615 -0.7933533402913163
  outer loop
    vertex -5.527134305793879e-13 75.00000000000075 5.732050807558412
    vertex 9.999999999999446 74.58578643762762 5.414213562362688
    vertex -5.527134305793879e-13 74.58578643762762 5.414213562362688
  endloop
endfacet
facet normal 0.0 0.608761429008615 -0.7933533402913163
  outer loop
    vertex 9.999999999999446 74.58578643762762 5.414213562362688
    vertex -5.527134305793879e-13 75.00000000000075 5.732050807558412
    vertex 9.999999999999446 75.00000000000075 5.732050807558412
  endloop
endfacet
facet normal 0.0 0.7933533402913113 0.6087614290086215
  outer loop
    vertex 9.999999999999446 74.26794919243149 2.9999999999896416
    vertex -5.527134305793879e-13 74.58578643762722 2.585786437616503
    vertex -5.527134305793879e-13 74.26794919243149 2.9999999999896416
  endloop
endfacet
facet normal 0.0 0.7933533402913113 0.6087614290086215
  outer loop
    vertex -5.527134305793879e-13 74.58578643762722 2.585786437616503
    vertex 9.999999999999446 74.26794919243149 2.9999999999896416
    vertex 9.999999999999446 74.58578643762722 2.585786437616503
  endloop
endfacet
facet normal 0.0 0.6087614290088363 0.7933533402911465
  outer loop
    vertex 9.999999999999446 75.00000000000027 2.2679491924206636
    vertex -5.527134305793879e-13 74.58578643762722 2.585786437616503
    vertex 9.999999999999446 74.58578643762722 2.585786437616503
  endloop
endfacet
facet normal 0.0 0.6087614290088363 0.7933533402911465
  outer loop
    vertex -5.527134305793879e-13 74.58578643762722 2.585786437616503
    vertex 9.999999999999446 75.00000000000027 2.2679491924206636
    vertex -5.527134305793879e-13 75.00000000000027 2.2679491924206636
  endloop
endfacet
facet normal 0.0 0.13052619222019193 0.9914448613737921
  outer loop
    vertex 9.999999999999446 76.00000000000023 1.9999999999894025
    vertex -5.527134305793879e-13 75.48236190979522 2.0681483474113387
    vertex 9.999999999999446 75.48236190979522 2.0681483474113387
  endloop
endfacet
facet normal 0.0 0.13052619222019193 0.9914448613737921
  outer loop
    vertex -5.527134305793879e-13 75.48236190979522 2.0681483474113387
    vertex 9.999999999999446 76.00000000000023 1.9999999999894025
    vertex -5.527134305793879e-13 76.00000000000023 1.9999999999894025
  endloop
endfacet
facet normal 0.9786681344734548 -0.2054475177904272 2.867608792370642e-14
  outer loop
    vertex 5.869856354262314 59.64528111282485 -8.328771006205215e-12
    vertex 6.303455954400355 61.71077266190568 7.999999999991386
    vertex 5.869856354262314 59.64528111282596 7.999999999991675
  endloop
endfacet
facet normal 0.9786681344734548 -0.2054475177904272 2.867608792370642e-14
  outer loop
    vertex 6.303455954400355 61.71077266190568 7.999999999991386
    vertex 5.869856354262314 59.64528111282485 -8.328771006205215e-12
    vertex 6.303455954400355 61.710772661904564 -8.617817570666374e-12
  endloop
endfacet
facet normal -1.0 0.0 0.0
  outer loop
    vertex 9.999999999999446 76.51763809020582 5.93185165256746
    vertex 9.999999999999446 75.48236190979573 5.931851652567604
    vertex 9.999999999999446 76.00000000000078 5.999999999989395
  endloop
endfacet
facet normal -1.0 0.0 0.0
  outer loop
    vertex 9.999999999999446 75.48236190979573 5.931851652567604
    vertex 9.999999999999446 76.51763809020582 5.93185165256746
    vertex 9.999999999999446 77.00000000000075 5.732050807558133
  endloop
endfacet
facet normal -1.0 0.0 0.0
  outer loop
    vertex 9.999999999999446 75.48236190979573 5.931851652567604
    vertex 9.999999999999446 77.00000000000075 5.732050807558133
    vertex 9.999999999999446 75.00000000000075 5.732050807558412
  endloop
endfacet
facet normal -1.0 0.0 0.0
  outer loop
    vertex 9.999999999999446 75.00000000000075 5.732050807558412
    vertex 9.999999999999446 77.00000000000075 5.732050807558133
    vertex 9.999999999999446 77.41421356237379 5.414213562362294
  endloop
endfacet
facet normal -1.0 0.0 0.0
  outer loop
    vertex 9.999999999999446 75.00000000000075 5.732050807558412
    vertex 9.999999999999446 77.41421356237379 5.414213562362294
    vertex 9.999999999999446 74.58578643762762 5.414213562362688
  endloop
endfacet
facet normal -1.0 0.0 0.0
  outer loop
    vertex 9.999999999999446 74.58578643762762 5.414213562362688
    vertex 9.999999999999446 77.41421356237379 5.414213562362294
    vertex 9.999999999999446 77.73205080756954 4.999999999989156
  endloop
endfacet
facet normal -1.0 0.0 0.0
  outer loop
    vertex 9.999999999999446 74.58578643762762 5.414213562362688
    vertex 9.999999999999446 77.73205080756954 4.999999999989156
    vertex 9.999999999999446 74.26794919243177 4.9999999999896385
  endloop
endfacet
facet normal -1.0 0.0 0.0
  outer loop
    vertex 9.999999999999446 74.26794919243177 4.9999999999896385
    vertex 9.999999999999446 77.73205080756954 4.999999999989156
    vertex 9.999999999999446 77.93185165257871 4.517638090194171
  endloop
endfacet
facet normal -1.0 0.0 0.0
  outer loop
    vertex 9.999999999999446 74.26794919243177 4.9999999999896385
    vertex 9.999999999999446 77.93185165257871 4.517638090194171
    vertex 9.999999999999446 74.06814834742245 4.517638090194709
  endloop
endfacet
facet normal -1.0 0.0 0.0
  outer loop
    vertex 9.999999999999446 74.06814834742245 4.517638090194709
    vertex 9.999999999999446 77.93185165257871 4.517638090194171
    vertex 9.999999999999446 78.00000000000051 3.9999999999891194
  endloop
endfacet
facet normal -1.0 0.0 0.0
  outer loop
    vertex 9.999999999999446 74.06814834742245 4.517638090194709
    vertex 9.999999999999446 78.00000000000051 3.9999999999891194
    vertex 9.999999999999446 74.00000000000051 3.999999999989678
  endloop
endfacet
facet normal -1.0 0.0 0.0
  outer loop
    vertex 9.999999999999446 74.00000000000051 3.999999999989678
    vertex 9.999999999999446 78.00000000000051 3.9999999999891194
    vertex 9.999999999999446 77.93185165257857 3.4823619097840894
  endloop
endfacet
facet normal -1.0 0.0 0.0
  outer loop
    vertex 9.999999999999446 74.00000000000051 3.999999999989678
    vertex 9.999999999999446 77.93185165257857 3.4823619097840894
    vertex 9.999999999999446 74.06814834742231 3.482361909784627
  endloop
endfacet
facet normal -1.0 0.0 0.0
  outer loop
    vertex 9.999999999999446 74.06814834742231 3.482361909784627
    vertex 9.999999999999446 77.93185165257857 3.4823619097840894
    vertex 9.999999999999446 77.73205080756925 2.9999999999891593
  endloop
endfacet
facet normal -1.0 0.0 0.0
  outer loop
    vertex 9.999999999999446 74.06814834742231 3.482361909784627
    vertex 9.999999999999446 77.73205080756925 2.9999999999891593
    vertex 9.999999999999446 74.26794919243149 2.9999999999896416
  endloop
endfacet
facet normal -1.0 0.0 0.0
  outer loop
    vertex 9.999999999999446 74.26794919243149 2.9999999999896416
    vertex 9.999999999999446 77.73205080756925 2.9999999999891593
    vertex 9.999999999999446 77.4142135623734 2.5857864376161097
  endloop
endfacet
facet normal -1.0 0.0 0.0
  outer loop
    vertex 9.999999999999446 74.26794919243149 2.9999999999896416
    vertex 9.999999999999446 77.4142135623734 2.5857864376161097
    vertex 9.999999999999446 74.58578643762722 2.585786437616503
  endloop
endfacet
facet normal -1.0 0.0 0.0
  outer loop
    vertex 9.999999999999446 74.58578643762722 2.585786437616503
    vertex 9.999999999999446 77.4142135623734 2.5857864376161097
    vertex 9.999999999999446 77.00000000000027 2.2679491924203856
  endloop
endfacet
facet normal -1.0 0.0 0.0
  outer loop
    vertex 9.999999999999446 74.58578643762722 2.585786437616503
    vertex 9.999999999999446 77.00000000000027 2.2679491924203856
    vertex 9.999999999999446 75.00000000000027 2.2679491924206636
  endloop
endfacet
facet normal -1.0 0.0 0.0
  outer loop
    vertex 9.999999999999446 75.00000000000027 2.2679491924206636
    vertex 9.999999999999446 77.00000000000027 2.2679491924203856
    vertex 9.999999999999446 76.5176380902053 2.068148347411194
  endloop
endfacet
facet normal -1.0 0.0 0.0
  outer loop
    vertex 9.999999999999446 75.00000000000027 2.2679491924206636
    vertex 9.999999999999446 76.5176380902053 2.068148347411194
    vertex 9.999999999999446 75.48236190979522 2.0681483474113387
  endloop
endfacet
facet normal -1.0 0.0 0.0
  outer loop
    vertex 9.999999999999446 75.48236190979522 2.0681483474113387
    vertex 9.999999999999446 76.5176380902053 2.068148347411194
    vertex 9.999999999999446 76.00000000000023 1.9999999999894025
  endloop
endfacet
facet normal 0.0 0.9238795325113429 0.38268343236495406
  outer loop
    vertex 9.999999999999446 74.06814834742231 3.482361909784627
    vertex -5.527134305793879e-13 74.26794919243149 2.9999999999896416
    vertex -5.527134305793879e-13 74.06814834742231 3.482361909784627
  endloop
endfacet
facet normal 0.0 0.9238795325113429 0.38268343236495406
  outer loop
    vertex -5.527134305793879e-13 74.26794919243149 2.9999999999896416
    vertex 9.999999999999446 74.06814834742231 3.482361909784627
    vertex 9.999999999999446 74.26794919243149 2.9999999999896416
  endloop
endfacet
facet normal 0.0 0.38268343236521296 0.9238795325112358
  outer loop
    vertex 9.999999999999446 75.48236190979522 2.0681483474113387
    vertex -5.527134305793879e-13 75.00000000000027 2.2679491924206636
    vertex 9.999999999999446 75.00000000000027 2.2679491924206636
  endloop
endfacet
facet normal 0.0 0.38268343236521296 0.9238795325112358
  outer loop
    vertex -5.527134305793879e-13 75.00000000000027 2.2679491924206636
    vertex 9.999999999999446 75.48236190979522 2.0681483474113387
    vertex -5.527134305793879e-13 75.48236190979522 2.0681483474113387
  endloop
endfacet
facet normal -0.0 -0.382683432364965 0.9238795325113384
  outer loop
    vertex 9.999999999999446 77.00000000000027 2.2679491924203856
    vertex -5.527134305793879e-13 76.5176380902053 2.068148347411194
    vertex 9.999999999999446 76.5176380902053 2.068148347411194
  endloop
endfacet
facet normal -0.0 -0.382683432364965 0.9238795325113384
  outer loop
    vertex -5.527134305793879e-13 76.5176380902053 2.068148347411194
    vertex 9.999999999999446 77.00000000000027 2.2679491924203856
    vertex -5.527134305793879e-13 77.00000000000027 2.2679491924203856
  endloop
endfacet
facet normal -0.0 -0.7933533402911519 0.6087614290088293
  outer loop
    vertex 9.999999999999446 77.4142135623734 2.5857864376161097
    vertex -5.527134305793879e-13 77.73205080756925 2.9999999999891593
    vertex -5.527134305793879e-13 77.4142135623734 2.5857864376161097
  endloop
endfacet
facet normal -0.0 -0.7933533402911519 0.6087614290088293
  outer loop
    vertex -5.527134305793879e-13 77.73205080756925 2.9999999999891593
    vertex 9.999999999999446 77.4142135623734 2.5857864376161097
    vertex 9.999999999999446 77.73205080756925 2.9999999999891593
  endloop
endfacet
facet normal 0.0 -0.793353340291311 -0.6087614290086217
  outer loop
    vertex 9.999999999999446 77.73205080756954 4.999999999989156
    vertex -5.527134305793879e-13 77.41421356237379 5.414213562362294
    vertex -5.527134305793879e-13 77.73205080756954 4.999999999989156
  endloop
endfacet
facet normal 0.0 -0.793353340291311 -0.6087614290086217
  outer loop
    vertex -5.527134305793879e-13 77.41421356237379 5.414213562362294
    vertex 9.999999999999446 77.73205080756954 4.999999999989156
    vertex 9.999999999999446 77.41421356237379 5.414213562362294
  endloop
endfacet
facet normal 0.0 0.9914448613738288 0.13052619221991327
  outer loop
    vertex 9.999999999999446 74.00000000000051 3.999999999989678
    vertex -5.527134305793879e-13 74.06814834742231 3.482361909784627
    vertex -5.527134305793879e-13 74.00000000000051 3.999999999989678
  endloop
endfacet
facet normal 0.0 0.9914448613738288 0.13052619221991327
  outer loop
    vertex -5.527134305793879e-13 74.06814834742231 3.482361909784627
    vertex 9.999999999999446 74.00000000000051 3.999999999989678
    vertex 9.999999999999446 74.06814834742231 3.482361909784627
  endloop
endfacet
facet normal 0.27268723237124576 -0.9621027353155744 1.3428900444390466e-13
  outer loop
    vertex 15.298549851708218 69.75075295780545 -9.740164230720437e-12
    vertex 13.268019788307349 69.17524308457689 7.999999999990344
    vertex 13.268019788307349 69.17524308457577 -9.659795185967823e-12
  endloop
endfacet
facet normal 0.27268723237124576 -0.9621027353155744 1.3428900444390466e-13
  outer loop
    vertex 13.268019788307349 69.17524308457689 7.999999999990344
    vertex 15.298549851708218 69.75075295780545 -9.740164230720437e-12
    vertex 15.298549851708218 69.75075295780657 7.999999999990264
  endloop
endfacet
facet normal 0.0 0.9914448613737923 -0.13052619222019038
  outer loop
    vertex 9.999999999999446 74.06814834742245 4.517638090194709
    vertex -5.527134305793879e-13 74.00000000000051 3.999999999989678
    vertex -5.527134305793879e-13 74.06814834742245 4.517638090194709
  endloop
endfacet
facet normal 0.0 0.9914448613737923 -0.13052619222019038
  outer loop
    vertex -5.527134305793879e-13 74.00000000000051 3.999999999989678
    vertex 9.999999999999446 74.06814834742245 4.517638090194709
    vertex 9.999999999999446 74.00000000000051 3.999999999989678
  endloop
endfacet
facet normal 0.925590884463449 -0.3785254477550619 5.2834072360305087e-14
  outer loop
    vertex 6.303455954400355 61.710772661904564 -8.617817570666374e-12
    vertex 7.102338727742458 63.66424399955485 7.999999999991114
    vertex 6.303455954400355 61.71077266190568 7.999999999991386
  endloop
endfacet
facet normal 0.925590884463449 -0.3785254477550619 5.2834072360305087e-14
  outer loop
    vertex 7.102338727742458 63.66424399955485 7.999999999991114
    vertex 6.303455954400355 61.710772661904564 -8.617817570666374e-12
    vertex 7.102338727742458 63.664243999553726 -8.889944336232247e-12
  endloop
endfacet
facet normal 0.4416767500579291 -0.8971742575766793 1.2522637493921405e-13
  outer loop
    vertex 13.268019788307349 69.17524308457577 -9.659795185967823e-12
    vertex 11.374522103238123 68.24307868427128 7.999999999990473
    vertex 11.374522103238123 68.24307868427017 -9.530076727770619e-12
  endloop
endfacet
facet normal 0.4416767500579291 -0.8971742575766793 1.2522637493921405e-13
  outer loop
    vertex 11.374522103238123 68.24307868427128 7.999999999990473
    vertex 13.268019788307349 69.17524308457577 -9.659795185967823e-12
    vertex 13.268019788307349 69.17524308457689 7.999999999990344
  endloop
endfacet
facet normal -0.0 -0.9914448613737922 0.13052619222019055
  outer loop
    vertex 9.999999999999446 77.93185165257857 3.4823619097840894
    vertex -5.527134305793879e-13 78.00000000000051 3.9999999999891194
    vertex -5.527134305793879e-13 77.93185165257857 3.4823619097840894
  endloop
endfacet
facet normal -0.0 -0.9914448613737922 0.13052619222019055
  outer loop
    vertex -5.527134305793879e-13 78.00000000000051 3.9999999999891194
    vertex 9.999999999999446 77.93185165257857 3.4823619097840894
    vertex 9.999999999999446 78.00000000000051 3.9999999999891194
  endloop
endfacet
facet normal 0.0 -0.38268343236522234 -0.9238795325112318
  outer loop
    vertex -5.527134305793879e-13 77.00000000000075 5.732050807558133
    vertex 9.999999999999446 76.51763809020582 5.93185165256746
    vertex -5.527134305793879e-13 76.51763809020582 5.93185165256746
  endloop
endfacet
facet normal 0.0 -0.38268343236522234 -0.9238795325112318
  outer loop
    vertex 9.999999999999446 76.51763809020582 5.93185165256746
    vertex -5.527134305793879e-13 77.00000000000075 5.732050807558133
    vertex 9.999999999999446 77.00000000000075 5.732050807558133
  endloop
endfacet
facet normal -0.0 -0.6087614290086046 0.7933533402913243
  outer loop
    vertex 9.999999999999446 77.4142135623734 2.5857864376161097
    vertex -5.527134305793879e-13 77.00000000000027 2.2679491924203856
    vertex 9.999999999999446 77.00000000000027 2.2679491924203856
  endloop
endfacet
facet normal -0.0 -0.6087614290086046 0.7933533402913243
  outer loop
    vertex -5.527134305793879e-13 77.00000000000027 2.2679491924203856
    vertex 9.999999999999446 77.4142135623734 2.5857864376161097
    vertex -5.527134305793879e-13 77.4142135623734 2.5857864376161097
  endloop
endfacet
facet normal 0.0 0.13052619221991238 -0.9914448613738288
  outer loop
    vertex -5.527134305793879e-13 76.00000000000078 5.999999999989395
    vertex 9.999999999999446 75.48236190979573 5.931851652567604
    vertex -5.527134305793879e-13 75.48236190979573 5.931851652567604
  endloop
endfacet
facet normal 0.0 0.13052619221991238 -0.9914448613738288
  outer loop
    vertex 9.999999999999446 75.48236190979573 5.931851652567604
    vertex -5.527134305793879e-13 76.00000000000078 5.999999999989395
    vertex 9.999999999999446 76.00000000000078 5.999999999989395
  endloop
endfacet
facet normal 0.8421790923135761 -0.5391979010251068 7.52605170623014e-14
  outer loop
    vertex 7.102338727742458 63.664243999553726 -8.889944336232247e-12
    vertex 8.240322757893885 65.44167368865085 7.999999999990866
    vertex 7.102338727742458 63.66424399955485 7.999999999991114
  endloop
endfacet
facet normal 0.8421790923135761 -0.5391979010251068 7.52605170623014e-14
  outer loop
    vertex 8.240322757893885 65.44167368865085 7.999999999990866
    vertex 7.102338727742458 63.664243999553726 -8.889944336232247e-12
    vertex 8.240322757893885 65.44167368864973 -9.138101386696462e-12
  endloop
endfacet
facet normal 0.0 -0.608761429008836 -0.7933533402911467
  outer loop
    vertex -5.527134305793879e-13 77.41421356237379 5.414213562362294
    vertex 9.999999999999446 77.00000000000075 5.732050807558133
    vertex -5.527134305793879e-13 77.00000000000075 5.732050807558133
  endloop
endfacet
facet normal 0.0 -0.608761429008836 -0.7933533402911467
  outer loop
    vertex 9.999999999999446 77.00000000000075 5.732050807558133
    vertex -5.527134305793879e-13 77.41421356237379 5.414213562362294
    vertex 9.999999999999446 77.41421356237379 5.414213562362294
  endloop
endfacet
endsolid AngledFanBracket
