solid power-inlet-v2
facet normal 0.0 0.0 -1.0
  outer loop
    vertex -50.8 -4.0404732656870195 0.0
    vertex -45.79185842870421 -21.790473265687023 -1.4099832412739487e-15
    vertex -50.8 -33.840473265687024 0.0
  endloop
endfacet
facet normal 0.0 0.0 -1.0
  outer loop
    vertex -45.79185842870421 -21.790473265687023 -1.4099832412739487e-15
    vertex -50.8 -4.0404732656870195 0.0
    vertex -45.42634559672906 -21.314127668957962 -1.4099832412739487e-15
  endloop
endfacet
facet normal 0.0 0.0 -1.0
  outer loop
    vertex -45.42634559672906 -21.314127668957962 -1.4099832412739487e-15
    vertex -50.8 -4.0404732656870195 0.0
    vertex -44.949999999999996 -20.948614836982816 -1.4099832412739487e-15
  endloop
endfacet
facet normal 0.0 0.0 -1.0
  outer loop
    vertex -44.949999999999996 -20.948614836982816 -1.4099832412739487e-15
    vertex -50.8 -4.0404732656870195 0.0
    vertex -44.3952838037358 -20.718843865222166 -1.4099832412739487e-15
  endloop
endfacet
facet normal 0.0 0.0 -1.0
  outer loop
    vertex -44.3952838037358 -20.718843865222166 -1.4099832412739487e-15
    vertex -50.8 -4.0404732656870195 0.0
    vertex 0.0 -4.0404732656870195 0.0
  endloop
endfacet
facet normal 0.0 0.0 -1.0
  outer loop
    vertex -50.8 -33.840473265687024 0.0
    vertex -45.79185842870421 -21.790473265687023 -1.4099832412739487e-15
    vertex -46.02162940046485 -22.345189461951225 -1.4099832412739487e-15
  endloop
endfacet
facet normal 0.0 0.0 -1.0
  outer loop
    vertex -50.8 -33.840473265687024 0.0
    vertex -46.02162940046485 -22.345189461951225 -1.4099832412739487e-15
    vertex -46.099999999999994 -22.94047326568702 -1.4099832412739487e-15
  endloop
endfacet
facet normal 0.0 0.0 -1.0
  outer loop
    vertex -44.3952838037358 -20.718843865222166 -1.4099832412739487e-15
    vertex 0.0 -4.0404732656870195 0.0
    vertex -43.8 -20.640473265687024 -1.4099832412739487e-15
  endloop
endfacet
facet normal 0.0 0.0 -1.0
  outer loop
    vertex -43.8 -20.640473265687024 -1.4099832412739487e-15
    vertex 0.0 -4.0404732656870195 0.0
    vertex -43.2047161962642 -20.718843865222166 -1.4099832412739487e-15
  endloop
endfacet
facet normal 0.0 0.0 -1.0
  outer loop
    vertex -43.2047161962642 -20.718843865222166 -1.4099832412739487e-15
    vertex 0.0 -4.0404732656870195 0.0
    vertex -42.65 -20.948614836982816 -1.4099832412739487e-15
  endloop
endfacet
facet normal 0.0 0.0 -1.0
  outer loop
    vertex -42.65 -20.948614836982816 -1.4099832412739487e-15
    vertex 0.0 -4.0404732656870195 0.0
    vertex -42.17365440327094 -21.314127668957962 -1.4099832412739487e-15
  endloop
endfacet
facet normal 0.0 0.0 -1.0
  outer loop
    vertex -42.17365440327094 -21.314127668957962 -1.4099832412739487e-15
    vertex 0.0 -4.0404732656870195 0.0
    vertex -41.80814157129579 -21.79047326568702 -1.4099832412739487e-15
  endloop
endfacet
facet normal 0.0 0.0 -1.0
  outer loop
    vertex -41.80814157129579 -21.79047326568702 -1.4099832412739487e-15
    vertex 0.0 -4.0404732656870195 0.0
    vertex -41.57837059953515 -22.34518946195122 -1.4099832412739487e-15
  endloop
endfacet
facet normal 0.0 0.0 -1.0
  outer loop
    vertex -41.57837059953515 -22.34518946195122 -1.4099832412739487e-15
    vertex 0.0 -4.0404732656870195 0.0
    vertex -37.949999999999996 -20.948614836982816 -1.4099832412739487e-15
  endloop
endfacet
facet normal 0.0 0.0 -1.0
  outer loop
    vertex -41.57837059953515 -22.34518946195122 -1.4099832412739487e-15
    vertex -37.949999999999996 -20.948614836982816 -1.4099832412739487e-15
    vertex -41.5 -22.94047326568702 -1.4099832412739487e-15
  endloop
endfacet
facet normal 0.0 0.0 -1.0
  outer loop
    vertex -41.5 -22.94047326568702 -1.4099832412739487e-15
    vertex -37.949999999999996 -20.948614836982816 -1.4099832412739487e-15
    vertex -38.42634559672906 -21.314127668957962 -1.4099832412739487e-15
  endloop
endfacet
facet normal 0.0 0.0 -1.0
  outer loop
    vertex -41.5 -22.94047326568702 -1.4099832412739487e-15
    vertex -38.42634559672906 -21.314127668957962 -1.4099832412739487e-15
    vertex -38.79185842870421 -21.790473265687023 -1.4099832412739487e-15
  endloop
endfacet
facet normal 0.0 0.0 -1.0
  outer loop
    vertex -41.5 -22.94047326568702 -1.4099832412739487e-15
    vertex -38.79185842870421 -21.790473265687023 -1.4099832412739487e-15
    vertex -39.02162940046485 -22.345189461951225 -1.4099832412739487e-15
  endloop
endfacet
facet normal 0.0 0.0 -1.0
  outer loop
    vertex -41.5 -22.94047326568702 -1.4099832412739487e-15
    vertex -39.02162940046485 -22.345189461951225 -1.4099832412739487e-15
    vertex -39.099999999999994 -22.94047326568702 -1.4099832412739487e-15
  endloop
endfacet
facet normal 0.0 0.0 -1.0
  outer loop
    vertex -37.949999999999996 -20.948614836982816 -1.4099832412739487e-15
    vertex 0.0 -4.0404732656870195 0.0
    vertex -37.3952838037358 -20.718843865222166 -1.4099832412739487e-15
  endloop
endfacet
facet normal 0.0 0.0 -1.0
  outer loop
    vertex -37.3952838037358 -20.718843865222166 -1.4099832412739487e-15
    vertex 0.0 -4.0404732656870195 0.0
    vertex -36.8 -20.640473265687024 -1.4099832412739487e-15
  endloop
endfacet
facet normal 0.0 0.0 -1.0
  outer loop
    vertex -36.8 -20.640473265687024 -1.4099832412739487e-15
    vertex 0.0 -4.0404732656870195 0.0
    vertex -36.20471619626421 -20.718843865222166 -1.4099832412739487e-15
  endloop
endfacet
facet normal 0.0 0.0 -1.0
  outer loop
    vertex -36.20471619626421 -20.718843865222166 -1.4099832412739487e-15
    vertex 0.0 -4.0404732656870195 0.0
    vertex -35.650000000000006 -20.948614836982816 -1.4099832412739487e-15
  endloop
endfacet
facet normal 0.0 0.0 -1.0
  outer loop
    vertex -35.650000000000006 -20.948614836982816 -1.4099832412739487e-15
    vertex 0.0 -4.0404732656870195 0.0
    vertex -35.173654403270945 -21.314127668957962 -1.4099832412739487e-15
  endloop
endfacet
facet normal 0.0 0.0 -1.0
  outer loop
    vertex -35.173654403270945 -21.314127668957962 -1.4099832412739487e-15
    vertex 0.0 -4.0404732656870195 0.0
    vertex -34.80814157129579 -21.79047326568702 -1.4099832412739487e-15
  endloop
endfacet
facet normal 0.0 0.0 -1.0
  outer loop
    vertex -34.80814157129579 -21.79047326568702 -1.4099832412739487e-15
    vertex 0.0 -4.0404732656870195 0.0
    vertex -34.57837059953515 -22.34518946195122 -1.4099832412739487e-15
  endloop
endfacet
facet normal 0.0 0.0 -1.0
  outer loop
    vertex -34.57837059953515 -22.34518946195122 -1.4099832412739487e-15
    vertex 0.0 -4.0404732656870195 0.0
    vertex -34.50000000000001 -22.94047326568702 -1.4099832412739487e-15
  endloop
endfacet
facet normal 0.0 0.0 -1.0
  outer loop
    vertex -34.50000000000001 -22.94047326568702 -1.4099832412739487e-15
    vertex 0.0 -4.0404732656870195 0.0
    vertex -7.791858428704208 -17.790473265687023 0.0
  endloop
endfacet
facet normal 0.0 0.0 -1.0
  outer loop
    vertex -34.50000000000001 -22.94047326568702 -1.4099832412739487e-15
    vertex -7.791858428704208 -17.790473265687023 0.0
    vertex -8.021629400464855 -18.34518946195122 0.0
  endloop
endfacet
facet normal 0.0 0.0 -1.0
  outer loop
    vertex -34.50000000000001 -22.94047326568702 -1.4099832412739487e-15
    vertex -8.021629400464855 -18.34518946195122 0.0
    vertex -8.1 -18.94047326568702 0.0
  endloop
endfacet
facet normal 0.0 0.0 -1.0
  outer loop
    vertex -7.791858428704208 -17.790473265687023 0.0
    vertex 0.0 -4.0404732656870195 0.0
    vertex -7.426345596729058 -17.314127668957962 0.0
  endloop
endfacet
facet normal 0.0 0.0 -1.0
  outer loop
    vertex -7.426345596729058 -17.314127668957962 0.0
    vertex 0.0 -4.0404732656870195 0.0
    vertex -6.95 -16.948614836982813 0.0
  endloop
endfacet
facet normal 0.0 0.0 -1.0
  outer loop
    vertex -6.95 -16.948614836982813 0.0
    vertex 0.0 -4.0404732656870195 0.0
    vertex -6.395283803735798 -16.718843865222166 0.0
  endloop
endfacet
facet normal 0.0 0.0 -1.0
  outer loop
    vertex -6.395283803735798 -16.718843865222166 0.0
    vertex 0.0 -4.0404732656870195 0.0
    vertex -5.8 -16.64047326568702 0.0
  endloop
endfacet
facet normal 0.0 0.0 -1.0
  outer loop
    vertex -5.8 -16.64047326568702 0.0
    vertex 0.0 -4.0404732656870195 0.0
    vertex -5.2047161962642035 -16.718843865222166 0.0
  endloop
endfacet
facet normal 0.0 0.0 -1.0
  outer loop
    vertex -5.2047161962642035 -16.718843865222166 0.0
    vertex 0.0 -4.0404732656870195 0.0
    vertex -4.650000000000001 -16.94861483698281 0.0
  endloop
endfacet
facet normal 0.0 0.0 -1.0
  outer loop
    vertex -4.650000000000001 -16.94861483698281 0.0
    vertex 0.0 -4.0404732656870195 0.0
    vertex -4.173654403270943 -17.314127668957962 0.0
  endloop
endfacet
facet normal 0.0 0.0 -1.0
  outer loop
    vertex -4.173654403270943 -17.314127668957962 0.0
    vertex 0.0 -4.0404732656870195 0.0
    vertex -3.8081415712957924 -17.79047326568702 0.0
  endloop
endfacet
facet normal 0.0 0.0 -1.0
  outer loop
    vertex -3.8081415712957924 -17.79047326568702 0.0
    vertex 0.0 -4.0404732656870195 0.0
    vertex -3.5783705995351447 -18.34518946195122 0.0
  endloop
endfacet
facet normal 0.0 0.0 -1.0
  outer loop
    vertex -3.5783705995351447 -18.34518946195122 0.0
    vertex 0.0 -4.0404732656870195 0.0
    vertex -3.5000000000000013 -18.94047326568702 0.0
  endloop
endfacet
facet normal 0.0 0.0 -1.0
  outer loop
    vertex -50.8 -33.840473265687024 0.0
    vertex -44.3952838037358 -25.162102666151878 -1.4099832412739487e-15
    vertex 0.0 -33.840473265687024 0.0
  endloop
endfacet
facet normal 0.0 0.0 -1.0
  outer loop
    vertex -44.3952838037358 -25.162102666151878 -1.4099832412739487e-15
    vertex -50.8 -33.840473265687024 0.0
    vertex -44.949999999999996 -24.932331694391227 -1.4099832412739487e-15
  endloop
endfacet
facet normal 0.0 0.0 -1.0
  outer loop
    vertex -44.949999999999996 -24.932331694391227 -1.4099832412739487e-15
    vertex -50.8 -33.840473265687024 0.0
    vertex -45.42634559672906 -24.56681886241608 -1.4099832412739487e-15
  endloop
endfacet
facet normal 0.0 0.0 -1.0
  outer loop
    vertex -45.42634559672906 -24.56681886241608 -1.4099832412739487e-15
    vertex -50.8 -33.840473265687024 0.0
    vertex -45.79185842870421 -24.090473265687024 -1.4099832412739487e-15
  endloop
endfacet
facet normal 0.0 0.0 -1.0
  outer loop
    vertex -45.79185842870421 -24.090473265687024 -1.4099832412739487e-15
    vertex -50.8 -33.840473265687024 0.0
    vertex -46.02162940046485 -23.535757069422818 -1.4099832412739487e-15
  endloop
endfacet
facet normal 0.0 0.0 -1.0
  outer loop
    vertex -46.02162940046485 -23.535757069422818 -1.4099832412739487e-15
    vertex -50.8 -33.840473265687024 0.0
    vertex -46.099999999999994 -22.94047326568702 -1.4099832412739487e-15
  endloop
endfacet
facet normal 0.0 0.0 -1.0
  outer loop
    vertex 0.0 -33.840473265687024 0.0
    vertex -44.3952838037358 -25.162102666151878 -1.4099832412739487e-15
    vertex -43.8 -25.24047326568702 -1.4099832412739487e-15
  endloop
endfacet
facet normal 0.0 0.0 -1.0
  outer loop
    vertex 0.0 -33.840473265687024 0.0
    vertex -43.8 -25.24047326568702 -1.4099832412739487e-15
    vertex -43.2047161962642 -25.162102666151878 -1.4099832412739487e-15
  endloop
endfacet
facet normal 0.0 0.0 -1.0
  outer loop
    vertex 0.0 -33.840473265687024 0.0
    vertex -43.2047161962642 -25.162102666151878 -1.4099832412739487e-15
    vertex -42.65 -24.932331694391227 -1.4099832412739487e-15
  endloop
endfacet
facet normal 0.0 0.0 -1.0
  outer loop
    vertex 0.0 -33.840473265687024 0.0
    vertex -42.65 -24.932331694391227 -1.4099832412739487e-15
    vertex -42.17365440327094 -24.56681886241608 -1.4099832412739487e-15
  endloop
endfacet
facet normal 0.0 0.0 -1.0
  outer loop
    vertex 0.0 -33.840473265687024 0.0
    vertex -42.17365440327094 -24.56681886241608 -1.4099832412739487e-15
    vertex -37.3952838037358 -25.162102666151878 -1.4099832412739487e-15
  endloop
endfacet
facet normal 0.0 0.0 -1.0
  outer loop
    vertex -37.3952838037358 -25.162102666151878 -1.4099832412739487e-15
    vertex -42.17365440327094 -24.56681886241608 -1.4099832412739487e-15
    vertex -41.80814157129579 -24.09047326568702 -1.4099832412739487e-15
  endloop
endfacet
facet normal 0.0 0.0 -1.0
  outer loop
    vertex -37.3952838037358 -25.162102666151878 -1.4099832412739487e-15
    vertex -41.80814157129579 -24.09047326568702 -1.4099832412739487e-15
    vertex -41.57837059953515 -23.535757069422818 -1.4099832412739487e-15
  endloop
endfacet
facet normal 0.0 0.0 -1.0
  outer loop
    vertex -37.3952838037358 -25.162102666151878 -1.4099832412739487e-15
    vertex -41.57837059953515 -23.535757069422818 -1.4099832412739487e-15
    vertex -37.949999999999996 -24.932331694391227 -1.4099832412739487e-15
  endloop
endfacet
facet normal 0.0 0.0 -1.0
  outer loop
    vertex -37.949999999999996 -24.932331694391227 -1.4099832412739487e-15
    vertex -41.57837059953515 -23.535757069422818 -1.4099832412739487e-15
    vertex -41.5 -22.94047326568702 -1.4099832412739487e-15
  endloop
endfacet
facet normal 0.0 0.0 -1.0
  outer loop
    vertex -37.949999999999996 -24.932331694391227 -1.4099832412739487e-15
    vertex -41.5 -22.94047326568702 -1.4099832412739487e-15
    vertex -38.42634559672906 -24.56681886241608 -1.4099832412739487e-15
  endloop
endfacet
facet normal 0.0 0.0 -1.0
  outer loop
    vertex -38.42634559672906 -24.56681886241608 -1.4099832412739487e-15
    vertex -41.5 -22.94047326568702 -1.4099832412739487e-15
    vertex -38.79185842870421 -24.090473265687024 -1.4099832412739487e-15
  endloop
endfacet
facet normal 0.0 0.0 -1.0
  outer loop
    vertex -38.79185842870421 -24.090473265687024 -1.4099832412739487e-15
    vertex -41.5 -22.94047326568702 -1.4099832412739487e-15
    vertex -39.02162940046485 -23.535757069422818 -1.4099832412739487e-15
  endloop
endfacet
facet normal 0.0 0.0 -1.0
  outer loop
    vertex -39.02162940046485 -23.535757069422818 -1.4099832412739487e-15
    vertex -41.5 -22.94047326568702 -1.4099832412739487e-15
    vertex -39.099999999999994 -22.94047326568702 -1.4099832412739487e-15
  endloop
endfacet
facet normal 0.0 0.0 -1.0
  outer loop
    vertex 0.0 -33.840473265687024 0.0
    vertex -37.3952838037358 -25.162102666151878 -1.4099832412739487e-15
    vertex -36.8 -25.24047326568702 -1.4099832412739487e-15
  endloop
endfacet
facet normal 0.0 0.0 -1.0
  outer loop
    vertex 0.0 -33.840473265687024 0.0
    vertex -36.8 -25.24047326568702 -1.4099832412739487e-15
    vertex -36.2047161962642 -25.162102666151878 -1.4099832412739487e-15
  endloop
endfacet
facet normal 0.0 0.0 -1.0
  outer loop
    vertex 0.0 -33.840473265687024 0.0
    vertex -36.2047161962642 -25.162102666151878 -1.4099832412739487e-15
    vertex -35.650000000000006 -24.932331694391227 -1.4099832412739487e-15
  endloop
endfacet
facet normal 0.0 0.0 -1.0
  outer loop
    vertex 0.0 -33.840473265687024 0.0
    vertex -35.650000000000006 -24.932331694391227 -1.4099832412739487e-15
    vertex -35.173654403270945 -24.56681886241608 -1.4099832412739487e-15
  endloop
endfacet
facet normal 0.0 0.0 -1.0
  outer loop
    vertex 0.0 -33.840473265687024 0.0
    vertex -35.173654403270945 -24.56681886241608 -1.4099832412739487e-15
    vertex -34.80814157129579 -24.09047326568702 -1.4099832412739487e-15
  endloop
endfacet
facet normal 0.0 0.0 -1.0
  outer loop
    vertex 0.0 -33.840473265687024 0.0
    vertex -34.80814157129579 -24.09047326568702 -1.4099832412739487e-15
    vertex -34.57837059953515 -23.535757069422818 -1.4099832412739487e-15
  endloop
endfacet
facet normal 0.0 0.0 -1.0
  outer loop
    vertex 0.0 -33.840473265687024 0.0
    vertex -34.57837059953515 -23.535757069422818 -1.4099832412739487e-15
    vertex -34.50000000000001 -22.94047326568702 -1.4099832412739487e-15
  endloop
endfacet
facet normal 0.0 0.0 -1.0
  outer loop
    vertex 0.0 -33.840473265687024 0.0
    vertex -34.50000000000001 -22.94047326568702 -1.4099832412739487e-15
    vertex -7.791858428704208 -20.09047326568702 0.0
  endloop
endfacet
facet normal 0.0 0.0 -1.0
  outer loop
    vertex -7.791858428704208 -20.09047326568702 0.0
    vertex -34.50000000000001 -22.94047326568702 -1.4099832412739487e-15
    vertex -8.021629400464855 -19.535757069422818 0.0
  endloop
endfacet
facet normal 0.0 0.0 -1.0
  outer loop
    vertex -8.021629400464855 -19.535757069422818 0.0
    vertex -34.50000000000001 -22.94047326568702 -1.4099832412739487e-15
    vertex -8.1 -18.94047326568702 0.0
  endloop
endfacet
facet normal 0.0 0.0 -1.0
  outer loop
    vertex 0.0 -33.840473265687024 0.0
    vertex -7.791858428704208 -20.09047326568702 0.0
    vertex -7.426345596729058 -20.566818862416078 0.0
  endloop
endfacet
facet normal 0.0 0.0 -1.0
  outer loop
    vertex 0.0 -33.840473265687024 0.0
    vertex -7.426345596729058 -20.566818862416078 0.0
    vertex -6.949999999999998 -20.932331694391227 0.0
  endloop
endfacet
facet normal 0.0 0.0 -1.0
  outer loop
    vertex 0.0 -33.840473265687024 0.0
    vertex -6.949999999999998 -20.932331694391227 0.0
    vertex -6.395283803735798 -21.162102666151878 0.0
  endloop
endfacet
facet normal 0.0 0.0 -1.0
  outer loop
    vertex 0.0 -33.840473265687024 0.0
    vertex -6.395283803735798 -21.162102666151878 0.0
    vertex -5.8 -21.24047326568702 0.0
  endloop
endfacet
facet normal 0.0 0.0 -1.0
  outer loop
    vertex 0.0 -33.840473265687024 0.0
    vertex -5.8 -21.24047326568702 0.0
    vertex -5.204716196264201 -21.162102666151878 0.0
  endloop
endfacet
facet normal 0.0 0.0 -1.0
  outer loop
    vertex 0.0 -33.840473265687024 0.0
    vertex -5.204716196264201 -21.162102666151878 0.0
    vertex -4.65 -20.932331694391227 0.0
  endloop
endfacet
facet normal 0.0 0.0 -1.0
  outer loop
    vertex 0.0 -33.840473265687024 0.0
    vertex -4.65 -20.932331694391227 0.0
    vertex -4.173654403270941 -20.566818862416078 0.0
  endloop
endfacet
facet normal 0.0 0.0 -1.0
  outer loop
    vertex 0.0 -33.840473265687024 0.0
    vertex -4.173654403270941 -20.566818862416078 0.0
    vertex -3.808141571295791 -20.09047326568702 0.0
  endloop
endfacet
facet normal 0.0 0.0 -1.0
  outer loop
    vertex 0.0 -33.840473265687024 0.0
    vertex -3.808141571295791 -20.09047326568702 0.0
    vertex -3.578370599535144 -19.535757069422818 0.0
  endloop
endfacet
facet normal 0.0 0.0 -1.0
  outer loop
    vertex 0.0 -33.840473265687024 0.0
    vertex -3.578370599535144 -19.535757069422818 0.0
    vertex -3.5000000000000013 -18.94047326568702 0.0
  endloop
endfacet
facet normal 0.0 0.0 -1.0
  outer loop
    vertex 0.0 -33.840473265687024 0.0
    vertex -3.5000000000000013 -18.94047326568702 0.0
    vertex 0.0 -4.0404732656870195 0.0
  endloop
endfacet
facet normal 0.7071067811865454 0.7071067811865499 0.0
  outer loop
    vertex -45.42634559672906 -24.56681886241608 0.9999999999999986
    vertex -44.949999999999996 -24.932331694391227 -1.4099832412739487e-15
    vertex -45.42634559672906 -24.56681886241608 -1.4099832412739487e-15
  endloop
endfacet
facet normal 0.5000000000000003 0.8660254037844384 0.0
  outer loop
    vertex -44.949999999999996 -24.932331694391227 -1.4099832412739487e-15
    vertex -45.42634559672906 -24.56681886241608 0.9999999999999986
    vertex -44.949999999999996 -24.932331694391227 0.9999999999999986
  endloop
endfacet
facet normal -0.25881904510252124 -0.9659258262890682 0.0
  outer loop
    vertex -36.20471619626421 -20.718843865222166 0.9999999999999986
    vertex -36.8 -20.640473265687024 -1.4099832412739487e-15
    vertex -36.20471619626421 -20.718843865222166 -1.4099832412739487e-15
  endloop
endfacet
facet normal -5.970443630083425e-16 -1.0 0.0
  outer loop
    vertex -36.8 -20.640473265687024 -1.4099832412739487e-15
    vertex -36.20471619626421 -20.718843865222166 0.9999999999999986
    vertex -36.8 -20.640473265687024 0.9999999999999986
  endloop
endfacet
facet normal -0.86602540378444 0.4999999999999974 0.0
  outer loop
    vertex -34.80814157129579 -24.09047326568702 0.9999999999999986
    vertex -35.173654403270945 -24.56681886241608 -1.4099832412739487e-15
    vertex -35.173654403270945 -24.56681886241608 0.9999999999999986
  endloop
endfacet
facet normal -0.7071067811865462 0.7071067811865489 0.0
  outer loop
    vertex -35.173654403270945 -24.56681886241608 -1.4099832412739487e-15
    vertex -34.80814157129579 -24.09047326568702 0.9999999999999986
    vertex -34.80814157129579 -24.09047326568702 -1.4099832412739487e-15
  endloop
endfacet
facet normal 0.0 1.0 0.0
  outer loop
    vertex -43.8 -25.24047326568702 0.9999999999999986
    vertex -43.2047161962642 -25.162102666151878 -1.4099832412739487e-15
    vertex -43.8 -25.24047326568702 -1.4099832412739487e-15
  endloop
endfacet
facet normal -0.25881904510252246 0.9659258262890678 0.0
  outer loop
    vertex -43.2047161962642 -25.162102666151878 -1.4099832412739487e-15
    vertex -43.8 -25.24047326568702 0.9999999999999986
    vertex -43.2047161962642 -25.162102666151878 0.9999999999999986
  endloop
endfacet
facet normal -0.7071067811865476 -0.7071067811865476 0.0
  outer loop
    vertex -4.173654403270943 -17.314127668957962 0.9999999999999999
    vertex -4.650000000000001 -16.94861483698281 0.0
    vertex -4.173654403270943 -17.314127668957962 0.0
  endloop
endfacet
facet normal -0.49999999999999983 -0.8660254037844387 0.0
  outer loop
    vertex -4.650000000000001 -16.94861483698281 0.0
    vertex -4.173654403270943 -17.314127668957962 0.9999999999999999
    vertex -4.650000000000001 -16.94861483698281 0.9999999999999999
  endloop
endfacet
facet normal 1.0 -0.0 -0.0
  outer loop
    vertex 0.0 -4.0404732656870195 0.0
    vertex 0.0 -33.840473265687024 0.9999999999999999
    vertex 0.0 -33.840473265687024 0.0
  endloop
endfacet
facet normal 1.0 -0.0 -0.0
  outer loop
    vertex 0.0 -33.840473265687024 0.9999999999999999
    vertex 0.0 -4.0404732656870195 0.0
    vertex 0.0 -4.0404732656870195 0.9999999999999999
  endloop
endfacet
facet normal -0.0 1.0 0.0
  outer loop
    vertex -50.8 -4.0404732656870195 0.9999999999999999
    vertex 0.0 -4.0404732656870195 0.0
    vertex -50.8 -4.0404732656870195 0.0
  endloop
endfacet
facet normal -0.0 1.0 0.0
  outer loop
    vertex 0.0 -4.0404732656870195 0.0
    vertex -50.8 -4.0404732656870195 0.9999999999999999
    vertex 0.0 -4.0404732656870195 0.9999999999999999
  endloop
endfacet
facet normal 0.0 -1.0 0.0
  outer loop
    vertex 0.0 -33.840473265687024 0.9999999999999999
    vertex -50.8 -33.840473265687024 0.0
    vertex 0.0 -33.840473265687024 0.0
  endloop
endfacet
facet normal 0.0 -1.0 0.0
  outer loop
    vertex -50.8 -33.840473265687024 0.0
    vertex 0.0 -33.840473265687024 0.9999999999999999
    vertex -50.8 -33.840473265687024 0.9999999999999999
  endloop
endfacet
facet normal -0.0 -0.0 1.0
  outer loop
    vertex -50.8 -33.840473265687024 0.9999999999999999
    vertex -46.02162940046485 -23.535757069422818 0.9999999999999986
    vertex -50.8 -4.0404732656870195 0.9999999999999999
  endloop
endfacet
facet normal -0.0 -0.0 1.0
  outer loop
    vertex -46.02162940046485 -23.535757069422818 0.9999999999999986
    vertex -50.8 -33.840473265687024 0.9999999999999999
    vertex -45.79185842870421 -24.090473265687024 0.9999999999999986
  endloop
endfacet
facet normal -0.0 -0.0 1.0
  outer loop
    vertex -45.79185842870421 -24.090473265687024 0.9999999999999986
    vertex -50.8 -33.840473265687024 0.9999999999999999
    vertex -45.42634559672906 -24.56681886241608 0.9999999999999986
  endloop
endfacet
facet normal -0.0 -0.0 1.0
  outer loop
    vertex -45.42634559672906 -24.56681886241608 0.9999999999999986
    vertex -50.8 -33.840473265687024 0.9999999999999999
    vertex -44.949999999999996 -24.932331694391227 0.9999999999999986
  endloop
endfacet
facet normal -0.0 -0.0 1.0
  outer loop
    vertex -44.949999999999996 -24.932331694391227 0.9999999999999986
    vertex -50.8 -33.840473265687024 0.9999999999999999
    vertex -44.3952838037358 -25.162102666151878 0.9999999999999986
  endloop
endfacet
facet normal -0.0 -0.0 1.0
  outer loop
    vertex -44.3952838037358 -25.162102666151878 0.9999999999999986
    vertex -50.8 -33.840473265687024 0.9999999999999999
    vertex 0.0 -33.840473265687024 0.9999999999999999
  endloop
endfacet
facet normal -0.0 -0.0 1.0
  outer loop
    vertex -50.8 -4.0404732656870195 0.9999999999999999
    vertex -46.02162940046485 -23.535757069422818 0.9999999999999986
    vertex -46.099999999999994 -22.94047326568702 0.9999999999999986
  endloop
endfacet
facet normal -0.0 -0.0 1.0
  outer loop
    vertex -44.3952838037358 -25.162102666151878 0.9999999999999986
    vertex 0.0 -33.840473265687024 0.9999999999999999
    vertex -43.8 -25.24047326568702 0.9999999999999986
  endloop
endfacet
facet normal -0.0 -0.0 1.0
  outer loop
    vertex -43.8 -25.24047326568702 0.9999999999999986
    vertex 0.0 -33.840473265687024 0.9999999999999999
    vertex -43.2047161962642 -25.162102666151878 0.9999999999999986
  endloop
endfacet
facet normal -0.0 -0.0 1.0
  outer loop
    vertex -43.2047161962642 -25.162102666151878 0.9999999999999986
    vertex 0.0 -33.840473265687024 0.9999999999999999
    vertex -42.65 -24.932331694391227 0.9999999999999986
  endloop
endfacet
facet normal -0.0 -0.0 1.0
  outer loop
    vertex -42.65 -24.932331694391227 0.9999999999999986
    vertex 0.0 -33.840473265687024 0.9999999999999999
    vertex -42.17365440327094 -24.56681886241608 0.9999999999999986
  endloop
endfacet
facet normal -0.0 -0.0 1.0
  outer loop
    vertex -42.17365440327094 -24.56681886241608 0.9999999999999986
    vertex 0.0 -33.840473265687024 0.9999999999999999
    vertex -37.3952838037358 -25.162102666151878 0.9999999999999986
  endloop
endfacet
facet normal -0.0 -0.0 1.0
  outer loop
    vertex -42.17365440327094 -24.56681886241608 0.9999999999999986
    vertex -37.3952838037358 -25.162102666151878 0.9999999999999986
    vertex -41.80814157129579 -24.09047326568702 0.9999999999999986
  endloop
endfacet
facet normal -0.0 -0.0 1.0
  outer loop
    vertex -41.80814157129579 -24.09047326568702 0.9999999999999986
    vertex -37.3952838037358 -25.162102666151878 0.9999999999999986
    vertex -41.57837059953515 -23.535757069422818 0.9999999999999986
  endloop
endfacet
facet normal -0.0 -0.0 1.0
  outer loop
    vertex -41.57837059953515 -23.535757069422818 0.9999999999999986
    vertex -37.3952838037358 -25.162102666151878 0.9999999999999986
    vertex -37.949999999999996 -24.932331694391227 0.9999999999999986
  endloop
endfacet
facet normal -0.0 -0.0 1.0
  outer loop
    vertex -41.57837059953515 -23.535757069422818 0.9999999999999986
    vertex -37.949999999999996 -24.932331694391227 0.9999999999999986
    vertex -41.5 -22.94047326568702 0.9999999999999986
  endloop
endfacet
facet normal -0.0 -0.0 1.0
  outer loop
    vertex -41.5 -22.94047326568702 0.9999999999999986
    vertex -37.949999999999996 -24.932331694391227 0.9999999999999986
    vertex -38.42634559672906 -24.56681886241608 0.9999999999999986
  endloop
endfacet
facet normal -0.0 -0.0 1.0
  outer loop
    vertex -41.5 -22.94047326568702 0.9999999999999986
    vertex -38.42634559672906 -24.56681886241608 0.9999999999999986
    vertex -38.79185842870421 -24.090473265687024 0.9999999999999986
  endloop
endfacet
facet normal -0.0 -0.0 1.0
  outer loop
    vertex -41.5 -22.94047326568702 0.9999999999999986
    vertex -38.79185842870421 -24.090473265687024 0.9999999999999986
    vertex -39.02162940046485 -23.535757069422818 0.9999999999999986
  endloop
endfacet
facet normal -0.0 -0.0 1.0
  outer loop
    vertex -41.5 -22.94047326568702 0.9999999999999986
    vertex -39.02162940046485 -23.535757069422818 0.9999999999999986
    vertex -39.099999999999994 -22.94047326568702 0.9999999999999986
  endloop
endfacet
facet normal -0.0 -0.0 1.0
  outer loop
    vertex -37.3952838037358 -25.162102666151878 0.9999999999999986
    vertex 0.0 -33.840473265687024 0.9999999999999999
    vertex -36.8 -25.24047326568702 0.9999999999999986
  endloop
endfacet
facet normal -0.0 -0.0 1.0
  outer loop
    vertex -36.8 -25.24047326568702 0.9999999999999986
    vertex 0.0 -33.840473265687024 0.9999999999999999
    vertex -36.2047161962642 -25.162102666151878 0.9999999999999986
  endloop
endfacet
facet normal -0.0 -0.0 1.0
  outer loop
    vertex -36.2047161962642 -25.162102666151878 0.9999999999999986
    vertex 0.0 -33.840473265687024 0.9999999999999999
    vertex -35.650000000000006 -24.932331694391227 0.9999999999999986
  endloop
endfacet
facet normal -0.0 -0.0 1.0
  outer loop
    vertex -35.650000000000006 -24.932331694391227 0.9999999999999986
    vertex 0.0 -33.840473265687024 0.9999999999999999
    vertex -35.173654403270945 -24.56681886241608 0.9999999999999986
  endloop
endfacet
facet normal -0.0 -0.0 1.0
  outer loop
    vertex -35.173654403270945 -24.56681886241608 0.9999999999999986
    vertex 0.0 -33.840473265687024 0.9999999999999999
    vertex -34.80814157129579 -24.09047326568702 0.9999999999999986
  endloop
endfacet
facet normal -0.0 -0.0 1.0
  outer loop
    vertex -34.80814157129579 -24.09047326568702 0.9999999999999986
    vertex 0.0 -33.840473265687024 0.9999999999999999
    vertex -34.57837059953515 -23.535757069422818 0.9999999999999986
  endloop
endfacet
facet normal -0.0 -0.0 1.0
  outer loop
    vertex -34.57837059953515 -23.535757069422818 0.9999999999999986
    vertex 0.0 -33.840473265687024 0.9999999999999999
    vertex -34.50000000000001 -22.94047326568702 0.9999999999999986
  endloop
endfacet
facet normal -0.0 -0.0 1.0
  outer loop
    vertex -34.50000000000001 -22.94047326568702 0.9999999999999986
    vertex 0.0 -33.840473265687024 0.9999999999999999
    vertex -7.791858428704208 -20.09047326568702 0.9999999999999999
  endloop
endfacet
facet normal -0.0 -0.0 1.0
  outer loop
    vertex -34.50000000000001 -22.94047326568702 0.9999999999999986
    vertex -7.791858428704208 -20.09047326568702 0.9999999999999999
    vertex -8.021629400464855 -19.535757069422818 0.9999999999999999
  endloop
endfacet
facet normal -0.0 -0.0 1.0
  outer loop
    vertex -34.50000000000001 -22.94047326568702 0.9999999999999986
    vertex -8.021629400464855 -19.535757069422818 0.9999999999999999
    vertex -8.1 -18.94047326568702 0.9999999999999999
  endloop
endfacet
facet normal -0.0 -0.0 1.0
  outer loop
    vertex -7.791858428704208 -20.09047326568702 0.9999999999999999
    vertex 0.0 -33.840473265687024 0.9999999999999999
    vertex -7.426345596729058 -20.566818862416078 0.9999999999999999
  endloop
endfacet
facet normal -0.0 -0.0 1.0
  outer loop
    vertex -7.426345596729058 -20.566818862416078 0.9999999999999999
    vertex 0.0 -33.840473265687024 0.9999999999999999
    vertex -6.949999999999998 -20.932331694391227 0.9999999999999999
  endloop
endfacet
facet normal -0.0 -0.0 1.0
  outer loop
    vertex -6.949999999999998 -20.932331694391227 0.9999999999999999
    vertex 0.0 -33.840473265687024 0.9999999999999999
    vertex -6.395283803735798 -21.162102666151878 0.9999999999999999
  endloop
endfacet
facet normal -0.0 -0.0 1.0
  outer loop
    vertex -6.395283803735798 -21.162102666151878 0.9999999999999999
    vertex 0.0 -33.840473265687024 0.9999999999999999
    vertex -5.8 -21.24047326568702 0.9999999999999999
  endloop
endfacet
facet normal -0.0 -0.0 1.0
  outer loop
    vertex -5.8 -21.24047326568702 0.9999999999999999
    vertex 0.0 -33.840473265687024 0.9999999999999999
    vertex -5.204716196264201 -21.162102666151878 0.9999999999999999
  endloop
endfacet
facet normal -0.0 -0.0 1.0
  outer loop
    vertex -5.204716196264201 -21.162102666151878 0.9999999999999999
    vertex 0.0 -33.840473265687024 0.9999999999999999
    vertex -4.65 -20.932331694391227 0.9999999999999999
  endloop
endfacet
facet normal -0.0 -0.0 1.0
  outer loop
    vertex -4.65 -20.932331694391227 0.9999999999999999
    vertex 0.0 -33.840473265687024 0.9999999999999999
    vertex -4.173654403270941 -20.566818862416078 0.9999999999999999
  endloop
endfacet
facet normal -0.0 -0.0 1.0
  outer loop
    vertex -4.173654403270941 -20.566818862416078 0.9999999999999999
    vertex 0.0 -33.840473265687024 0.9999999999999999
    vertex -3.808141571295791 -20.09047326568702 0.9999999999999999
  endloop
endfacet
facet normal -0.0 -0.0 1.0
  outer loop
    vertex -3.808141571295791 -20.09047326568702 0.9999999999999999
    vertex 0.0 -33.840473265687024 0.9999999999999999
    vertex -3.578370599535144 -19.535757069422818 0.9999999999999999
  endloop
endfacet
facet normal -0.0 -0.0 1.0
  outer loop
    vertex -3.578370599535144 -19.535757069422818 0.9999999999999999
    vertex 0.0 -33.840473265687024 0.9999999999999999
    vertex -3.5000000000000013 -18.94047326568702 0.9999999999999999
  endloop
endfacet
facet normal -0.0 -0.0 1.0
  outer loop
    vertex -50.8 -4.0404732656870195 0.9999999999999999
    vertex -44.3952838037358 -20.718843865222166 0.9999999999999986
    vertex 0.0 -4.0404732656870195 0.9999999999999999
  endloop
endfacet
facet normal -0.0 -0.0 1.0
  outer loop
    vertex -44.3952838037358 -20.718843865222166 0.9999999999999986
    vertex -50.8 -4.0404732656870195 0.9999999999999999
    vertex -44.949999999999996 -20.948614836982816 0.9999999999999986
  endloop
endfacet
facet normal -0.0 -0.0 1.0
  outer loop
    vertex -44.949999999999996 -20.948614836982816 0.9999999999999986
    vertex -50.8 -4.0404732656870195 0.9999999999999999
    vertex -45.42634559672906 -21.314127668957962 0.9999999999999986
  endloop
endfacet
facet normal -0.0 -0.0 1.0
  outer loop
    vertex -45.42634559672906 -21.314127668957962 0.9999999999999986
    vertex -50.8 -4.0404732656870195 0.9999999999999999
    vertex -45.79185842870421 -21.790473265687023 0.9999999999999986
  endloop
endfacet
facet normal -0.0 -0.0 1.0
  outer loop
    vertex -45.79185842870421 -21.790473265687023 0.9999999999999986
    vertex -50.8 -4.0404732656870195 0.9999999999999999
    vertex -46.02162940046485 -22.345189461951225 0.9999999999999986
  endloop
endfacet
facet normal -0.0 -0.0 1.0
  outer loop
    vertex -46.02162940046485 -22.345189461951225 0.9999999999999986
    vertex -50.8 -4.0404732656870195 0.9999999999999999
    vertex -46.099999999999994 -22.94047326568702 0.9999999999999986
  endloop
endfacet
facet normal -0.0 -0.0 1.0
  outer loop
    vertex 0.0 -4.0404732656870195 0.9999999999999999
    vertex -44.3952838037358 -20.718843865222166 0.9999999999999986
    vertex -43.8 -20.640473265687024 0.9999999999999986
  endloop
endfacet
facet normal -0.0 -0.0 1.0
  outer loop
    vertex 0.0 -4.0404732656870195 0.9999999999999999
    vertex -43.8 -20.640473265687024 0.9999999999999986
    vertex -43.2047161962642 -20.718843865222166 0.9999999999999986
  endloop
endfacet
facet normal -0.0 -0.0 1.0
  outer loop
    vertex 0.0 -4.0404732656870195 0.9999999999999999
    vertex -43.2047161962642 -20.718843865222166 0.9999999999999986
    vertex -42.65 -20.948614836982816 0.9999999999999986
  endloop
endfacet
facet normal -0.0 -0.0 1.0
  outer loop
    vertex 0.0 -4.0404732656870195 0.9999999999999999
    vertex -42.65 -20.948614836982816 0.9999999999999986
    vertex -42.17365440327094 -21.314127668957962 0.9999999999999986
  endloop
endfacet
facet normal -0.0 -0.0 1.0
  outer loop
    vertex 0.0 -4.0404732656870195 0.9999999999999999
    vertex -42.17365440327094 -21.314127668957962 0.9999999999999986
    vertex -41.80814157129579 -21.79047326568702 0.9999999999999986
  endloop
endfacet
facet normal -0.0 -0.0 1.0
  outer loop
    vertex 0.0 -4.0404732656870195 0.9999999999999999
    vertex -41.80814157129579 -21.79047326568702 0.9999999999999986
    vertex -41.57837059953515 -22.34518946195122 0.9999999999999986
  endloop
endfacet
facet normal -0.0 -0.0 1.0
  outer loop
    vertex 0.0 -4.0404732656870195 0.9999999999999999
    vertex -41.57837059953515 -22.34518946195122 0.9999999999999986
    vertex -37.949999999999996 -20.948614836982816 0.9999999999999986
  endloop
endfacet
facet normal -0.0 -0.0 1.0
  outer loop
    vertex -37.949999999999996 -20.948614836982816 0.9999999999999986
    vertex -41.57837059953515 -22.34518946195122 0.9999999999999986
    vertex -41.5 -22.94047326568702 0.9999999999999986
  endloop
endfacet
facet normal -0.0 -0.0 1.0
  outer loop
    vertex -37.949999999999996 -20.948614836982816 0.9999999999999986
    vertex -41.5 -22.94047326568702 0.9999999999999986
    vertex -38.42634559672906 -21.314127668957962 0.9999999999999986
  endloop
endfacet
facet normal -0.0 -0.0 1.0
  outer loop
    vertex -38.42634559672906 -21.314127668957962 0.9999999999999986
    vertex -41.5 -22.94047326568702 0.9999999999999986
    vertex -38.79185842870421 -21.790473265687023 0.9999999999999986
  endloop
endfacet
facet normal -0.0 -0.0 1.0
  outer loop
    vertex -38.79185842870421 -21.790473265687023 0.9999999999999986
    vertex -41.5 -22.94047326568702 0.9999999999999986
    vertex -39.02162940046485 -22.345189461951225 0.9999999999999986
  endloop
endfacet
facet normal -0.0 -0.0 1.0
  outer loop
    vertex -39.02162940046485 -22.345189461951225 0.9999999999999986
    vertex -41.5 -22.94047326568702 0.9999999999999986
    vertex -39.099999999999994 -22.94047326568702 0.9999999999999986
  endloop
endfacet
facet normal -0.0 -0.0 1.0
  outer loop
    vertex 0.0 -4.0404732656870195 0.9999999999999999
    vertex -37.949999999999996 -20.948614836982816 0.9999999999999986
    vertex -37.3952838037358 -20.718843865222166 0.9999999999999986
  endloop
endfacet
facet normal -0.0 -0.0 1.0
  outer loop
    vertex 0.0 -4.0404732656870195 0.9999999999999999
    vertex -37.3952838037358 -20.718843865222166 0.9999999999999986
    vertex -36.8 -20.640473265687024 0.9999999999999986
  endloop
endfacet
facet normal -0.0 -0.0 1.0
  outer loop
    vertex 0.0 -4.0404732656870195 0.9999999999999999
    vertex -36.8 -20.640473265687024 0.9999999999999986
    vertex -36.20471619626421 -20.718843865222166 0.9999999999999986
  endloop
endfacet
facet normal -0.0 -0.0 1.0
  outer loop
    vertex 0.0 -4.0404732656870195 0.9999999999999999
    vertex -36.20471619626421 -20.718843865222166 0.9999999999999986
    vertex -35.650000000000006 -20.948614836982816 0.9999999999999986
  endloop
endfacet
facet normal -0.0 -0.0 1.0
  outer loop
    vertex 0.0 -4.0404732656870195 0.9999999999999999
    vertex -35.650000000000006 -20.948614836982816 0.9999999999999986
    vertex -35.173654403270945 -21.314127668957962 0.9999999999999986
  endloop
endfacet
facet normal -0.0 -0.0 1.0
  outer loop
    vertex 0.0 -4.0404732656870195 0.9999999999999999
    vertex -35.173654403270945 -21.314127668957962 0.9999999999999986
    vertex -34.80814157129579 -21.79047326568702 0.9999999999999986
  endloop
endfacet
facet normal -0.0 -0.0 1.0
  outer loop
    vertex 0.0 -4.0404732656870195 0.9999999999999999
    vertex -34.80814157129579 -21.79047326568702 0.9999999999999986
    vertex -34.57837059953515 -22.34518946195122 0.9999999999999986
  endloop
endfacet
facet normal -0.0 -0.0 1.0
  outer loop
    vertex 0.0 -4.0404732656870195 0.9999999999999999
    vertex -34.57837059953515 -22.34518946195122 0.9999999999999986
    vertex -34.50000000000001 -22.94047326568702 0.9999999999999986
  endloop
endfacet
facet normal -0.0 -0.0 1.0
  outer loop
    vertex 0.0 -4.0404732656870195 0.9999999999999999
    vertex -34.50000000000001 -22.94047326568702 0.9999999999999986
    vertex -7.791858428704208 -17.790473265687023 0.9999999999999999
  endloop
endfacet
facet normal -0.0 -0.0 1.0
  outer loop
    vertex -7.791858428704208 -17.790473265687023 0.9999999999999999
    vertex -34.50000000000001 -22.94047326568702 0.9999999999999986
    vertex -8.021629400464855 -18.34518946195122 0.9999999999999999
  endloop
endfacet
facet normal -0.0 -0.0 1.0
  outer loop
    vertex -8.021629400464855 -18.34518946195122 0.9999999999999999
    vertex -34.50000000000001 -22.94047326568702 0.9999999999999986
    vertex -8.1 -18.94047326568702 0.9999999999999999
  endloop
endfacet
facet normal -0.0 -0.0 1.0
  outer loop
    vertex 0.0 -4.0404732656870195 0.9999999999999999
    vertex -7.791858428704208 -17.790473265687023 0.9999999999999999
    vertex -7.426345596729058 -17.314127668957962 0.9999999999999999
  endloop
endfacet
facet normal -0.0 -0.0 1.0
  outer loop
    vertex 0.0 -4.0404732656870195 0.9999999999999999
    vertex -7.426345596729058 -17.314127668957962 0.9999999999999999
    vertex -6.95 -16.948614836982813 0.9999999999999999
  endloop
endfacet
facet normal -0.0 -0.0 1.0
  outer loop
    vertex 0.0 -4.0404732656870195 0.9999999999999999
    vertex -6.95 -16.948614836982813 0.9999999999999999
    vertex -6.395283803735798 -16.718843865222166 0.9999999999999999
  endloop
endfacet
facet normal -0.0 -0.0 1.0
  outer loop
    vertex 0.0 -4.0404732656870195 0.9999999999999999
    vertex -6.395283803735798 -16.718843865222166 0.9999999999999999
    vertex -5.8 -16.64047326568702 0.9999999999999999
  endloop
endfacet
facet normal -0.0 -0.0 1.0
  outer loop
    vertex 0.0 -4.0404732656870195 0.9999999999999999
    vertex -5.8 -16.64047326568702 0.9999999999999999
    vertex -5.2047161962642035 -16.718843865222166 0.9999999999999999
  endloop
endfacet
facet normal -0.0 -0.0 1.0
  outer loop
    vertex 0.0 -4.0404732656870195 0.9999999999999999
    vertex -5.2047161962642035 -16.718843865222166 0.9999999999999999
    vertex -4.650000000000001 -16.94861483698281 0.9999999999999999
  endloop
endfacet
facet normal -0.0 -0.0 1.0
  outer loop
    vertex 0.0 -4.0404732656870195 0.9999999999999999
    vertex -4.650000000000001 -16.94861483698281 0.9999999999999999
    vertex -4.173654403270943 -17.314127668957962 0.9999999999999999
  endloop
endfacet
facet normal -0.0 -0.0 1.0
  outer loop
    vertex 0.0 -4.0404732656870195 0.9999999999999999
    vertex -4.173654403270943 -17.314127668957962 0.9999999999999999
    vertex -3.8081415712957924 -17.79047326568702 0.9999999999999999
  endloop
endfacet
facet normal -0.0 -0.0 1.0
  outer loop
    vertex 0.0 -4.0404732656870195 0.9999999999999999
    vertex -3.8081415712957924 -17.79047326568702 0.9999999999999999
    vertex -3.5783705995351447 -18.34518946195122 0.9999999999999999
  endloop
endfacet
facet normal -0.0 -0.0 1.0
  outer loop
    vertex 0.0 -4.0404732656870195 0.9999999999999999
    vertex -3.5783705995351447 -18.34518946195122 0.9999999999999999
    vertex -3.5000000000000013 -18.94047326568702 0.9999999999999999
  endloop
endfacet
facet normal -0.0 -0.0 1.0
  outer loop
    vertex 0.0 -4.0404732656870195 0.9999999999999999
    vertex -3.5000000000000013 -18.94047326568702 0.9999999999999999
    vertex 0.0 -33.840473265687024 0.9999999999999999
  endloop
endfacet
facet normal -0.7071067811865476 -0.7071067811865476 0.0
  outer loop
    vertex -4.173654403270943 -17.314127668957962 0.9999999999999999
    vertex -3.8081415712957924 -17.79047326568702 0.0
    vertex -3.8081415712957924 -17.79047326568702 0.9999999999999999
  endloop
endfacet
facet normal -0.8660254037844379 -0.5000000000000011 0.0
  outer loop
    vertex -3.8081415712957924 -17.79047326568702 0.0
    vertex -4.173654403270943 -17.314127668957962 0.9999999999999999
    vertex -4.173654403270943 -17.314127668957962 0.0
  endloop
endfacet
facet normal 0.9659258262890679 -0.25881904510252196 0.0
  outer loop
    vertex -8.021629400464855 -18.34518946195122 0.0
    vertex -8.1 -18.94047326568702 0.9999999999999999
    vertex -8.1 -18.94047326568702 0.0
  endloop
endfacet
facet normal 1.0 0.0 0.0
  outer loop
    vertex -8.1 -18.94047326568702 0.9999999999999999
    vertex -8.021629400464855 -18.34518946195122 0.0
    vertex -8.021629400464855 -18.34518946195122 0.9999999999999999
  endloop
endfacet
facet normal -0.49999999999999983 -0.8660254037844387 0.0
  outer loop
    vertex -4.650000000000001 -16.94861483698281 0.9999999999999999
    vertex -5.2047161962642035 -16.718843865222166 0.0
    vertex -4.650000000000001 -16.94861483698281 0.0
  endloop
endfacet
facet normal -0.2588190451025194 -0.9659258262890688 0.0
  outer loop
    vertex -5.2047161962642035 -16.718843865222166 0.0
    vertex -4.650000000000001 -16.94861483698281 0.9999999999999999
    vertex -5.2047161962642035 -16.718843865222166 0.9999999999999999
  endloop
endfacet
facet normal -0.2588190451025194 -0.9659258262890688 0.0
  outer loop
    vertex -5.2047161962642035 -16.718843865222166 0.9999999999999999
    vertex -5.8 -16.64047326568702 0.0
    vertex -5.2047161962642035 -16.718843865222166 0.0
  endloop
endfacet
facet normal -1.5148886822599737e-16 -1.0 0.0
  outer loop
    vertex -5.8 -16.64047326568702 0.0
    vertex -5.2047161962642035 -16.718843865222166 0.9999999999999999
    vertex -5.8 -16.64047326568702 0.9999999999999999
  endloop
endfacet
facet normal -0.9659258262890681 -0.2588190451025211 0.0
  outer loop
    vertex -3.5783705995351447 -18.34518946195122 0.9999999999999999
    vertex -3.5000000000000013 -18.94047326568702 0.0
    vertex -3.5000000000000013 -18.94047326568702 0.9999999999999999
  endloop
endfacet
facet normal -1.0 -2.673332968694071e-16 0.0
  outer loop
    vertex -3.5000000000000013 -18.94047326568702 0.0
    vertex -3.5783705995351447 -18.34518946195122 0.9999999999999999
    vertex -3.5783705995351447 -18.34518946195122 0.0
  endloop
endfacet
facet normal -0.8660254037844379 -0.5000000000000011 0.0
  outer loop
    vertex -3.8081415712957924 -17.79047326568702 0.9999999999999999
    vertex -3.5783705995351447 -18.34518946195122 0.0
    vertex -3.5783705995351447 -18.34518946195122 0.9999999999999999
  endloop
endfacet
facet normal -0.9659258262890681 -0.2588190451025211 0.0
  outer loop
    vertex -3.5783705995351447 -18.34518946195122 0.0
    vertex -3.8081415712957924 -17.79047326568702 0.9999999999999999
    vertex -3.8081415712957924 -17.79047326568702 0.0
  endloop
endfacet
facet normal -0.9659258262890685 0.2588190451025203 0.0
  outer loop
    vertex -3.578370599535144 -19.535757069422818 0.9999999999999999
    vertex -3.808141571295791 -20.09047326568702 0.0
    vertex -3.808141571295791 -20.09047326568702 0.9999999999999999
  endloop
endfacet
facet normal -0.8660254037844392 0.4999999999999994 0.0
  outer loop
    vertex -3.808141571295791 -20.09047326568702 0.0
    vertex -3.578370599535144 -19.535757069422818 0.9999999999999999
    vertex -3.578370599535144 -19.535757069422818 0.0
  endloop
endfacet
facet normal 0.5000000000000004 -0.8660254037844385 0.0
  outer loop
    vertex -6.95 -16.948614836982813 0.9999999999999999
    vertex -7.426345596729058 -17.314127668957962 0.0
    vertex -6.95 -16.948614836982813 0.0
  endloop
endfacet
facet normal 0.7071067811865479 -0.7071067811865472 0.0
  outer loop
    vertex -7.426345596729058 -17.314127668957962 0.0
    vertex -6.95 -16.948614836982813 0.9999999999999999
    vertex -7.426345596729058 -17.314127668957962 0.9999999999999999
  endloop
endfacet
facet normal 0.7071067811865479 -0.7071067811865472 0.0
  outer loop
    vertex -7.426345596729058 -17.314127668957962 0.0
    vertex -7.791858428704208 -17.790473265687023 0.9999999999999999
    vertex -7.791858428704208 -17.790473265687023 0.0
  endloop
endfacet
facet normal 0.8660254037844389 -0.49999999999999944 0.0
  outer loop
    vertex -7.791858428704208 -17.790473265687023 0.9999999999999999
    vertex -7.426345596729058 -17.314127668957962 0.0
    vertex -7.426345596729058 -17.314127668957962 0.9999999999999999
  endloop
endfacet
facet normal 0.8660254037844389 -0.49999999999999944 0.0
  outer loop
    vertex -7.791858428704208 -17.790473265687023 0.0
    vertex -8.021629400464855 -18.34518946195122 0.9999999999999999
    vertex -8.021629400464855 -18.34518946195122 0.0
  endloop
endfacet
facet normal 0.9659258262890679 -0.25881904510252196 0.0
  outer loop
    vertex -8.021629400464855 -18.34518946195122 0.9999999999999999
    vertex -7.791858428704208 -17.790473265687023 0.0
    vertex -7.791858428704208 -17.790473265687023 0.9999999999999999
  endloop
endfacet
facet normal -0.8660254037844392 0.4999999999999994 0.0
  outer loop
    vertex -3.808141571295791 -20.09047326568702 0.9999999999999999
    vertex -4.173654403270941 -20.566818862416078 0.0
    vertex -4.173654403270941 -20.566818862416078 0.9999999999999999
  endloop
endfacet
facet normal -0.7071067811865472 0.7071067811865477 0.0
  outer loop
    vertex -4.173654403270941 -20.566818862416078 0.0
    vertex -3.808141571295791 -20.09047326568702 0.9999999999999999
    vertex -3.808141571295791 -20.09047326568702 0.0
  endloop
endfacet
facet normal 0.2588190451025213 -0.9659258262890681 0.0
  outer loop
    vertex -6.395283803735798 -16.718843865222166 0.9999999999999999
    vertex -6.95 -16.948614836982813 0.0
    vertex -6.395283803735798 -16.718843865222166 0.0
  endloop
endfacet
facet normal 0.5000000000000004 -0.8660254037844385 0.0
  outer loop
    vertex -6.95 -16.948614836982813 0.0
    vertex -6.395283803735798 -16.718843865222166 0.9999999999999999
    vertex -6.95 -16.948614836982813 0.9999999999999999
  endloop
endfacet
facet normal 1.0 0.0 0.0
  outer loop
    vertex -8.1 -18.94047326568702 0.0
    vertex -8.021629400464855 -19.535757069422818 0.9999999999999999
    vertex -8.021629400464855 -19.535757069422818 0.0
  endloop
endfacet
facet normal 0.9659258262890682 0.2588190451025211 0.0
  outer loop
    vertex -8.021629400464855 -19.535757069422818 0.9999999999999999
    vertex -8.1 -18.94047326568702 0.0
    vertex -8.1 -18.94047326568702 0.9999999999999999
  endloop
endfacet
facet normal 1.0 0.0 0.0
  outer loop
    vertex -39.099999999999994 -22.94047326568702 -1.4099832412739487e-15
    vertex -39.02162940046485 -23.535757069422818 0.9999999999999986
    vertex -39.02162940046485 -23.535757069422818 -1.4099832412739487e-15
  endloop
endfacet
facet normal 0.9659258262890693 0.2588190451025168 0.0
  outer loop
    vertex -39.02162940046485 -23.535757069422818 0.9999999999999986
    vertex -39.099999999999994 -22.94047326568702 -1.4099832412739487e-15
    vertex -39.099999999999994 -22.94047326568702 0.9999999999999986
  endloop
endfacet
facet normal -0.9659258262890691 0.25881904510251763 0.0
  outer loop
    vertex -34.57837059953515 -23.535757069422818 0.9999999999999986
    vertex -34.80814157129579 -24.09047326568702 -1.4099832412739487e-15
    vertex -34.80814157129579 -24.09047326568702 0.9999999999999986
  endloop
endfacet
facet normal -0.86602540378444 0.4999999999999974 0.0
  outer loop
    vertex -34.80814157129579 -24.09047326568702 -1.4099832412739487e-15
    vertex -34.57837059953515 -23.535757069422818 0.9999999999999986
    vertex -34.57837059953515 -23.535757069422818 -1.4099832412739487e-15
  endloop
endfacet
facet normal -0.25881904510252246 0.9659258262890678 0.0
  outer loop
    vertex -36.2047161962642 -25.162102666151878 0.9999999999999986
    vertex -35.650000000000006 -24.932331694391227 -1.4099832412739487e-15
    vertex -36.2047161962642 -25.162102666151878 -1.4099832412739487e-15
  endloop
endfacet
facet normal -0.5000000000000003 0.8660254037844384 0.0
  outer loop
    vertex -35.650000000000006 -24.932331694391227 -1.4099832412739487e-15
    vertex -36.2047161962642 -25.162102666151878 0.9999999999999986
    vertex -35.650000000000006 -24.932331694391227 0.9999999999999986
  endloop
endfacet
facet normal 0.25881904510252246 0.9659258262890678 0.0
  outer loop
    vertex -37.3952838037358 -25.162102666151878 0.9999999999999986
    vertex -36.8 -25.24047326568702 -1.4099832412739487e-15
    vertex -37.3952838037358 -25.162102666151878 -1.4099832412739487e-15
  endloop
endfacet
facet normal 0.0 1.0 0.0
  outer loop
    vertex -36.8 -25.24047326568702 -1.4099832412739487e-15
    vertex -37.3952838037358 -25.162102666151878 0.9999999999999986
    vertex -36.8 -25.24047326568702 0.9999999999999986
  endloop
endfacet
facet normal 0.25881904510252246 -0.9659258262890678 0.0
  outer loop
    vertex -37.3952838037358 -20.718843865222166 0.9999999999999986
    vertex -37.949999999999996 -20.948614836982816 -1.4099832412739487e-15
    vertex -37.3952838037358 -20.718843865222166 -1.4099832412739487e-15
  endloop
endfacet
facet normal 0.5000000000000003 -0.8660254037844384 0.0
  outer loop
    vertex -37.949999999999996 -20.948614836982816 -1.4099832412739487e-15
    vertex -37.3952838037358 -20.718843865222166 0.9999999999999986
    vertex -37.949999999999996 -20.948614836982816 0.9999999999999986
  endloop
endfacet
facet normal -0.7071067811865454 -0.7071067811865499 0.0
  outer loop
    vertex -35.173654403270945 -21.314127668957962 0.9999999999999986
    vertex -35.650000000000006 -20.948614836982816 -1.4099832412739487e-15
    vertex -35.173654403270945 -21.314127668957962 -1.4099832412739487e-15
  endloop
endfacet
facet normal -0.4999999999999988 -0.8660254037844395 0.0
  outer loop
    vertex -35.650000000000006 -20.948614836982816 -1.4099832412739487e-15
    vertex -35.173654403270945 -21.314127668957962 0.9999999999999986
    vertex -35.650000000000006 -20.948614836982816 0.9999999999999986
  endloop
endfacet
facet normal -0.4999999999999988 -0.8660254037844395 0.0
  outer loop
    vertex -35.650000000000006 -20.948614836982816 0.9999999999999986
    vertex -36.20471619626421 -20.718843865222166 -1.4099832412739487e-15
    vertex -35.650000000000006 -20.948614836982816 -1.4099832412739487e-15
  endloop
endfacet
facet normal -0.25881904510252124 -0.9659258262890682 0.0
  outer loop
    vertex -36.20471619626421 -20.718843865222166 -1.4099832412739487e-15
    vertex -35.650000000000006 -20.948614836982816 0.9999999999999986
    vertex -36.20471619626421 -20.718843865222166 0.9999999999999986
  endloop
endfacet
facet normal -5.970443630083425e-16 -1.0 0.0
  outer loop
    vertex -36.8 -20.640473265687024 0.9999999999999986
    vertex -37.3952838037358 -20.718843865222166 -1.4099832412739487e-15
    vertex -36.8 -20.640473265687024 -1.4099832412739487e-15
  endloop
endfacet
facet normal 0.25881904510252246 -0.9659258262890678 0.0
  outer loop
    vertex -37.3952838037358 -20.718843865222166 -1.4099832412739487e-15
    vertex -36.8 -20.640473265687024 0.9999999999999986
    vertex -37.3952838037358 -20.718843865222166 0.9999999999999986
  endloop
endfacet
facet normal -0.9659258262890691 -0.25881904510251735 0.0
  outer loop
    vertex -34.57837059953515 -22.34518946195122 0.9999999999999986
    vertex -34.50000000000001 -22.94047326568702 -1.4099832412739487e-15
    vertex -34.50000000000001 -22.94047326568702 0.9999999999999986
  endloop
endfacet
facet normal -1.0 3.0297773645199475e-16 0.0
  outer loop
    vertex -34.50000000000001 -22.94047326568702 -1.4099832412739487e-15
    vertex -34.57837059953515 -22.34518946195122 0.9999999999999986
    vertex -34.57837059953515 -22.34518946195122 -1.4099832412739487e-15
  endloop
endfacet
facet normal -0.8660254037844394 -0.4999999999999986 0.0
  outer loop
    vertex -34.80814157129579 -21.79047326568702 0.9999999999999986
    vertex -34.57837059953515 -22.34518946195122 -1.4099832412739487e-15
    vertex -34.57837059953515 -22.34518946195122 0.9999999999999986
  endloop
endfacet
facet normal -0.9659258262890691 -0.25881904510251735 0.0
  outer loop
    vertex -34.57837059953515 -22.34518946195122 -1.4099832412739487e-15
    vertex -34.80814157129579 -21.79047326568702 0.9999999999999986
    vertex -34.80814157129579 -21.79047326568702 -1.4099832412739487e-15
  endloop
endfacet
facet normal -0.7071067811865454 -0.7071067811865499 0.0
  outer loop
    vertex -35.173654403270945 -21.314127668957962 0.9999999999999986
    vertex -34.80814157129579 -21.79047326568702 -1.4099832412739487e-15
    vertex -34.80814157129579 -21.79047326568702 0.9999999999999986
  endloop
endfacet
facet normal -0.8660254037844394 -0.4999999999999986 0.0
  outer loop
    vertex -34.80814157129579 -21.79047326568702 -1.4099832412739487e-15
    vertex -35.173654403270945 -21.314127668957962 0.9999999999999986
    vertex -35.173654403270945 -21.314127668957962 -1.4099832412739487e-15
  endloop
endfacet
facet normal -0.5000000000000003 0.8660254037844384 0.0
  outer loop
    vertex -35.650000000000006 -24.932331694391227 0.9999999999999986
    vertex -35.173654403270945 -24.56681886241608 -1.4099832412739487e-15
    vertex -35.650000000000006 -24.932331694391227 -1.4099832412739487e-15
  endloop
endfacet
facet normal -0.7071067811865462 0.7071067811865489 0.0
  outer loop
    vertex -35.173654403270945 -24.56681886241608 -1.4099832412739487e-15
    vertex -35.650000000000006 -24.932331694391227 0.9999999999999986
    vertex -35.173654403270945 -24.56681886241608 0.9999999999999986
  endloop
endfacet
facet normal -1.0 -2.673332968694071e-16 0.0
  outer loop
    vertex -3.5000000000000013 -18.94047326568702 0.9999999999999999
    vertex -3.578370599535144 -19.535757069422818 0.0
    vertex -3.578370599535144 -19.535757069422818 0.9999999999999999
  endloop
endfacet
facet normal -0.9659258262890685 0.2588190451025203 0.0
  outer loop
    vertex -3.578370599535144 -19.535757069422818 0.0
    vertex -3.5000000000000013 -18.94047326568702 0.9999999999999999
    vertex -3.5000000000000013 -18.94047326568702 0.0
  endloop
endfacet
facet normal -0.5000000000000006 0.8660254037844384 0.0
  outer loop
    vertex -4.65 -20.932331694391227 0.9999999999999999
    vertex -4.173654403270941 -20.566818862416078 0.0
    vertex -4.65 -20.932331694391227 0.0
  endloop
endfacet
facet normal -0.7071067811865472 0.7071067811865477 0.0
  outer loop
    vertex -4.173654403270941 -20.566818862416078 0.0
    vertex -4.65 -20.932331694391227 0.9999999999999999
    vertex -4.173654403270941 -20.566818862416078 0.9999999999999999
  endloop
endfacet
facet normal -0.25881904510252246 0.9659258262890678 0.0
  outer loop
    vertex -43.2047161962642 -25.162102666151878 0.9999999999999986
    vertex -42.65 -24.932331694391227 -1.4099832412739487e-15
    vertex -43.2047161962642 -25.162102666151878 -1.4099832412739487e-15
  endloop
endfacet
facet normal -0.5000000000000003 0.8660254037844384 0.0
  outer loop
    vertex -42.65 -24.932331694391227 -1.4099832412739487e-15
    vertex -43.2047161962642 -25.162102666151878 0.9999999999999986
    vertex -42.65 -24.932331694391227 0.9999999999999986
  endloop
endfacet
facet normal -0.5000000000000003 0.8660254037844384 0.0
  outer loop
    vertex -42.65 -24.932331694391227 0.9999999999999986
    vertex -42.17365440327094 -24.56681886241608 -1.4099832412739487e-15
    vertex -42.65 -24.932331694391227 -1.4099832412739487e-15
  endloop
endfacet
facet normal -0.7071067811865462 0.7071067811865489 0.0
  outer loop
    vertex -42.17365440327094 -24.56681886241608 -1.4099832412739487e-15
    vertex -42.65 -24.932331694391227 0.9999999999999986
    vertex -42.17365440327094 -24.56681886241608 0.9999999999999986
  endloop
endfacet
facet normal -0.9659258262890691 -0.25881904510251735 0.0
  outer loop
    vertex -41.57837059953515 -22.34518946195122 0.9999999999999986
    vertex -41.5 -22.94047326568702 -1.4099832412739487e-15
    vertex -41.5 -22.94047326568702 0.9999999999999986
  endloop
endfacet
facet normal -1.0 3.0297773645199475e-16 0.0
  outer loop
    vertex -41.5 -22.94047326568702 -1.4099832412739487e-15
    vertex -41.57837059953515 -22.34518946195122 0.9999999999999986
    vertex -41.57837059953515 -22.34518946195122 -1.4099832412739487e-15
  endloop
endfacet
facet normal -0.8660254037844394 -0.4999999999999986 0.0
  outer loop
    vertex -41.80814157129579 -21.79047326568702 0.9999999999999986
    vertex -41.57837059953515 -22.34518946195122 -1.4099832412739487e-15
    vertex -41.57837059953515 -22.34518946195122 0.9999999999999986
  endloop
endfacet
facet normal -0.9659258262890691 -0.25881904510251735 0.0
  outer loop
    vertex -41.57837059953515 -22.34518946195122 -1.4099832412739487e-15
    vertex -41.80814157129579 -21.79047326568702 0.9999999999999986
    vertex -41.80814157129579 -21.79047326568702 -1.4099832412739487e-15
  endloop
endfacet
facet normal 0.9659258262890693 0.2588190451025168 0.0
  outer loop
    vertex -39.02162940046485 -23.535757069422818 -1.4099832412739487e-15
    vertex -38.79185842870421 -24.090473265687024 0.9999999999999986
    vertex -38.79185842870421 -24.090473265687024 -1.4099832412739487e-15
  endloop
endfacet
facet normal 0.8660254037844398 0.4999999999999978 0.0
  outer loop
    vertex -38.79185842870421 -24.090473265687024 0.9999999999999986
    vertex -39.02162940046485 -23.535757069422818 -1.4099832412739487e-15
    vertex -39.02162940046485 -23.535757069422818 0.9999999999999986
  endloop
endfacet
facet normal 0.25881904510252246 0.9659258262890678 0.0
  outer loop
    vertex -44.3952838037358 -25.162102666151878 0.9999999999999986
    vertex -43.8 -25.24047326568702 -1.4099832412739487e-15
    vertex -44.3952838037358 -25.162102666151878 -1.4099832412739487e-15
  endloop
endfacet
facet normal 0.0 1.0 0.0
  outer loop
    vertex -43.8 -25.24047326568702 -1.4099832412739487e-15
    vertex -44.3952838037358 -25.162102666151878 0.9999999999999986
    vertex -43.8 -25.24047326568702 0.9999999999999986
  endloop
endfacet
facet normal -1.0 3.0297773645199475e-16 0.0
  outer loop
    vertex -34.50000000000001 -22.94047326568702 0.9999999999999986
    vertex -34.57837059953515 -23.535757069422818 -1.4099832412739487e-15
    vertex -34.57837059953515 -23.535757069422818 0.9999999999999986
  endloop
endfacet
facet normal -0.9659258262890691 0.25881904510251763 0.0
  outer loop
    vertex -34.57837059953515 -23.535757069422818 -1.4099832412739487e-15
    vertex -34.50000000000001 -22.94047326568702 0.9999999999999986
    vertex -34.50000000000001 -22.94047326568702 -1.4099832412739487e-15
  endloop
endfacet
facet normal 0.8660254037844398 0.4999999999999978 0.0
  outer loop
    vertex -45.79185842870421 -24.090473265687024 -1.4099832412739487e-15
    vertex -45.42634559672906 -24.56681886241608 0.9999999999999986
    vertex -45.42634559672906 -24.56681886241608 -1.4099832412739487e-15
  endloop
endfacet
facet normal 0.7071067811865454 0.7071067811865499 0.0
  outer loop
    vertex -45.42634559672906 -24.56681886241608 0.9999999999999986
    vertex -45.79185842870421 -24.090473265687024 -1.4099832412739487e-15
    vertex -45.79185842870421 -24.090473265687024 0.9999999999999986
  endloop
endfacet
facet normal 0.5000000000000003 0.8660254037844384 0.0
  outer loop
    vertex -44.949999999999996 -24.932331694391227 0.9999999999999986
    vertex -44.3952838037358 -25.162102666151878 -1.4099832412739487e-15
    vertex -44.949999999999996 -24.932331694391227 -1.4099832412739487e-15
  endloop
endfacet
facet normal 0.25881904510252246 0.9659258262890678 0.0
  outer loop
    vertex -44.3952838037358 -25.162102666151878 -1.4099832412739487e-15
    vertex -44.949999999999996 -24.932331694391227 0.9999999999999986
    vertex -44.3952838037358 -25.162102666151878 0.9999999999999986
  endloop
endfacet
facet normal 0.0 1.0 0.0
  outer loop
    vertex -36.8 -25.24047326568702 0.9999999999999986
    vertex -36.2047161962642 -25.162102666151878 -1.4099832412739487e-15
    vertex -36.8 -25.24047326568702 -1.4099832412739487e-15
  endloop
endfacet
facet normal -0.25881904510252246 0.9659258262890678 0.0
  outer loop
    vertex -36.2047161962642 -25.162102666151878 -1.4099832412739487e-15
    vertex -36.8 -25.24047326568702 0.9999999999999986
    vertex -36.2047161962642 -25.162102666151878 0.9999999999999986
  endloop
endfacet
facet normal 0.9659258262890691 -0.25881904510251763 0.0
  outer loop
    vertex -39.02162940046485 -22.345189461951225 -1.4099832412739487e-15
    vertex -39.099999999999994 -22.94047326568702 0.9999999999999986
    vertex -39.099999999999994 -22.94047326568702 -1.4099832412739487e-15
  endloop
endfacet
facet normal 1.0 0.0 0.0
  outer loop
    vertex -39.099999999999994 -22.94047326568702 0.9999999999999986
    vertex -39.02162940046485 -22.345189461951225 -1.4099832412739487e-15
    vertex -39.02162940046485 -22.345189461951225 0.9999999999999986
  endloop
endfacet
facet normal -0.86602540378444 0.4999999999999974 0.0
  outer loop
    vertex -41.80814157129579 -24.09047326568702 0.9999999999999986
    vertex -42.17365440327094 -24.56681886241608 -1.4099832412739487e-15
    vertex -42.17365440327094 -24.56681886241608 0.9999999999999986
  endloop
endfacet
facet normal -0.7071067811865462 0.7071067811865489 0.0
  outer loop
    vertex -42.17365440327094 -24.56681886241608 -1.4099832412739487e-15
    vertex -41.80814157129579 -24.09047326568702 0.9999999999999986
    vertex -41.80814157129579 -24.09047326568702 -1.4099832412739487e-15
  endloop
endfacet
facet normal -0.9659258262890691 0.25881904510251763 0.0
  outer loop
    vertex -41.57837059953515 -23.535757069422818 0.9999999999999986
    vertex -41.80814157129579 -24.09047326568702 -1.4099832412739487e-15
    vertex -41.80814157129579 -24.09047326568702 0.9999999999999986
  endloop
endfacet
facet normal -0.86602540378444 0.4999999999999974 0.0
  outer loop
    vertex -41.80814157129579 -24.09047326568702 -1.4099832412739487e-15
    vertex -41.57837059953515 -23.535757069422818 0.9999999999999986
    vertex -41.57837059953515 -23.535757069422818 -1.4099832412739487e-15
  endloop
endfacet
facet normal -1.0 3.0297773645199475e-16 0.0
  outer loop
    vertex -41.5 -22.94047326568702 0.9999999999999986
    vertex -41.57837059953515 -23.535757069422818 -1.4099832412739487e-15
    vertex -41.57837059953515 -23.535757069422818 0.9999999999999986
  endloop
endfacet
facet normal -0.9659258262890691 0.25881904510251763 0.0
  outer loop
    vertex -41.57837059953515 -23.535757069422818 -1.4099832412739487e-15
    vertex -41.5 -22.94047326568702 0.9999999999999986
    vertex -41.5 -22.94047326568702 -1.4099832412739487e-15
  endloop
endfacet
facet normal -1.5148886822599737e-16 -1.0 0.0
  outer loop
    vertex -5.8 -16.64047326568702 0.9999999999999999
    vertex -6.395283803735798 -16.718843865222166 0.0
    vertex -5.8 -16.64047326568702 0.0
  endloop
endfacet
facet normal 0.2588190451025213 -0.9659258262890681 0.0
  outer loop
    vertex -6.395283803735798 -16.718843865222166 0.0
    vertex -5.8 -16.64047326568702 0.9999999999999999
    vertex -6.395283803735798 -16.718843865222166 0.9999999999999999
  endloop
endfacet
facet normal -0.7071067811865454 -0.7071067811865499 0.0
  outer loop
    vertex -42.17365440327094 -21.314127668957962 0.9999999999999986
    vertex -42.65 -20.948614836982816 -1.4099832412739487e-15
    vertex -42.17365440327094 -21.314127668957962 -1.4099832412739487e-15
  endloop
endfacet
facet normal -0.4999999999999988 -0.8660254037844395 0.0
  outer loop
    vertex -42.65 -20.948614836982816 -1.4099832412739487e-15
    vertex -42.17365440327094 -21.314127668957962 0.9999999999999986
    vertex -42.65 -20.948614836982816 0.9999999999999986
  endloop
endfacet
facet normal -0.4999999999999988 -0.8660254037844395 0.0
  outer loop
    vertex -42.65 -20.948614836982816 0.9999999999999986
    vertex -43.2047161962642 -20.718843865222166 -1.4099832412739487e-15
    vertex -42.65 -20.948614836982816 -1.4099832412739487e-15
  endloop
endfacet
facet normal -0.25881904510252124 -0.9659258262890682 0.0
  outer loop
    vertex -43.2047161962642 -20.718843865222166 -1.4099832412739487e-15
    vertex -42.65 -20.948614836982816 0.9999999999999986
    vertex -43.2047161962642 -20.718843865222166 0.9999999999999986
  endloop
endfacet
facet normal -0.25881904510252124 -0.9659258262890682 0.0
  outer loop
    vertex -43.2047161962642 -20.718843865222166 0.9999999999999986
    vertex -43.8 -20.640473265687024 -1.4099832412739487e-15
    vertex -43.2047161962642 -20.718843865222166 -1.4099832412739487e-15
  endloop
endfacet
facet normal -5.970443630083425e-16 -1.0 0.0
  outer loop
    vertex -43.8 -20.640473265687024 -1.4099832412739487e-15
    vertex -43.2047161962642 -20.718843865222166 0.9999999999999986
    vertex -43.8 -20.640473265687024 0.9999999999999986
  endloop
endfacet
facet normal -5.970443630083425e-16 -1.0 0.0
  outer loop
    vertex -43.8 -20.640473265687024 0.9999999999999986
    vertex -44.3952838037358 -20.718843865222166 -1.4099832412739487e-15
    vertex -43.8 -20.640473265687024 -1.4099832412739487e-15
  endloop
endfacet
facet normal 0.25881904510252246 -0.9659258262890678 0.0
  outer loop
    vertex -44.3952838037358 -20.718843865222166 -1.4099832412739487e-15
    vertex -43.8 -20.640473265687024 0.9999999999999986
    vertex -44.3952838037358 -20.718843865222166 0.9999999999999986
  endloop
endfacet
facet normal 0.25881904510252246 -0.9659258262890678 0.0
  outer loop
    vertex -44.3952838037358 -20.718843865222166 0.9999999999999986
    vertex -44.949999999999996 -20.948614836982816 -1.4099832412739487e-15
    vertex -44.3952838037358 -20.718843865222166 -1.4099832412739487e-15
  endloop
endfacet
facet normal 0.5000000000000003 -0.8660254037844384 0.0
  outer loop
    vertex -44.949999999999996 -20.948614836982816 -1.4099832412739487e-15
    vertex -44.3952838037358 -20.718843865222166 0.9999999999999986
    vertex -44.949999999999996 -20.948614836982816 0.9999999999999986
  endloop
endfacet
facet normal 0.5000000000000003 -0.8660254037844384 0.0
  outer loop
    vertex -44.949999999999996 -20.948614836982816 0.9999999999999986
    vertex -45.42634559672906 -21.314127668957962 -1.4099832412739487e-15
    vertex -44.949999999999996 -20.948614836982816 -1.4099832412739487e-15
  endloop
endfacet
facet normal 0.7071067811865462 -0.7071067811865489 0.0
  outer loop
    vertex -45.42634559672906 -21.314127668957962 -1.4099832412739487e-15
    vertex -44.949999999999996 -20.948614836982816 0.9999999999999986
    vertex -45.42634559672906 -21.314127668957962 0.9999999999999986
  endloop
endfacet
facet normal 0.7071067811865462 -0.7071067811865489 0.0
  outer loop
    vertex -45.42634559672906 -21.314127668957962 -1.4099832412739487e-15
    vertex -45.79185842870421 -21.790473265687023 0.9999999999999986
    vertex -45.79185842870421 -21.790473265687023 -1.4099832412739487e-15
  endloop
endfacet
facet normal 0.86602540378444 -0.4999999999999974 0.0
  outer loop
    vertex -45.79185842870421 -21.790473265687023 0.9999999999999986
    vertex -45.42634559672906 -21.314127668957962 -1.4099832412739487e-15
    vertex -45.42634559672906 -21.314127668957962 0.9999999999999986
  endloop
endfacet
facet normal 0.86602540378444 -0.4999999999999974 0.0
  outer loop
    vertex -45.79185842870421 -21.790473265687023 -1.4099832412739487e-15
    vertex -46.02162940046485 -22.345189461951225 0.9999999999999986
    vertex -46.02162940046485 -22.345189461951225 -1.4099832412739487e-15
  endloop
endfacet
facet normal 0.9659258262890691 -0.25881904510251763 0.0
  outer loop
    vertex -46.02162940046485 -22.345189461951225 0.9999999999999986
    vertex -45.79185842870421 -21.790473265687023 -1.4099832412739487e-15
    vertex -45.79185842870421 -21.790473265687023 0.9999999999999986
  endloop
endfacet
facet normal 0.9659258262890691 -0.25881904510251763 0.0
  outer loop
    vertex -46.02162940046485 -22.345189461951225 -1.4099832412739487e-15
    vertex -46.099999999999994 -22.94047326568702 0.9999999999999986
    vertex -46.099999999999994 -22.94047326568702 -1.4099832412739487e-15
  endloop
endfacet
facet normal 1.0 0.0 0.0
  outer loop
    vertex -46.099999999999994 -22.94047326568702 0.9999999999999986
    vertex -46.02162940046485 -22.345189461951225 -1.4099832412739487e-15
    vertex -46.02162940046485 -22.345189461951225 0.9999999999999986
  endloop
endfacet
facet normal 1.0 0.0 0.0
  outer loop
    vertex -46.099999999999994 -22.94047326568702 -1.4099832412739487e-15
    vertex -46.02162940046485 -23.535757069422818 0.9999999999999986
    vertex -46.02162940046485 -23.535757069422818 -1.4099832412739487e-15
  endloop
endfacet
facet normal 0.9659258262890693 0.2588190451025168 0.0
  outer loop
    vertex -46.02162940046485 -23.535757069422818 0.9999999999999986
    vertex -46.099999999999994 -22.94047326568702 -1.4099832412739487e-15
    vertex -46.099999999999994 -22.94047326568702 0.9999999999999986
  endloop
endfacet
facet normal 0.9659258262890693 0.2588190451025168 0.0
  outer loop
    vertex -46.02162940046485 -23.535757069422818 -1.4099832412739487e-15
    vertex -45.79185842870421 -24.090473265687024 0.9999999999999986
    vertex -45.79185842870421 -24.090473265687024 -1.4099832412739487e-15
  endloop
endfacet
facet normal 0.8660254037844398 0.4999999999999978 0.0
  outer loop
    vertex -45.79185842870421 -24.090473265687024 0.9999999999999986
    vertex -46.02162940046485 -23.535757069422818 -1.4099832412739487e-15
    vertex -46.02162940046485 -23.535757069422818 0.9999999999999986
  endloop
endfacet
facet normal -0.2588190451025217 0.9659258262890681 0.0
  outer loop
    vertex -5.204716196264201 -21.162102666151878 0.9999999999999999
    vertex -4.65 -20.932331694391227 0.0
    vertex -5.204716196264201 -21.162102666151878 0.0
  endloop
endfacet
facet normal -0.5000000000000006 0.8660254037844384 0.0
  outer loop
    vertex -4.65 -20.932331694391227 0.0
    vertex -5.204716196264201 -21.162102666151878 0.9999999999999999
    vertex -4.65 -20.932331694391227 0.9999999999999999
  endloop
endfacet
facet normal 0.9659258262890682 0.2588190451025211 0.0
  outer loop
    vertex -8.021629400464855 -19.535757069422818 0.0
    vertex -7.791858428704208 -20.09047326568702 0.9999999999999999
    vertex -7.791858428704208 -20.09047326568702 0.0
  endloop
endfacet
facet normal 0.8660254037844387 0.4999999999999999 0.0
  outer loop
    vertex -7.791858428704208 -20.09047326568702 0.9999999999999999
    vertex -8.021629400464855 -19.535757069422818 0.0
    vertex -8.021629400464855 -19.535757069422818 0.9999999999999999
  endloop
endfacet
facet normal 0.8660254037844387 0.4999999999999999 0.0
  outer loop
    vertex -7.791858428704208 -20.09047326568702 0.0
    vertex -7.426345596729058 -20.566818862416078 0.9999999999999999
    vertex -7.426345596729058 -20.566818862416078 0.0
  endloop
endfacet
facet normal 0.7071067811865465 0.7071067811865488 0.0
  outer loop
    vertex -7.426345596729058 -20.566818862416078 0.9999999999999999
    vertex -7.791858428704208 -20.09047326568702 0.0
    vertex -7.791858428704208 -20.09047326568702 0.9999999999999999
  endloop
endfacet
facet normal 0.7071067811865465 0.7071067811865488 0.0
  outer loop
    vertex -7.426345596729058 -20.566818862416078 0.9999999999999999
    vertex -6.949999999999998 -20.932331694391227 0.0
    vertex -7.426345596729058 -20.566818862416078 0.0
  endloop
endfacet
facet normal 0.5000000000000002 0.8660254037844386 0.0
  outer loop
    vertex -6.949999999999998 -20.932331694391227 0.0
    vertex -7.426345596729058 -20.566818862416078 0.9999999999999999
    vertex -6.949999999999998 -20.932331694391227 0.9999999999999999
  endloop
endfacet
facet normal 0.5000000000000002 0.8660254037844386 0.0
  outer loop
    vertex -6.949999999999998 -20.932331694391227 0.9999999999999999
    vertex -6.395283803735798 -21.162102666151878 0.0
    vertex -6.949999999999998 -20.932331694391227 0.0
  endloop
endfacet
facet normal 0.25881904510252185 0.9659258262890681 0.0
  outer loop
    vertex -6.395283803735798 -21.162102666151878 0.0
    vertex -6.949999999999998 -20.932331694391227 0.9999999999999999
    vertex -6.395283803735798 -21.162102666151878 0.9999999999999999
  endloop
endfacet
facet normal 0.25881904510252185 0.9659258262890681 0.0
  outer loop
    vertex -6.395283803735798 -21.162102666151878 0.9999999999999999
    vertex -5.8 -21.24047326568702 0.0
    vertex -6.395283803735798 -21.162102666151878 0.0
  endloop
endfacet
facet normal 1.5148886822599737e-16 1.0 0.0
  outer loop
    vertex -5.8 -21.24047326568702 0.0
    vertex -6.395283803735798 -21.162102666151878 0.9999999999999999
    vertex -5.8 -21.24047326568702 0.9999999999999999
  endloop
endfacet
facet normal 1.5148886822599737e-16 1.0 0.0
  outer loop
    vertex -5.8 -21.24047326568702 0.9999999999999999
    vertex -5.204716196264201 -21.162102666151878 0.0
    vertex -5.8 -21.24047326568702 0.0
  endloop
endfacet
facet normal -0.2588190451025217 0.9659258262890681 0.0
  outer loop
    vertex -5.204716196264201 -21.162102666151878 0.0
    vertex -5.8 -21.24047326568702 0.9999999999999999
    vertex -5.204716196264201 -21.162102666151878 0.9999999999999999
  endloop
endfacet
facet normal 0.8660254037844398 0.4999999999999978 0.0
  outer loop
    vertex -38.79185842870421 -24.090473265687024 -1.4099832412739487e-15
    vertex -38.42634559672906 -24.56681886241608 0.9999999999999986
    vertex -38.42634559672906 -24.56681886241608 -1.4099832412739487e-15
  endloop
endfacet
facet normal 0.7071067811865454 0.7071067811865499 0.0
  outer loop
    vertex -38.42634559672906 -24.56681886241608 0.9999999999999986
    vertex -38.79185842870421 -24.090473265687024 -1.4099832412739487e-15
    vertex -38.79185842870421 -24.090473265687024 0.9999999999999986
  endloop
endfacet
facet normal -0.7071067811865454 -0.7071067811865499 0.0
  outer loop
    vertex -42.17365440327094 -21.314127668957962 0.9999999999999986
    vertex -41.80814157129579 -21.79047326568702 -1.4099832412739487e-15
    vertex -41.80814157129579 -21.79047326568702 0.9999999999999986
  endloop
endfacet
facet normal -0.8660254037844394 -0.4999999999999986 0.0
  outer loop
    vertex -41.80814157129579 -21.79047326568702 -1.4099832412739487e-15
    vertex -42.17365440327094 -21.314127668957962 0.9999999999999986
    vertex -42.17365440327094 -21.314127668957962 -1.4099832412739487e-15
  endloop
endfacet
facet normal 0.5000000000000003 -0.8660254037844384 0.0
  outer loop
    vertex -37.949999999999996 -20.948614836982816 0.9999999999999986
    vertex -38.42634559672906 -21.314127668957962 -1.4099832412739487e-15
    vertex -37.949999999999996 -20.948614836982816 -1.4099832412739487e-15
  endloop
endfacet
facet normal 0.7071067811865462 -0.7071067811865489 0.0
  outer loop
    vertex -38.42634559672906 -21.314127668957962 -1.4099832412739487e-15
    vertex -37.949999999999996 -20.948614836982816 0.9999999999999986
    vertex -38.42634559672906 -21.314127668957962 0.9999999999999986
  endloop
endfacet
facet normal 0.7071067811865462 -0.7071067811865489 0.0
  outer loop
    vertex -38.42634559672906 -21.314127668957962 -1.4099832412739487e-15
    vertex -38.79185842870421 -21.790473265687023 0.9999999999999986
    vertex -38.79185842870421 -21.790473265687023 -1.4099832412739487e-15
  endloop
endfacet
facet normal 0.86602540378444 -0.4999999999999974 0.0
  outer loop
    vertex -38.79185842870421 -21.790473265687023 0.9999999999999986
    vertex -38.42634559672906 -21.314127668957962 -1.4099832412739487e-15
    vertex -38.42634559672906 -21.314127668957962 0.9999999999999986
  endloop
endfacet
facet normal 0.5000000000000003 0.8660254037844384 0.0
  outer loop
    vertex -37.949999999999996 -24.932331694391227 0.9999999999999986
    vertex -37.3952838037358 -25.162102666151878 -1.4099832412739487e-15
    vertex -37.949999999999996 -24.932331694391227 -1.4099832412739487e-15
  endloop
endfacet
facet normal 0.25881904510252246 0.9659258262890678 0.0
  outer loop
    vertex -37.3952838037358 -25.162102666151878 -1.4099832412739487e-15
    vertex -37.949999999999996 -24.932331694391227 0.9999999999999986
    vertex -37.3952838037358 -25.162102666151878 0.9999999999999986
  endloop
endfacet
facet normal 0.7071067811865454 0.7071067811865499 0.0
  outer loop
    vertex -38.42634559672906 -24.56681886241608 0.9999999999999986
    vertex -37.949999999999996 -24.932331694391227 -1.4099832412739487e-15
    vertex -38.42634559672906 -24.56681886241608 -1.4099832412739487e-15
  endloop
endfacet
facet normal 0.5000000000000003 0.8660254037844384 0.0
  outer loop
    vertex -37.949999999999996 -24.932331694391227 -1.4099832412739487e-15
    vertex -38.42634559672906 -24.56681886241608 0.9999999999999986
    vertex -37.949999999999996 -24.932331694391227 0.9999999999999986
  endloop
endfacet
facet normal 0.86602540378444 -0.4999999999999974 0.0
  outer loop
    vertex -38.79185842870421 -21.790473265687023 -1.4099832412739487e-15
    vertex -39.02162940046485 -22.345189461951225 0.9999999999999986
    vertex -39.02162940046485 -22.345189461951225 -1.4099832412739487e-15
  endloop
endfacet
facet normal 0.9659258262890691 -0.25881904510251763 0.0
  outer loop
    vertex -39.02162940046485 -22.345189461951225 0.9999999999999986
    vertex -38.79185842870421 -21.790473265687023 -1.4099832412739487e-15
    vertex -38.79185842870421 -21.790473265687023 0.9999999999999986
  endloop
endfacet
facet normal -1.0 0.0 0.0
  outer loop
    vertex -50.8 -4.0404732656870195 0.9999999999999999
    vertex -50.8 -33.840473265687024 0.0
    vertex -50.8 -33.840473265687024 0.9999999999999999
  endloop
endfacet
facet normal -1.0 0.0 0.0
  outer loop
    vertex -50.8 -33.840473265687024 0.0
    vertex -50.8 -4.0404732656870195 0.9999999999999999
    vertex -50.8 -4.0404732656870195 0.0
  endloop
endfacet
endsolid power-inlet-v2
