solid solidname
 facet normal 0 -0 1
  outer loop
    vertex 52.173 -23.362 1.5
    vertex 52.3532 -22.9271 1.5
    vertex 52.4631 -22.4693 1.5
  endloop
 endfacet
 facet normal 0 0 1
  outer loop
    vertex 51.2633 -24.4271 1.5
    vertex 51.6213 -24.1213 1.5
    vertex 49 -21.75 1.5
  endloop
 endfacet
 facet normal 0 -0 1
  outer loop
    vertex 49 -21.75 1.5
    vertex 51.6213 -24.1213 1.5
    vertex 51.927 -23.7634 1.5
  endloop
 endfacet
 facet normal 0 0 1
  outer loop
    vertex 50.427 -24.8532 1.5
    vertex 50.862 -24.673 1.5
    vertex 49.9693 -24.9631 1.5
  endloop
 endfacet
 facet normal 0 0 1
  outer loop
    vertex 49.9693 -24.9631 1.5
    vertex 50.862 -24.673 1.5
    vertex 49.5 -25 1.5
  endloop
 endfacet
 facet normal 0 0 1
  outer loop
    vertex 50.862 -24.673 1.5
    vertex 51.2633 -24.4271 1.5
    vertex 49.5 -25 1.5
  endloop
 endfacet
 facet normal 0 0 1
  outer loop
    vertex 49.5 -25 1.5
    vertex 51.2633 -24.4271 1.5
    vertex 49 -21.75 1.5
  endloop
 endfacet
 facet normal 0 0 1
  outer loop
    vertex 49.5 -25 1.5
    vertex 49 -21.75 1.5
    vertex -49.5 -25 1.5
  endloop
 endfacet
 facet normal 0 0 1
  outer loop
    vertex -49.5 -25 1.5
    vertex 49 -21.75 1.5
    vertex -49 -21.75 1.5
  endloop
 endfacet
 facet normal 0 0 1
  outer loop
    vertex -49.5 -25 1.5
    vertex -49 -21.75 1.5
    vertex -49.9693 -24.9631 1.5
  endloop
 endfacet
 facet normal 0 -0 1
  outer loop
    vertex -52.3532 -22.9271 1.5
    vertex -52.173 -23.362 1.5
    vertex -49 -21.75 1.5
  endloop
 endfacet
 facet normal 0 0 1
  outer loop
    vertex -44.5 15 1.5
    vertex -44.4696 15.3473 1.5
    vertex -49 20.25 1.5
  endloop
 endfacet
 facet normal -0 -0 1
  outer loop
    vertex -51.2633 -24.4271 1.5
    vertex -50.862 -24.673 1.5
    vertex -50.427 -24.8532 1.5
  endloop
 endfacet
 facet normal 0 0 1
  outer loop
    vertex -50.427 -24.8532 1.5
    vertex -49.9693 -24.9631 1.5
    vertex -51.2633 -24.4271 1.5
  endloop
 endfacet
 facet normal 0 -0 1
  outer loop
    vertex -51.2633 -24.4271 1.5
    vertex -49.9693 -24.9631 1.5
    vertex -49 -21.75 1.5
  endloop
 endfacet
 facet normal 0 0 1
  outer loop
    vertex -51.2633 -24.4271 1.5
    vertex -49 -21.75 1.5
    vertex -51.6213 -24.1213 1.5
  endloop
 endfacet
 facet normal 0 0 1
  outer loop
    vertex -51.6213 -24.1213 1.5
    vertex -49 -21.75 1.5
    vertex -52.173 -23.362 1.5
  endloop
 endfacet
 facet normal 0 0 1
  outer loop
    vertex -51.6213 -24.1213 1.5
    vertex -52.173 -23.362 1.5
    vertex -51.927 -23.7634 1.5
  endloop
 endfacet
 facet normal -0 0 1
  outer loop
    vertex 44.232 -16 1.5
    vertex 44.0321 -16.2856 1.5
    vertex 49 -20.25 1.5
  endloop
 endfacet
 facet normal 0 0 1
  outer loop
    vertex -49 -20.25 1.5
    vertex -44.4696 -15.3473 1.5
    vertex -44.5 -15 1.5
  endloop
 endfacet
 facet normal 0 0 1
  outer loop
    vertex -44.4696 15.3473 1.5
    vertex -44.3794 15.684 1.5
    vertex -49 20.25 1.5
  endloop
 endfacet
 facet normal 0 -0 1
  outer loop
    vertex -49 20.25 1.5
    vertex -44.3794 15.684 1.5
    vertex -44.232 16 1.5
  endloop
 endfacet
 facet normal 0 -0 1
  outer loop
    vertex -49 20.25 1.5
    vertex -44.232 16 1.5
    vertex -44.0321 16.2856 1.5
  endloop
 endfacet
 facet normal 0 -0 1
  outer loop
    vertex 43.7856 16.5321 1.5
    vertex 44.0321 16.2856 1.5
    vertex 49 20.25 1.5
  endloop
 endfacet
 facet normal -0 0 1
  outer loop
    vertex 49 20.25 1.5
    vertex 44.0321 16.2856 1.5
    vertex 44.232 16 1.5
  endloop
 endfacet
 facet normal 0 0 1
  outer loop
    vertex -52.5 22 1.5
    vertex -49 20.25 1.5
    vertex -52.4544 22.5209 1.5
  endloop
 endfacet
 facet normal 0 -0 1
  outer loop
    vertex -52.4544 22.5209 1.5
    vertex -49 20.25 1.5
    vertex -49 21.75 1.5
  endloop
 endfacet
 facet normal 0 0 1
  outer loop
    vertex 51.927 -23.7634 1.5
    vertex 52.173 -23.362 1.5
    vertex 49 -21.75 1.5
  endloop
 endfacet
 facet normal 0 -0 1
  outer loop
    vertex 49 -21.75 1.5
    vertex 52.173 -23.362 1.5
    vertex 52.4631 -22.4693 1.5
  endloop
 endfacet
 facet normal 0 0 1
  outer loop
    vertex 49 -21.75 1.5
    vertex 52.4631 -22.4693 1.5
    vertex 49 -20.25 1.5
  endloop
 endfacet
 facet normal 0 -0 1
  outer loop
    vertex 49 -20.25 1.5
    vertex 52.4631 -22.4693 1.5
    vertex 52.5 -22 1.5
  endloop
 endfacet
 facet normal 0 0 1
  outer loop
    vertex 49 -20.25 1.5
    vertex 52.5 -22 1.5
    vertex 49 20.25 1.5
  endloop
 endfacet
 facet normal 0 -0 1
  outer loop
    vertex 49 20.25 1.5
    vertex 52.5 -22 1.5
    vertex 52.5 22 1.5
  endloop
 endfacet
 facet normal 0 0 1
  outer loop
    vertex 49 20.25 1.5
    vertex 52.5 22 1.5
    vertex 49 21.75 1.5
  endloop
 endfacet
 facet normal 0 0 1
  outer loop
    vertex 49 21.75 1.5
    vertex 52.5 22 1.5
    vertex 52.4544 22.5209 1.5
  endloop
 endfacet
 facet normal 0 0 1
  outer loop
    vertex -52.3191 23.0261 1.5
    vertex -52.4544 22.5209 1.5
    vertex -52.0981 23.5 1.5
  endloop
 endfacet
 facet normal -0 0 1
  outer loop
    vertex -52.0981 23.5 1.5
    vertex -52.4544 22.5209 1.5
    vertex -49 21.75 1.5
  endloop
 endfacet
 facet normal 0 0 1
  outer loop
    vertex -52.0981 23.5 1.5
    vertex -49 21.75 1.5
    vertex -51.7981 23.9284 1.5
  endloop
 endfacet
 facet normal 0 0 1
  outer loop
    vertex -51.7981 23.9284 1.5
    vertex -49 21.75 1.5
    vertex -51.4283 24.2981 1.5
  endloop
 endfacet
 facet normal 0 0 1
  outer loop
    vertex 51 24.5981 1.5
    vertex 50.5261 24.8191 1.5
    vertex 51.4284 24.2981 1.5
  endloop
 endfacet
 facet normal 0 0 1
  outer loop
    vertex 51.4284 24.2981 1.5
    vertex 50.5261 24.8191 1.5
    vertex 50.0209 24.9544 1.5
  endloop
 endfacet
 facet normal 0 0 1
  outer loop
    vertex 51.4284 24.2981 1.5
    vertex 50.0209 24.9544 1.5
    vertex 49 21.75 1.5
  endloop
 endfacet
 facet normal 0 0 1
  outer loop
    vertex 49 21.75 1.5
    vertex 50.0209 24.9544 1.5
    vertex 49.5 25 1.5
  endloop
 endfacet
 facet normal 0 0 1
  outer loop
    vertex 49 21.75 1.5
    vertex 49.5 25 1.5
    vertex -49 21.75 1.5
  endloop
 endfacet
 facet normal 0 0 1
  outer loop
    vertex -49 21.75 1.5
    vertex 49.5 25 1.5
    vertex -49.5 25 1.5
  endloop
 endfacet
 facet normal 0 0 1
  outer loop
    vertex 51.7981 23.9284 1.5
    vertex 51.4284 24.2981 1.5
    vertex 52.0981 23.5 1.5
  endloop
 endfacet
 facet normal 0 0 1
  outer loop
    vertex 52.0981 23.5 1.5
    vertex 51.4284 24.2981 1.5
    vertex 49 21.75 1.5
  endloop
 endfacet
 facet normal 0 0 1
  outer loop
    vertex 52.0981 23.5 1.5
    vertex 49 21.75 1.5
    vertex 52.3191 23.0261 1.5
  endloop
 endfacet
 facet normal 0 0 1
  outer loop
    vertex 52.3191 23.0261 1.5
    vertex 49 21.75 1.5
    vertex 52.4544 22.5209 1.5
  endloop
 endfacet
 facet normal -0 0 1
  outer loop
    vertex 44.5 -15 1.5
    vertex 44.4696 -15.3473 1.5
    vertex 49 -20.25 1.5
  endloop
 endfacet
 facet normal 0 0 1
  outer loop
    vertex 49 -20.25 1.5
    vertex 44.4696 -15.3473 1.5
    vertex 44.3794 -15.684 1.5
  endloop
 endfacet
 facet normal 0 0 1
  outer loop
    vertex 49 -20.25 1.5
    vertex 44.3794 -15.684 1.5
    vertex 44.232 -16 1.5
  endloop
 endfacet
 facet normal 0 0 1
  outer loop
    vertex -42.8473 -16.9696 1.5
    vertex -43.184 -16.8794 1.5
    vertex -49 -20.25 1.5
  endloop
 endfacet
 facet normal 0 0 1
  outer loop
    vertex -44.0321 -16.2856 1.5
    vertex -44.232 -16 1.5
    vertex -49 -20.25 1.5
  endloop
 endfacet
 facet normal 0 0 1
  outer loop
    vertex -49 -20.25 1.5
    vertex -44.232 -16 1.5
    vertex -44.3794 -15.684 1.5
  endloop
 endfacet
 facet normal 0 0 1
  outer loop
    vertex -49 -20.25 1.5
    vertex -44.3794 -15.684 1.5
    vertex -44.4696 -15.3473 1.5
  endloop
 endfacet
 facet normal 0 0 1
  outer loop
    vertex -52.4631 -22.4693 1.5
    vertex -52.3532 -22.9271 1.5
    vertex -52.5 -22 1.5
  endloop
 endfacet
 facet normal 0 -0 1
  outer loop
    vertex -52.5 -22 1.5
    vertex -52.3532 -22.9271 1.5
    vertex -49 -21.75 1.5
  endloop
 endfacet
 facet normal 0 0 1
  outer loop
    vertex -52.5 -22 1.5
    vertex -49 -21.75 1.5
    vertex -52.5 22 1.5
  endloop
 endfacet
 facet normal 0 -0 1
  outer loop
    vertex -52.5 22 1.5
    vertex -49 -21.75 1.5
    vertex -49 -20.25 1.5
  endloop
 endfacet
 facet normal 0 -0 1
  outer loop
    vertex -52.5 22 1.5
    vertex -49 -20.25 1.5
    vertex -49 20.25 1.5
  endloop
 endfacet
 facet normal 0 0 1
  outer loop
    vertex -49 20.25 1.5
    vertex -49 -20.25 1.5
    vertex -44.5 -15 1.5
  endloop
 endfacet
 facet normal 0 -0 1
  outer loop
    vertex -49 20.25 1.5
    vertex -44.5 -15 1.5
    vertex -44.5 15 1.5
  endloop
 endfacet
 facet normal 0 -0 1
  outer loop
    vertex 44.232 16 1.5
    vertex 44.3794 15.684 1.5
    vertex 49 20.25 1.5
  endloop
 endfacet
 facet normal -0 0 1
  outer loop
    vertex 49 20.25 1.5
    vertex 44.3794 15.684 1.5
    vertex 44.4696 15.3473 1.5
  endloop
 endfacet
 facet normal -0 0 1
  outer loop
    vertex 49 20.25 1.5
    vertex 44.4696 15.3473 1.5
    vertex 49 -20.25 1.5
  endloop
 endfacet
 facet normal 0 0 1
  outer loop
    vertex 49 -20.25 1.5
    vertex 44.4696 15.3473 1.5
    vertex 44.5 15 1.5
  endloop
 endfacet
 facet normal 0 0 1
  outer loop
    vertex 49 -20.25 1.5
    vertex 44.5 15 1.5
    vertex 44.5 -15 1.5
  endloop
 endfacet
 facet normal -0 0 1
  outer loop
    vertex 44.0321 -16.2856 1.5
    vertex 43.7856 -16.5321 1.5
    vertex 49 -20.25 1.5
  endloop
 endfacet
 facet normal 0 0 1
  outer loop
    vertex 49 -20.25 1.5
    vertex 43.7856 -16.5321 1.5
    vertex 43.5 -16.7321 1.5
  endloop
 endfacet
 facet normal 0 0 1
  outer loop
    vertex 49 -20.25 1.5
    vertex 43.5 -16.7321 1.5
    vertex 43.184 -16.8794 1.5
  endloop
 endfacet
 facet normal 0 0 1
  outer loop
    vertex -43.184 -16.8794 1.5
    vertex -43.5 -16.7321 1.5
    vertex -49 -20.25 1.5
  endloop
 endfacet
 facet normal 0 0 1
  outer loop
    vertex -49 -20.25 1.5
    vertex -43.5 -16.7321 1.5
    vertex -43.7856 -16.5321 1.5
  endloop
 endfacet
 facet normal 0 0 1
  outer loop
    vertex -49 -20.25 1.5
    vertex -43.7856 -16.5321 1.5
    vertex -44.0321 -16.2856 1.5
  endloop
 endfacet
 facet normal 0 0 1
  outer loop
    vertex -44.0321 16.2856 1.5
    vertex -43.7856 16.5321 1.5
    vertex -49 20.25 1.5
  endloop
 endfacet
 facet normal 0 -0 1
  outer loop
    vertex -49 20.25 1.5
    vertex -43.7856 16.5321 1.5
    vertex -43.5 16.7321 1.5
  endloop
 endfacet
 facet normal 0 -0 1
  outer loop
    vertex -49 20.25 1.5
    vertex -43.5 16.7321 1.5
    vertex -43.184 16.8794 1.5
  endloop
 endfacet
 facet normal 0 0 1
  outer loop
    vertex -51 24.5981 1.5
    vertex -51.4283 24.2981 1.5
    vertex -50.526 24.8191 1.5
  endloop
 endfacet
 facet normal -0 0 1
  outer loop
    vertex -50.526 24.8191 1.5
    vertex -51.4283 24.2981 1.5
    vertex -49 21.75 1.5
  endloop
 endfacet
 facet normal 0 0 1
  outer loop
    vertex -50.526 24.8191 1.5
    vertex -49 21.75 1.5
    vertex -50.0209 24.9544 1.5
  endloop
 endfacet
 facet normal 0 0 1
  outer loop
    vertex -50.0209 24.9544 1.5
    vertex -49 21.75 1.5
    vertex -49.5 25 1.5
  endloop
 endfacet
 facet normal 0 -0 1
  outer loop
    vertex 42.8473 16.9696 1.5
    vertex 43.184 16.8794 1.5
    vertex 49 20.25 1.5
  endloop
 endfacet
 facet normal -0 0 1
  outer loop
    vertex 49 20.25 1.5
    vertex 43.184 16.8794 1.5
    vertex 43.5 16.7321 1.5
  endloop
 endfacet
 facet normal -0 0 1
  outer loop
    vertex 49 20.25 1.5
    vertex 43.5 16.7321 1.5
    vertex 43.7856 16.5321 1.5
  endloop
 endfacet
 facet normal 0 0 1
  outer loop
    vertex -43.184 16.8794 1.5
    vertex -42.8473 16.9696 1.5
    vertex -49 20.25 1.5
  endloop
 endfacet
 facet normal 0 -0 1
  outer loop
    vertex -49 20.25 1.5
    vertex -42.8473 16.9696 1.5
    vertex -42.5 17 1.5
  endloop
 endfacet
 facet normal 0 -0 1
  outer loop
    vertex -49 20.25 1.5
    vertex -42.5 17 1.5
    vertex 49 20.25 1.5
  endloop
 endfacet
 facet normal 0 0 1
  outer loop
    vertex 49 20.25 1.5
    vertex -42.5 17 1.5
    vertex 42.5 17 1.5
  endloop
 endfacet
 facet normal -0 0 1
  outer loop
    vertex 49 20.25 1.5
    vertex 42.5 17 1.5
    vertex 42.8473 16.9696 1.5
  endloop
 endfacet
 facet normal -0 0 1
  outer loop
    vertex 43.184 -16.8794 1.5
    vertex 42.8473 -16.9696 1.5
    vertex 49 -20.25 1.5
  endloop
 endfacet
 facet normal 0 0 1
  outer loop
    vertex 49 -20.25 1.5
    vertex 42.8473 -16.9696 1.5
    vertex 42.5 -17 1.5
  endloop
 endfacet
 facet normal 0 0 1
  outer loop
    vertex 49 -20.25 1.5
    vertex 42.5 -17 1.5
    vertex -49 -20.25 1.5
  endloop
 endfacet
 facet normal 0 0 1
  outer loop
    vertex -49 -20.25 1.5
    vertex 42.5 -17 1.5
    vertex -42.5 -17 1.5
  endloop
 endfacet
 facet normal 0 0 1
  outer loop
    vertex -49 -20.25 1.5
    vertex -42.5 -17 1.5
    vertex -42.8473 -16.9696 1.5
  endloop
 endfacet
 facet normal 0 0 -1
  outer loop
    vertex -51.927 -23.7634 0
    vertex -52.173 -23.362 0
    vertex -44.0321 -16.2856 0
  endloop
 endfacet
 facet normal 0 0 -1
  outer loop
    vertex -44.3794 15.684 0
    vertex -52.5 22 0
    vertex -44.232 16 0
  endloop
 endfacet
 facet normal 0 0 -1
  outer loop
    vertex -44.232 16 0
    vertex -52.5 22 0
    vertex -52.4544 22.5209 0
  endloop
 endfacet
 facet normal 0 0 -1
  outer loop
    vertex -44.232 16 0
    vertex -52.4544 22.5209 0
    vertex -44.0321 16.2856 0
  endloop
 endfacet
 facet normal 0 0 -1
  outer loop
    vertex -44.0321 16.2856 0
    vertex -52.4544 22.5209 0
    vertex -52.3191 23.0261 0
  endloop
 endfacet
 facet normal 0 0 -1
  outer loop
    vertex -44.0321 16.2856 0
    vertex -52.3191 23.0261 0
    vertex -43.7856 16.5321 0
  endloop
 endfacet
 facet normal 0 0 -1
  outer loop
    vertex -44.3794 15.684 0
    vertex -44.4696 15.3473 0
    vertex -52.5 22 0
  endloop
 endfacet
 facet normal -0 0 -1
  outer loop
    vertex -52.5 22 0
    vertex -44.4696 15.3473 0
    vertex -44.5 15 0
  endloop
 endfacet
 facet normal -0 0 -1
  outer loop
    vertex -52.5 22 0
    vertex -44.5 15 0
    vertex -52.5 -22 0
  endloop
 endfacet
 facet normal 0 -0 -1
  outer loop
    vertex -52.5 -22 0
    vertex -44.5 15 0
    vertex -44.5 -15 0
  endloop
 endfacet
 facet normal 0 -0 -1
  outer loop
    vertex -52.5 -22 0
    vertex -44.5 -15 0
    vertex -44.4696 -15.3473 0
  endloop
 endfacet
 facet normal 0 0 -1
  outer loop
    vertex 43.184 16.8794 0
    vertex 49.5 25 0
    vertex 43.5 16.7321 0
  endloop
 endfacet
 facet normal 0 -0 -1
  outer loop
    vertex 43.5 16.7321 0
    vertex 49.5 25 0
    vertex 50.0209 24.9544 0
  endloop
 endfacet
 facet normal 0 0 -1
  outer loop
    vertex 43.5 16.7321 0
    vertex 50.0209 24.9544 0
    vertex 43.7856 16.5321 0
  endloop
 endfacet
 facet normal 0 -0 -1
  outer loop
    vertex -52.3191 23.0261 0
    vertex -52.0981 23.5 0
    vertex -43.7856 16.5321 0
  endloop
 endfacet
 facet normal 0 0 -1
  outer loop
    vertex -43.7856 16.5321 0
    vertex -52.0981 23.5 0
    vertex -51.7981 23.9284 0
  endloop
 endfacet
 facet normal 0 0 -1
  outer loop
    vertex -43.7856 16.5321 0
    vertex -51.7981 23.9284 0
    vertex -51.4283 24.2981 0
  endloop
 endfacet
 facet normal 0 0 -1
  outer loop
    vertex -42.8473 16.9696 0
    vertex -43.184 16.8794 0
    vertex -49.5 25 0
  endloop
 endfacet
 facet normal -0 0 -1
  outer loop
    vertex -49.5 25 0
    vertex -43.184 16.8794 0
    vertex -43.5 16.7321 0
  endloop
 endfacet
 facet normal 0 0 -1
  outer loop
    vertex -49.5 25 0
    vertex -43.5 16.7321 0
    vertex -50.0209 24.9544 0
  endloop
 endfacet
 facet normal -0 0 -1
  outer loop
    vertex -50.0209 24.9544 0
    vertex -43.5 16.7321 0
    vertex -43.7856 16.5321 0
  endloop
 endfacet
 facet normal 0 0 -1
  outer loop
    vertex -50.0209 24.9544 0
    vertex -43.7856 16.5321 0
    vertex -50.526 24.8191 0
  endloop
 endfacet
 facet normal 0 0 -1
  outer loop
    vertex -50.526 24.8191 0
    vertex -43.7856 16.5321 0
    vertex -51.4283 24.2981 0
  endloop
 endfacet
 facet normal 0 0 -1
  outer loop
    vertex -50.526 24.8191 0
    vertex -51.4283 24.2981 0
    vertex -51 24.5981 0
  endloop
 endfacet
 facet normal -0 0 -1
  outer loop
    vertex -43.5 -16.7321 0
    vertex -43.184 -16.8794 0
    vertex -49.5 -25 0
  endloop
 endfacet
 facet normal 0 0 -1
  outer loop
    vertex 44.4696 15.3473 0
    vertex 44.3794 15.684 0
    vertex 52.5 22 0
  endloop
 endfacet
 facet normal 0 0 -1
  outer loop
    vertex 52.5 22 0
    vertex 44.3794 15.684 0
    vertex 44.232 16 0
  endloop
 endfacet
 facet normal 0 0 -1
  outer loop
    vertex 52.5 22 0
    vertex 44.232 16 0
    vertex 52.4544 22.5209 0
  endloop
 endfacet
 facet normal 0 0 -1
  outer loop
    vertex 52.4544 22.5209 0
    vertex 44.232 16 0
    vertex 44.0321 16.2856 0
  endloop
 endfacet
 facet normal 0 0 -1
  outer loop
    vertex 52.4544 22.5209 0
    vertex 44.0321 16.2856 0
    vertex 52.3191 23.0261 0
  endloop
 endfacet
 facet normal 0 0 -1
  outer loop
    vertex 52.3191 23.0261 0
    vertex 44.0321 16.2856 0
    vertex 52.0981 23.5 0
  endloop
 endfacet
 facet normal 0 0 -1
  outer loop
    vertex 51.7981 23.9284 0
    vertex 52.0981 23.5 0
    vertex 51.4284 24.2981 0
  endloop
 endfacet
 facet normal -0 0 -1
  outer loop
    vertex 51.4284 24.2981 0
    vertex 52.0981 23.5 0
    vertex 44.0321 16.2856 0
  endloop
 endfacet
 facet normal 0 0 -1
  outer loop
    vertex 51.4284 24.2981 0
    vertex 44.0321 16.2856 0
    vertex 51 24.5981 0
  endloop
 endfacet
 facet normal 0 0 -1
  outer loop
    vertex 51 24.5981 0
    vertex 44.0321 16.2856 0
    vertex 43.7856 16.5321 0
  endloop
 endfacet
 facet normal 0 0 -1
  outer loop
    vertex 51 24.5981 0
    vertex 43.7856 16.5321 0
    vertex 50.5261 24.8191 0
  endloop
 endfacet
 facet normal 0 0 -1
  outer loop
    vertex 50.5261 24.8191 0
    vertex 43.7856 16.5321 0
    vertex 50.0209 24.9544 0
  endloop
 endfacet
 facet normal 0 0 -1
  outer loop
    vertex 52.4631 -22.4693 0
    vertex 44.0321 -16.2856 0
    vertex 52.5 -22 0
  endloop
 endfacet
 facet normal 0 0 -1
  outer loop
    vertex 52.5 -22 0
    vertex 44.0321 -16.2856 0
    vertex 44.232 -16 0
  endloop
 endfacet
 facet normal 0 0 -1
  outer loop
    vertex 52.5 -22 0
    vertex 44.232 -16 0
    vertex 44.3794 -15.684 0
  endloop
 endfacet
 facet normal 0 0 -1
  outer loop
    vertex 43.184 16.8794 0
    vertex 42.8473 16.9696 0
    vertex 49.5 25 0
  endloop
 endfacet
 facet normal 0 0 -1
  outer loop
    vertex 49.5 25 0
    vertex 42.8473 16.9696 0
    vertex 42.5 17 0
  endloop
 endfacet
 facet normal 0 0 -1
  outer loop
    vertex 49.5 25 0
    vertex 42.5 17 0
    vertex -49.5 25 0
  endloop
 endfacet
 facet normal 0 0 -1
  outer loop
    vertex -49.5 25 0
    vertex 42.5 17 0
    vertex -42.5 17 0
  endloop
 endfacet
 facet normal -0 0 -1
  outer loop
    vertex -49.5 25 0
    vertex -42.5 17 0
    vertex -42.8473 16.9696 0
  endloop
 endfacet
 facet normal -0 0 -1
  outer loop
    vertex -44.4696 -15.3473 0
    vertex -44.3794 -15.684 0
    vertex -52.5 -22 0
  endloop
 endfacet
 facet normal 0 -0 -1
  outer loop
    vertex -52.5 -22 0
    vertex -44.3794 -15.684 0
    vertex -44.232 -16 0
  endloop
 endfacet
 facet normal 0 0 -1
  outer loop
    vertex -52.5 -22 0
    vertex -44.232 -16 0
    vertex -52.4631 -22.4693 0
  endloop
 endfacet
 facet normal 0 -0 -1
  outer loop
    vertex -52.4631 -22.4693 0
    vertex -44.232 -16 0
    vertex -44.0321 -16.2856 0
  endloop
 endfacet
 facet normal 0 0 -1
  outer loop
    vertex -52.4631 -22.4693 0
    vertex -44.0321 -16.2856 0
    vertex -52.3532 -22.9271 0
  endloop
 endfacet
 facet normal 0 0 -1
  outer loop
    vertex -52.3532 -22.9271 0
    vertex -44.0321 -16.2856 0
    vertex -52.173 -23.362 0
  endloop
 endfacet
 facet normal 0 0 -1
  outer loop
    vertex -51.6213 -24.1213 0
    vertex -51.927 -23.7634 0
    vertex -51.2633 -24.4271 0
  endloop
 endfacet
 facet normal 0 0 -1
  outer loop
    vertex -51.2633 -24.4271 0
    vertex -51.927 -23.7634 0
    vertex -44.0321 -16.2856 0
  endloop
 endfacet
 facet normal 0 0 -1
  outer loop
    vertex -51.2633 -24.4271 0
    vertex -44.0321 -16.2856 0
    vertex -50.862 -24.673 0
  endloop
 endfacet
 facet normal 0 -0 -1
  outer loop
    vertex -50.862 -24.673 0
    vertex -44.0321 -16.2856 0
    vertex -43.7856 -16.5321 0
  endloop
 endfacet
 facet normal 0 0 -1
  outer loop
    vertex -50.862 -24.673 0
    vertex -43.7856 -16.5321 0
    vertex -50.427 -24.8532 0
  endloop
 endfacet
 facet normal 0 -0 -1
  outer loop
    vertex -50.427 -24.8532 0
    vertex -43.7856 -16.5321 0
    vertex -43.5 -16.7321 0
  endloop
 endfacet
 facet normal 0 0 -1
  outer loop
    vertex -50.427 -24.8532 0
    vertex -43.5 -16.7321 0
    vertex -49.9693 -24.9631 0
  endloop
 endfacet
 facet normal 0 0 -1
  outer loop
    vertex -49.9693 -24.9631 0
    vertex -43.5 -16.7321 0
    vertex -49.5 -25 0
  endloop
 endfacet
 facet normal 0 0 -1
  outer loop
    vertex 50.862 -24.673 0
    vertex 43.7856 -16.5321 0
    vertex 51.2633 -24.4271 0
  endloop
 endfacet
 facet normal 0 0 -1
  outer loop
    vertex 51.2633 -24.4271 0
    vertex 43.7856 -16.5321 0
    vertex 44.0321 -16.2856 0
  endloop
 endfacet
 facet normal 0 -0 -1
  outer loop
    vertex 42.8473 -16.9696 0
    vertex 43.184 -16.8794 0
    vertex 49.5 -25 0
  endloop
 endfacet
 facet normal 0 0 -1
  outer loop
    vertex 49.5 -25 0
    vertex 43.184 -16.8794 0
    vertex 43.5 -16.7321 0
  endloop
 endfacet
 facet normal 0 0 -1
  outer loop
    vertex 49.5 -25 0
    vertex 43.5 -16.7321 0
    vertex 49.9693 -24.9631 0
  endloop
 endfacet
 facet normal 0 0 -1
  outer loop
    vertex 49.9693 -24.9631 0
    vertex 43.5 -16.7321 0
    vertex 43.7856 -16.5321 0
  endloop
 endfacet
 facet normal 0 0 -1
  outer loop
    vertex 49.9693 -24.9631 0
    vertex 43.7856 -16.5321 0
    vertex 50.427 -24.8532 0
  endloop
 endfacet
 facet normal 0 0 -1
  outer loop
    vertex 50.427 -24.8532 0
    vertex 43.7856 -16.5321 0
    vertex 50.862 -24.673 0
  endloop
 endfacet
 facet normal 0 0 -1
  outer loop
    vertex 51.6213 -24.1213 0
    vertex 51.2633 -24.4271 0
    vertex 51.927 -23.7634 0
  endloop
 endfacet
 facet normal 0 0 -1
  outer loop
    vertex 51.927 -23.7634 0
    vertex 51.2633 -24.4271 0
    vertex 44.0321 -16.2856 0
  endloop
 endfacet
 facet normal 0 0 -1
  outer loop
    vertex 51.927 -23.7634 0
    vertex 44.0321 -16.2856 0
    vertex 52.173 -23.362 0
  endloop
 endfacet
 facet normal 0 0 -1
  outer loop
    vertex 52.173 -23.362 0
    vertex 44.0321 -16.2856 0
    vertex 52.4631 -22.4693 0
  endloop
 endfacet
 facet normal 0 0 -1
  outer loop
    vertex 52.173 -23.362 0
    vertex 52.4631 -22.4693 0
    vertex 52.3532 -22.9271 0
  endloop
 endfacet
 facet normal 0 -0 -1
  outer loop
    vertex 44.3794 -15.684 0
    vertex 44.4696 -15.3473 0
    vertex 52.5 -22 0
  endloop
 endfacet
 facet normal 0 0 -1
  outer loop
    vertex 52.5 -22 0
    vertex 44.4696 -15.3473 0
    vertex 44.5 -15 0
  endloop
 endfacet
 facet normal 0 0 -1
  outer loop
    vertex 52.5 -22 0
    vertex 44.5 -15 0
    vertex 52.5 22 0
  endloop
 endfacet
 facet normal 0 0 -1
  outer loop
    vertex 52.5 22 0
    vertex 44.5 -15 0
    vertex 44.5 15 0
  endloop
 endfacet
 facet normal 0 0 -1
  outer loop
    vertex 52.5 22 0
    vertex 44.5 15 0
    vertex 44.4696 15.3473 0
  endloop
 endfacet
 facet normal -0 0 -1
  outer loop
    vertex -43.184 -16.8794 0
    vertex -42.8473 -16.9696 0
    vertex -49.5 -25 0
  endloop
 endfacet
 facet normal 0 -0 -1
  outer loop
    vertex -49.5 -25 0
    vertex -42.8473 -16.9696 0
    vertex -42.5 -17 0
  endloop
 endfacet
 facet normal 0 -0 -1
  outer loop
    vertex -49.5 -25 0
    vertex -42.5 -17 0
    vertex 49.5 -25 0
  endloop
 endfacet
 facet normal 0 0 -1
  outer loop
    vertex 49.5 -25 0
    vertex -42.5 -17 0
    vertex 42.5 -17 0
  endloop
 endfacet
 facet normal 0 0 -1
  outer loop
    vertex 49.5 -25 0
    vertex 42.5 -17 0
    vertex 42.8473 -16.9696 0
  endloop
 endfacet
 facet normal 1 -0 0
  outer loop
    vertex 52.5 22 1.5
    vertex 52.5 -22 1.5
    vertex 52.5 22 0
  endloop
 endfacet
 facet normal 1 0 0
  outer loop
    vertex 52.5 22 0
    vertex 52.5 -22 1.5
    vertex 52.5 -22 0
  endloop
 endfacet
 facet normal 0 -1 0
  outer loop
    vertex 49.5 -25 1.5
    vertex -49.5 -25 1.5
    vertex 49.5 -25 0
  endloop
 endfacet
 facet normal 0 -1 0
  outer loop
    vertex 49.5 -25 0
    vertex -49.5 -25 1.5
    vertex -49.5 -25 0
  endloop
 endfacet
 facet normal -1 -0 0
  outer loop
    vertex -52.5 -22 1.5
    vertex -52.5 22 1.5
    vertex -52.5 -22 0
  endloop
 endfacet
 facet normal -1 0 -0
  outer loop
    vertex -52.5 -22 0
    vertex -52.5 22 1.5
    vertex -52.5 22 0
  endloop
 endfacet
 facet normal 0 1 0
  outer loop
    vertex 49.5 25 0
    vertex -49.5 25 0
    vertex 49.5 25 1.5
  endloop
 endfacet
 facet normal 0 1 0
  outer loop
    vertex 49.5 25 1.5
    vertex -49.5 25 0
    vertex -49.5 25 1.5
  endloop
 endfacet
 facet normal -1 -0 0
  outer loop
    vertex 44.5 -15 1.5
    vertex 44.5 15 1.5
    vertex 44.5 -15 0
  endloop
 endfacet
 facet normal -1 0 -0
  outer loop
    vertex 44.5 -15 0
    vertex 44.5 15 1.5
    vertex 44.5 15 0
  endloop
 endfacet
 facet normal 0 1 0
  outer loop
    vertex -42.5 -17 1.5
    vertex 42.5 -17 1.5
    vertex -42.5 -17 0
  endloop
 endfacet
 facet normal 0 1 0
  outer loop
    vertex -42.5 -17 0
    vertex 42.5 -17 1.5
    vertex 42.5 -17 0
  endloop
 endfacet
 facet normal 1 0 0
  outer loop
    vertex -44.5 -15 0
    vertex -44.5 15 0
    vertex -44.5 -15 1.5
  endloop
 endfacet
 facet normal 1 0 -0
  outer loop
    vertex -44.5 -15 1.5
    vertex -44.5 15 0
    vertex -44.5 15 1.5
  endloop
 endfacet
 facet normal 0 -1 0
  outer loop
    vertex 42.5 17 1.5
    vertex -42.5 17 1.5
    vertex 42.5 17 0
  endloop
 endfacet
 facet normal 0 -1 0
  outer loop
    vertex 42.5 17 0
    vertex -42.5 17 1.5
    vertex -42.5 17 0
  endloop
 endfacet
 facet normal -1 -0 0
  outer loop
    vertex -49 20.25 4
    vertex -49 21.75 4
    vertex -49 20.25 1.5
  endloop
 endfacet
 facet normal -1 0 -0
  outer loop
    vertex -49 20.25 1.5
    vertex -49 21.75 4
    vertex -49 21.75 1.5
  endloop
 endfacet
 facet normal 0 -1 0
  outer loop
    vertex 49 20.25 4
    vertex -49 20.25 4
    vertex 49 20.25 1.5
  endloop
 endfacet
 facet normal 0 -1 0
  outer loop
    vertex 49 20.25 1.5
    vertex -49 20.25 4
    vertex -49 20.25 1.5
  endloop
 endfacet
 facet normal 1 -0 0
  outer loop
    vertex 49 21.75 4
    vertex 49 20.25 4
    vertex 49 21.75 1.5
  endloop
 endfacet
 facet normal 1 0 0
  outer loop
    vertex 49 21.75 1.5
    vertex 49 20.25 4
    vertex 49 20.25 1.5
  endloop
 endfacet
 facet normal 0 1 0
  outer loop
    vertex -49 21.75 4
    vertex 49 21.75 4
    vertex -49 21.75 1.5
  endloop
 endfacet
 facet normal 0 1 0
  outer loop
    vertex -49 21.75 1.5
    vertex 49 21.75 4
    vertex 49 21.75 1.5
  endloop
 endfacet
 facet normal 0 0 1
  outer loop
    vertex 49 20.25 4
    vertex 49 21.75 4
    vertex -49 20.25 4
  endloop
 endfacet
 facet normal 0 0 1
  outer loop
    vertex -49 20.25 4
    vertex 49 21.75 4
    vertex -49 21.75 4
  endloop
 endfacet
 facet normal -1 -0 0
  outer loop
    vertex -49 -21.75 4
    vertex -49 -20.25 4
    vertex -49 -21.75 1.5
  endloop
 endfacet
 facet normal -1 0 -0
  outer loop
    vertex -49 -21.75 1.5
    vertex -49 -20.25 4
    vertex -49 -20.25 1.5
  endloop
 endfacet
 facet normal 0 -1 0
  outer loop
    vertex 49 -21.75 4
    vertex -49 -21.75 4
    vertex 49 -21.75 1.5
  endloop
 endfacet
 facet normal 0 -1 0
  outer loop
    vertex 49 -21.75 1.5
    vertex -49 -21.75 4
    vertex -49 -21.75 1.5
  endloop
 endfacet
 facet normal 1 -0 0
  outer loop
    vertex 49 -20.25 4
    vertex 49 -21.75 4
    vertex 49 -20.25 1.5
  endloop
 endfacet
 facet normal 1 0 0
  outer loop
    vertex 49 -20.25 1.5
    vertex 49 -21.75 4
    vertex 49 -21.75 1.5
  endloop
 endfacet
 facet normal 0 1 0
  outer loop
    vertex -49 -20.25 4
    vertex 49 -20.25 4
    vertex -49 -20.25 1.5
  endloop
 endfacet
 facet normal 0 1 0
  outer loop
    vertex -49 -20.25 1.5
    vertex 49 -20.25 4
    vertex 49 -20.25 1.5
  endloop
 endfacet
 facet normal 0 0 1
  outer loop
    vertex 49 -21.75 4
    vertex 49 -20.25 4
    vertex -49 -21.75 4
  endloop
 endfacet
 facet normal 0 0 1
  outer loop
    vertex -49 -21.75 4
    vertex 49 -20.25 4
    vertex -49 -20.25 4
  endloop
 endfacet
 facet normal 0.0871584 0.996194 0
  outer loop
    vertex 49.5 25 0
    vertex 49.5 25 1.5
    vertex 50.0209 24.9544 1.5
  endloop
 endfacet
 facet normal 0.0871584 0.996194 0
  outer loop
    vertex 49.5 25 0
    vertex 50.0209 24.9544 1.5
    vertex 50.0209 24.9544 0
  endloop
 endfacet
 facet normal 0.258818 0.965926 0
  outer loop
    vertex 50.0209 24.9544 0
    vertex 50.0209 24.9544 1.5
    vertex 50.5261 24.8191 1.5
  endloop
 endfacet
 facet normal 0.258818 0.965926 0
  outer loop
    vertex 50.0209 24.9544 0
    vertex 50.5261 24.8191 1.5
    vertex 50.5261 24.8191 0
  endloop
 endfacet
 facet normal 0.422618 0.906308 0
  outer loop
    vertex 50.5261 24.8191 0
    vertex 50.5261 24.8191 1.5
    vertex 51 24.5981 1.5
  endloop
 endfacet
 facet normal 0.422618 0.906308 0
  outer loop
    vertex 50.5261 24.8191 0
    vertex 51 24.5981 1.5
    vertex 51 24.5981 0
  endloop
 endfacet
 facet normal 0.573574 0.819153 0
  outer loop
    vertex 51 24.5981 0
    vertex 51 24.5981 1.5
    vertex 51.4284 24.2981 1.5
  endloop
 endfacet
 facet normal 0.573574 0.819153 0
  outer loop
    vertex 51 24.5981 0
    vertex 51.4284 24.2981 1.5
    vertex 51.4284 24.2981 0
  endloop
 endfacet
 facet normal 0.707114 0.707099 0
  outer loop
    vertex 51.4284 24.2981 0
    vertex 51.4284 24.2981 1.5
    vertex 51.7981 23.9284 1.5
  endloop
 endfacet
 facet normal 0.707114 0.707099 0
  outer loop
    vertex 51.4284 24.2981 0
    vertex 51.7981 23.9284 1.5
    vertex 51.7981 23.9284 0
  endloop
 endfacet
 facet normal 0.819148 0.573583 0
  outer loop
    vertex 51.7981 23.9284 0
    vertex 51.7981 23.9284 1.5
    vertex 52.0981 23.5 1.5
  endloop
 endfacet
 facet normal 0.819148 0.573583 0
  outer loop
    vertex 51.7981 23.9284 0
    vertex 52.0981 23.5 1.5
    vertex 52.0981 23.5 0
  endloop
 endfacet
 facet normal 0.906312 0.422609 0
  outer loop
    vertex 52.0981 23.5 0
    vertex 52.0981 23.5 1.5
    vertex 52.3191 23.0261 1.5
  endloop
 endfacet
 facet normal 0.906312 0.422609 0
  outer loop
    vertex 52.0981 23.5 0
    vertex 52.3191 23.0261 1.5
    vertex 52.3191 23.0261 0
  endloop
 endfacet
 facet normal 0.965924 0.258826 0
  outer loop
    vertex 52.3191 23.0261 0
    vertex 52.3191 23.0261 1.5
    vertex 52.4544 22.5209 1.5
  endloop
 endfacet
 facet normal 0.965924 0.258826 0
  outer loop
    vertex 52.3191 23.0261 0
    vertex 52.4544 22.5209 1.5
    vertex 52.4544 22.5209 0
  endloop
 endfacet
 facet normal 0.996195 0.0871512 0
  outer loop
    vertex 52.4544 22.5209 0
    vertex 52.4544 22.5209 1.5
    vertex 52.5 22 1.5
  endloop
 endfacet
 facet normal 0.996195 0.0871512 0
  outer loop
    vertex 52.4544 22.5209 0
    vertex 52.5 22 1.5
    vertex 52.5 22 0
  endloop
 endfacet
 facet normal 0.996917 -0.0784569 0
  outer loop
    vertex 52.5 -22 0
    vertex 52.5 -22 1.5
    vertex 52.4631 -22.4693 1.5
  endloop
 endfacet
 facet normal 0.996917 -0.0784569 0
  outer loop
    vertex 52.5 -22 0
    vertex 52.4631 -22.4693 1.5
    vertex 52.4631 -22.4693 0
  endloop
 endfacet
 facet normal 0.972371 -0.233442 0
  outer loop
    vertex 52.4631 -22.4693 0
    vertex 52.4631 -22.4693 1.5
    vertex 52.3532 -22.9271 1.5
  endloop
 endfacet
 facet normal 0.972371 -0.233442 0
  outer loop
    vertex 52.4631 -22.4693 0
    vertex 52.3532 -22.9271 1.5
    vertex 52.3532 -22.9271 0
  endloop
 endfacet
 facet normal 0.92388 -0.382683 0
  outer loop
    vertex 52.3532 -22.9271 0
    vertex 52.3532 -22.9271 1.5
    vertex 52.173 -23.362 1.5
  endloop
 endfacet
 facet normal 0.92388 -0.382683 0
  outer loop
    vertex 52.3532 -22.9271 0
    vertex 52.173 -23.362 1.5
    vertex 52.173 -23.362 0
  endloop
 endfacet
 facet normal 0.852645 -0.522491 0
  outer loop
    vertex 52.173 -23.362 0
    vertex 52.173 -23.362 1.5
    vertex 51.927 -23.7634 1.5
  endloop
 endfacet
 facet normal 0.852645 -0.522491 0
  outer loop
    vertex 52.173 -23.362 0
    vertex 51.927 -23.7634 1.5
    vertex 51.927 -23.7634 0
  endloop
 endfacet
 facet normal 0.760401 -0.649454 0
  outer loop
    vertex 51.927 -23.7634 0
    vertex 51.927 -23.7634 1.5
    vertex 51.6213 -24.1213 1.5
  endloop
 endfacet
 facet normal 0.760401 -0.649454 0
  outer loop
    vertex 51.927 -23.7634 0
    vertex 51.6213 -24.1213 1.5
    vertex 51.6213 -24.1213 0
  endloop
 endfacet
 facet normal 0.649449 -0.760405 0
  outer loop
    vertex 51.6213 -24.1213 0
    vertex 51.6213 -24.1213 1.5
    vertex 51.2633 -24.4271 1.5
  endloop
 endfacet
 facet normal 0.649449 -0.760405 0
  outer loop
    vertex 51.6213 -24.1213 0
    vertex 51.2633 -24.4271 1.5
    vertex 51.2633 -24.4271 0
  endloop
 endfacet
 facet normal 0.522499 -0.85264 0
  outer loop
    vertex 51.2633 -24.4271 0
    vertex 51.2633 -24.4271 1.5
    vertex 50.862 -24.673 1.5
  endloop
 endfacet
 facet normal 0.522499 -0.85264 0
  outer loop
    vertex 51.2633 -24.4271 0
    vertex 50.862 -24.673 1.5
    vertex 50.862 -24.673 0
  endloop
 endfacet
 facet normal 0.382685 -0.923879 0
  outer loop
    vertex 50.862 -24.673 0
    vertex 50.862 -24.673 1.5
    vertex 50.427 -24.8532 1.5
  endloop
 endfacet
 facet normal 0.382685 -0.923879 0
  outer loop
    vertex 50.862 -24.673 0
    vertex 50.427 -24.8532 1.5
    vertex 50.427 -24.8532 0
  endloop
 endfacet
 facet normal 0.233442 -0.972371 0
  outer loop
    vertex 50.427 -24.8532 0
    vertex 50.427 -24.8532 1.5
    vertex 49.9693 -24.9631 1.5
  endloop
 endfacet
 facet normal 0.233442 -0.972371 0
  outer loop
    vertex 50.427 -24.8532 0
    vertex 49.9693 -24.9631 1.5
    vertex 49.9693 -24.9631 0
  endloop
 endfacet
 facet normal 0.0784609 -0.996917 0
  outer loop
    vertex 49.9693 -24.9631 0
    vertex 49.9693 -24.9631 1.5
    vertex 49.5 -25 1.5
  endloop
 endfacet
 facet normal 0.0784609 -0.996917 0
  outer loop
    vertex 49.9693 -24.9631 0
    vertex 49.5 -25 1.5
    vertex 49.5 -25 0
  endloop
 endfacet
 facet normal -0.0784615 -0.996917 -0
  outer loop
    vertex -49.5 -25 0
    vertex -49.5 -25 1.5
    vertex -49.9693 -24.9631 1.5
  endloop
 endfacet
 facet normal -0.0784615 -0.996917 -0
  outer loop
    vertex -49.5 -25 0
    vertex -49.9693 -24.9631 1.5
    vertex -49.9693 -24.9631 0
  endloop
 endfacet
 facet normal -0.233442 -0.972371 -0
  outer loop
    vertex -49.9693 -24.9631 0
    vertex -49.9693 -24.9631 1.5
    vertex -50.427 -24.8532 1.5
  endloop
 endfacet
 facet normal -0.233442 -0.972371 -0
  outer loop
    vertex -49.9693 -24.9631 0
    vertex -50.427 -24.8532 1.5
    vertex -50.427 -24.8532 0
  endloop
 endfacet
 facet normal -0.382685 -0.923879 -0
  outer loop
    vertex -50.427 -24.8532 0
    vertex -50.427 -24.8532 1.5
    vertex -50.862 -24.673 1.5
  endloop
 endfacet
 facet normal -0.382685 -0.923879 -0
  outer loop
    vertex -50.427 -24.8532 0
    vertex -50.862 -24.673 1.5
    vertex -50.862 -24.673 0
  endloop
 endfacet
 facet normal -0.522499 -0.85264 -0
  outer loop
    vertex -50.862 -24.673 0
    vertex -50.862 -24.673 1.5
    vertex -51.2633 -24.4271 1.5
  endloop
 endfacet
 facet normal -0.522499 -0.85264 -0
  outer loop
    vertex -50.862 -24.673 0
    vertex -51.2633 -24.4271 1.5
    vertex -51.2633 -24.4271 0
  endloop
 endfacet
 facet normal -0.649441 -0.760412 -0
  outer loop
    vertex -51.2633 -24.4271 0
    vertex -51.2633 -24.4271 1.5
    vertex -51.6213 -24.1213 1.5
  endloop
 endfacet
 facet normal -0.649441 -0.760412 -0
  outer loop
    vertex -51.2633 -24.4271 0
    vertex -51.6213 -24.1213 1.5
    vertex -51.6213 -24.1213 0
  endloop
 endfacet
 facet normal -0.760413 -0.64944 -0
  outer loop
    vertex -51.6213 -24.1213 0
    vertex -51.6213 -24.1213 1.5
    vertex -51.927 -23.7634 1.5
  endloop
 endfacet
 facet normal -0.760413 -0.64944 -0
  outer loop
    vertex -51.6213 -24.1213 0
    vertex -51.927 -23.7634 1.5
    vertex -51.927 -23.7634 0
  endloop
 endfacet
 facet normal -0.852645 -0.522491 -0
  outer loop
    vertex -51.927 -23.7634 0
    vertex -51.927 -23.7634 1.5
    vertex -52.173 -23.362 1.5
  endloop
 endfacet
 facet normal -0.852645 -0.522491 -0
  outer loop
    vertex -51.927 -23.7634 0
    vertex -52.173 -23.362 1.5
    vertex -52.173 -23.362 0
  endloop
 endfacet
 facet normal -0.923877 -0.38269 -0
  outer loop
    vertex -52.173 -23.362 0
    vertex -52.173 -23.362 1.5
    vertex -52.3532 -22.9271 1.5
  endloop
 endfacet
 facet normal -0.923877 -0.38269 -0
  outer loop
    vertex -52.173 -23.362 0
    vertex -52.3532 -22.9271 1.5
    vertex -52.3532 -22.9271 0
  endloop
 endfacet
 facet normal -0.972367 -0.233457 -0
  outer loop
    vertex -52.3532 -22.9271 0
    vertex -52.3532 -22.9271 1.5
    vertex -52.4631 -22.4693 1.5
  endloop
 endfacet
 facet normal -0.972367 -0.233457 -0
  outer loop
    vertex -52.3532 -22.9271 0
    vertex -52.4631 -22.4693 1.5
    vertex -52.4631 -22.4693 0
  endloop
 endfacet
 facet normal -0.996917 -0.0784569 -0
  outer loop
    vertex -52.4631 -22.4693 0
    vertex -52.4631 -22.4693 1.5
    vertex -52.5 -22 1.5
  endloop
 endfacet
 facet normal -0.996917 -0.0784569 -0
  outer loop
    vertex -52.4631 -22.4693 0
    vertex -52.5 -22 1.5
    vertex -52.5 -22 0
  endloop
 endfacet
 facet normal -0.996194 0.0871584 0
  outer loop
    vertex -52.5 22 0
    vertex -52.5 22 1.5
    vertex -52.4544 22.5209 1.5
  endloop
 endfacet
 facet normal -0.996194 0.0871584 0
  outer loop
    vertex -52.5 22 0
    vertex -52.4544 22.5209 1.5
    vertex -52.4544 22.5209 0
  endloop
 endfacet
 facet normal -0.965926 0.258819 0
  outer loop
    vertex -52.4544 22.5209 0
    vertex -52.4544 22.5209 1.5
    vertex -52.3191 23.0261 1.5
  endloop
 endfacet
 facet normal -0.965926 0.258819 0
  outer loop
    vertex -52.4544 22.5209 0
    vertex -52.3191 23.0261 1.5
    vertex -52.3191 23.0261 0
  endloop
 endfacet
 facet normal -0.906309 0.422615 0
  outer loop
    vertex -52.3191 23.0261 0
    vertex -52.3191 23.0261 1.5
    vertex -52.0981 23.5 1.5
  endloop
 endfacet
 facet normal -0.906309 0.422615 0
  outer loop
    vertex -52.3191 23.0261 0
    vertex -52.0981 23.5 1.5
    vertex -52.0981 23.5 0
  endloop
 endfacet
 facet normal -0.819144 0.573588 0
  outer loop
    vertex -52.0981 23.5 0
    vertex -52.0981 23.5 1.5
    vertex -51.7981 23.9284 1.5
  endloop
 endfacet
 facet normal -0.819144 0.573588 0
  outer loop
    vertex -52.0981 23.5 0
    vertex -51.7981 23.9284 1.5
    vertex -51.7981 23.9284 0
  endloop
 endfacet
 facet normal -0.707114 0.707099 0
  outer loop
    vertex -51.7981 23.9284 0
    vertex -51.7981 23.9284 1.5
    vertex -51.4283 24.2981 1.5
  endloop
 endfacet
 facet normal -0.707114 0.707099 0
  outer loop
    vertex -51.7981 23.9284 0
    vertex -51.4283 24.2981 1.5
    vertex -51.4283 24.2981 0
  endloop
 endfacet
 facet normal -0.573571 0.819156 0
  outer loop
    vertex -51.4283 24.2981 0
    vertex -51.4283 24.2981 1.5
    vertex -51 24.5981 1.5
  endloop
 endfacet
 facet normal -0.573571 0.819156 0
  outer loop
    vertex -51.4283 24.2981 0
    vertex -51 24.5981 1.5
    vertex -51 24.5981 0
  endloop
 endfacet
 facet normal -0.422618 0.906308 0
  outer loop
    vertex -51 24.5981 0
    vertex -51 24.5981 1.5
    vertex -50.526 24.8191 1.5
  endloop
 endfacet
 facet normal -0.422618 0.906308 0
  outer loop
    vertex -51 24.5981 0
    vertex -50.526 24.8191 1.5
    vertex -50.526 24.8191 0
  endloop
 endfacet
 facet normal -0.258821 0.965925 0
  outer loop
    vertex -50.526 24.8191 0
    vertex -50.526 24.8191 1.5
    vertex -50.0209 24.9544 1.5
  endloop
 endfacet
 facet normal -0.258821 0.965925 0
  outer loop
    vertex -50.526 24.8191 0
    vertex -50.0209 24.9544 1.5
    vertex -50.0209 24.9544 0
  endloop
 endfacet
 facet normal -0.0871584 0.996194 0
  outer loop
    vertex -50.0209 24.9544 0
    vertex -50.0209 24.9544 1.5
    vertex -49.5 25 1.5
  endloop
 endfacet
 facet normal -0.0871584 0.996194 0
  outer loop
    vertex -50.0209 24.9544 0
    vertex -49.5 25 1.5
    vertex -49.5 25 0
  endloop
 endfacet
 facet normal 0.0871561 0.996195 -0
  outer loop
    vertex -42.5 -17 1.5
    vertex -42.5 -17 0
    vertex -42.8473 -16.9696 0
  endloop
 endfacet
 facet normal 0.0871561 0.996195 -0
  outer loop
    vertex -42.5 -17 1.5
    vertex -42.8473 -16.9696 0
    vertex -42.8473 -16.9696 1.5
  endloop
 endfacet
 facet normal 0.258819 0.965926 -0
  outer loop
    vertex -42.8473 -16.9696 1.5
    vertex -42.8473 -16.9696 0
    vertex -43.184 -16.8794 0
  endloop
 endfacet
 facet normal 0.258819 0.965926 -0
  outer loop
    vertex -42.8473 -16.9696 1.5
    vertex -43.184 -16.8794 0
    vertex -43.184 -16.8794 1.5
  endloop
 endfacet
 facet normal 0.422611 0.906311 -0
  outer loop
    vertex -43.184 -16.8794 1.5
    vertex -43.184 -16.8794 0
    vertex -43.5 -16.7321 0
  endloop
 endfacet
 facet normal 0.422611 0.906311 -0
  outer loop
    vertex -43.184 -16.8794 1.5
    vertex -43.5 -16.7321 0
    vertex -43.5 -16.7321 1.5
  endloop
 endfacet
 facet normal 0.573577 0.819152 -0
  outer loop
    vertex -43.5 -16.7321 1.5
    vertex -43.5 -16.7321 0
    vertex -43.7856 -16.5321 0
  endloop
 endfacet
 facet normal 0.573577 0.819152 -0
  outer loop
    vertex -43.5 -16.7321 1.5
    vertex -43.7856 -16.5321 0
    vertex -43.7856 -16.5321 1.5
  endloop
 endfacet
 facet normal 0.707118 0.707096 -0
  outer loop
    vertex -43.7856 -16.5321 1.5
    vertex -43.7856 -16.5321 0
    vertex -44.0321 -16.2856 0
  endloop
 endfacet
 facet normal 0.707118 0.707096 -0
  outer loop
    vertex -43.7856 -16.5321 1.5
    vertex -44.0321 -16.2856 0
    vertex -44.0321 -16.2856 1.5
  endloop
 endfacet
 facet normal 0.819147 0.573584 -0
  outer loop
    vertex -44.0321 -16.2856 1.5
    vertex -44.0321 -16.2856 0
    vertex -44.232 -16 0
  endloop
 endfacet
 facet normal 0.819147 0.573584 -0
  outer loop
    vertex -44.0321 -16.2856 1.5
    vertex -44.232 -16 0
    vertex -44.232 -16 1.5
  endloop
 endfacet
 facet normal 0.906311 0.422611 -0
  outer loop
    vertex -44.232 -16 1.5
    vertex -44.232 -16 0
    vertex -44.3794 -15.684 0
  endloop
 endfacet
 facet normal 0.906311 0.422611 -0
  outer loop
    vertex -44.232 -16 1.5
    vertex -44.3794 -15.684 0
    vertex -44.3794 -15.684 1.5
  endloop
 endfacet
 facet normal 0.965924 0.258826 -0
  outer loop
    vertex -44.3794 -15.684 1.5
    vertex -44.3794 -15.684 0
    vertex -44.4696 -15.3473 0
  endloop
 endfacet
 facet normal 0.965924 0.258826 -0
  outer loop
    vertex -44.3794 -15.684 1.5
    vertex -44.4696 -15.3473 0
    vertex -44.4696 -15.3473 1.5
  endloop
 endfacet
 facet normal 0.996196 0.0871438 -0
  outer loop
    vertex -44.4696 -15.3473 1.5
    vertex -44.4696 -15.3473 0
    vertex -44.5 -15 0
  endloop
 endfacet
 facet normal 0.996196 0.0871438 -0
  outer loop
    vertex -44.4696 -15.3473 1.5
    vertex -44.5 -15 0
    vertex -44.5 -15 1.5
  endloop
 endfacet
 facet normal -0.996193 0.0871764 0
  outer loop
    vertex 44.5 -15 1.5
    vertex 44.5 -15 0
    vertex 44.4696 -15.3473 0
  endloop
 endfacet
 facet normal -0.996193 0.0871764 0
  outer loop
    vertex 44.5 -15 1.5
    vertex 44.4696 -15.3473 0
    vertex 44.4696 -15.3473 1.5
  endloop
 endfacet
 facet normal -0.96593 0.258805 0
  outer loop
    vertex 44.4696 -15.3473 1.5
    vertex 44.4696 -15.3473 0
    vertex 44.3794 -15.684 0
  endloop
 endfacet
 facet normal -0.96593 0.258805 0
  outer loop
    vertex 44.4696 -15.3473 1.5
    vertex 44.3794 -15.684 0
    vertex 44.3794 -15.684 1.5
  endloop
 endfacet
 facet normal -0.906307 0.422619 0
  outer loop
    vertex 44.3794 -15.684 1.5
    vertex 44.3794 -15.684 0
    vertex 44.232 -16 0
  endloop
 endfacet
 facet normal -0.906307 0.422619 0
  outer loop
    vertex 44.3794 -15.684 1.5
    vertex 44.232 -16 0
    vertex 44.232 -16 1.5
  endloop
 endfacet
 facet normal -0.819157 0.573569 0
  outer loop
    vertex 44.232 -16 1.5
    vertex 44.232 -16 0
    vertex 44.0321 -16.2856 0
  endloop
 endfacet
 facet normal -0.819157 0.573569 0
  outer loop
    vertex 44.232 -16 1.5
    vertex 44.0321 -16.2856 0
    vertex 44.0321 -16.2856 1.5
  endloop
 endfacet
 facet normal -0.707101 0.707112 0
  outer loop
    vertex 44.0321 -16.2856 1.5
    vertex 44.0321 -16.2856 0
    vertex 43.7856 -16.5321 0
  endloop
 endfacet
 facet normal -0.707101 0.707112 0
  outer loop
    vertex 44.0321 -16.2856 1.5
    vertex 43.7856 -16.5321 0
    vertex 43.7856 -16.5321 1.5
  endloop
 endfacet
 facet normal -0.573577 0.819152 0
  outer loop
    vertex 43.7856 -16.5321 1.5
    vertex 43.7856 -16.5321 0
    vertex 43.5 -16.7321 0
  endloop
 endfacet
 facet normal -0.573577 0.819152 0
  outer loop
    vertex 43.7856 -16.5321 1.5
    vertex 43.5 -16.7321 0
    vertex 43.5 -16.7321 1.5
  endloop
 endfacet
 facet normal -0.422611 0.906311 0
  outer loop
    vertex 43.5 -16.7321 1.5
    vertex 43.5 -16.7321 0
    vertex 43.184 -16.8794 0
  endloop
 endfacet
 facet normal -0.422611 0.906311 0
  outer loop
    vertex 43.5 -16.7321 1.5
    vertex 43.184 -16.8794 0
    vertex 43.184 -16.8794 1.5
  endloop
 endfacet
 facet normal -0.258822 0.965925 0
  outer loop
    vertex 43.184 -16.8794 1.5
    vertex 43.184 -16.8794 0
    vertex 42.8473 -16.9696 0
  endloop
 endfacet
 facet normal -0.258822 0.965925 0
  outer loop
    vertex 43.184 -16.8794 1.5
    vertex 42.8473 -16.9696 0
    vertex 42.8473 -16.9696 1.5
  endloop
 endfacet
 facet normal -0.0871551 0.996195 0
  outer loop
    vertex 42.8473 -16.9696 1.5
    vertex 42.8473 -16.9696 0
    vertex 42.5 -17 0
  endloop
 endfacet
 facet normal -0.0871551 0.996195 0
  outer loop
    vertex 42.8473 -16.9696 1.5
    vertex 42.5 -17 0
    vertex 42.5 -17 1.5
  endloop
 endfacet
 facet normal -0.0871551 -0.996195 0
  outer loop
    vertex 42.5 17 1.5
    vertex 42.5 17 0
    vertex 42.8473 16.9696 0
  endloop
 endfacet
 facet normal -0.0871551 -0.996195 0
  outer loop
    vertex 42.5 17 1.5
    vertex 42.8473 16.9696 0
    vertex 42.8473 16.9696 1.5
  endloop
 endfacet
 facet normal -0.258817 -0.965926 0
  outer loop
    vertex 42.8473 16.9696 1.5
    vertex 42.8473 16.9696 0
    vertex 43.184 16.8794 0
  endloop
 endfacet
 facet normal -0.258817 -0.965926 0
  outer loop
    vertex 42.8473 16.9696 1.5
    vertex 43.184 16.8794 0
    vertex 43.184 16.8794 1.5
  endloop
 endfacet
 facet normal -0.422615 -0.906309 0
  outer loop
    vertex 43.184 16.8794 1.5
    vertex 43.184 16.8794 0
    vertex 43.5 16.7321 0
  endloop
 endfacet
 facet normal -0.422615 -0.906309 0
  outer loop
    vertex 43.184 16.8794 1.5
    vertex 43.5 16.7321 0
    vertex 43.5 16.7321 1.5
  endloop
 endfacet
 facet normal -0.573577 -0.819152 0
  outer loop
    vertex 43.5 16.7321 1.5
    vertex 43.5 16.7321 0
    vertex 43.7856 16.5321 0
  endloop
 endfacet
 facet normal -0.573577 -0.819152 0
  outer loop
    vertex 43.5 16.7321 1.5
    vertex 43.7856 16.5321 0
    vertex 43.7856 16.5321 1.5
  endloop
 endfacet
 facet normal -0.707101 -0.707112 0
  outer loop
    vertex 43.7856 16.5321 1.5
    vertex 43.7856 16.5321 0
    vertex 44.0321 16.2856 0
  endloop
 endfacet
 facet normal -0.707101 -0.707112 0
  outer loop
    vertex 43.7856 16.5321 1.5
    vertex 44.0321 16.2856 0
    vertex 44.0321 16.2856 1.5
  endloop
 endfacet
 facet normal -0.819157 -0.573569 0
  outer loop
    vertex 44.0321 16.2856 1.5
    vertex 44.0321 16.2856 0
    vertex 44.232 16 0
  endloop
 endfacet
 facet normal -0.819157 -0.573569 0
  outer loop
    vertex 44.0321 16.2856 1.5
    vertex 44.232 16 0
    vertex 44.232 16 1.5
  endloop
 endfacet
 facet normal -0.906307 -0.422619 0
  outer loop
    vertex 44.232 16 1.5
    vertex 44.232 16 0
    vertex 44.3794 15.684 0
  endloop
 endfacet
 facet normal -0.906307 -0.422619 0
  outer loop
    vertex 44.232 16 1.5
    vertex 44.3794 15.684 0
    vertex 44.3794 15.684 1.5
  endloop
 endfacet
 facet normal -0.965929 -0.258807 0
  outer loop
    vertex 44.3794 15.684 1.5
    vertex 44.3794 15.684 0
    vertex 44.4696 15.3473 0
  endloop
 endfacet
 facet normal -0.965929 -0.258807 0
  outer loop
    vertex 44.3794 15.684 1.5
    vertex 44.4696 15.3473 0
    vertex 44.4696 15.3473 1.5
  endloop
 endfacet
 facet normal -0.996193 -0.0871759 0
  outer loop
    vertex 44.4696 15.3473 1.5
    vertex 44.4696 15.3473 0
    vertex 44.5 15 0
  endloop
 endfacet
 facet normal -0.996193 -0.0871759 0
  outer loop
    vertex 44.4696 15.3473 1.5
    vertex 44.5 15 0
    vertex 44.5 15 1.5
  endloop
 endfacet
 facet normal 0.996196 -0.0871433 0
  outer loop
    vertex -44.5 15 1.5
    vertex -44.5 15 0
    vertex -44.4696 15.3473 0
  endloop
 endfacet
 facet normal 0.996196 -0.0871433 0
  outer loop
    vertex -44.5 15 1.5
    vertex -44.4696 15.3473 0
    vertex -44.4696 15.3473 1.5
  endloop
 endfacet
 facet normal 0.965924 -0.258827 0
  outer loop
    vertex -44.4696 15.3473 1.5
    vertex -44.4696 15.3473 0
    vertex -44.3794 15.684 0
  endloop
 endfacet
 facet normal 0.965924 -0.258827 0
  outer loop
    vertex -44.4696 15.3473 1.5
    vertex -44.3794 15.684 0
    vertex -44.3794 15.684 1.5
  endloop
 endfacet
 facet normal 0.906311 -0.422611 0
  outer loop
    vertex -44.3794 15.684 1.5
    vertex -44.3794 15.684 0
    vertex -44.232 16 0
  endloop
 endfacet
 facet normal 0.906311 -0.422611 0
  outer loop
    vertex -44.3794 15.684 1.5
    vertex -44.232 16 0
    vertex -44.232 16 1.5
  endloop
 endfacet
 facet normal 0.819147 -0.573584 0
  outer loop
    vertex -44.232 16 1.5
    vertex -44.232 16 0
    vertex -44.0321 16.2856 0
  endloop
 endfacet
 facet normal 0.819147 -0.573584 0
  outer loop
    vertex -44.232 16 1.5
    vertex -44.0321 16.2856 0
    vertex -44.0321 16.2856 1.5
  endloop
 endfacet
 facet normal 0.707118 -0.707096 0
  outer loop
    vertex -44.0321 16.2856 1.5
    vertex -44.0321 16.2856 0
    vertex -43.7856 16.5321 0
  endloop
 endfacet
 facet normal 0.707118 -0.707096 0
  outer loop
    vertex -44.0321 16.2856 1.5
    vertex -43.7856 16.5321 0
    vertex -43.7856 16.5321 1.5
  endloop
 endfacet
 facet normal 0.573577 -0.819152 0
  outer loop
    vertex -43.7856 16.5321 1.5
    vertex -43.7856 16.5321 0
    vertex -43.5 16.7321 0
  endloop
 endfacet
 facet normal 0.573577 -0.819152 0
  outer loop
    vertex -43.7856 16.5321 1.5
    vertex -43.5 16.7321 0
    vertex -43.5 16.7321 1.5
  endloop
 endfacet
 facet normal 0.422615 -0.906309 0
  outer loop
    vertex -43.5 16.7321 1.5
    vertex -43.5 16.7321 0
    vertex -43.184 16.8794 0
  endloop
 endfacet
 facet normal 0.422615 -0.906309 0
  outer loop
    vertex -43.5 16.7321 1.5
    vertex -43.184 16.8794 0
    vertex -43.184 16.8794 1.5
  endloop
 endfacet
 facet normal 0.258814 -0.965927 0
  outer loop
    vertex -43.184 16.8794 1.5
    vertex -43.184 16.8794 0
    vertex -42.8473 16.9696 0
  endloop
 endfacet
 facet normal 0.258814 -0.965927 0
  outer loop
    vertex -43.184 16.8794 1.5
    vertex -42.8473 16.9696 0
    vertex -42.8473 16.9696 1.5
  endloop
 endfacet
 facet normal 0.0871561 -0.996195 0
  outer loop
    vertex -42.8473 16.9696 1.5
    vertex -42.8473 16.9696 0
    vertex -42.5 17 0
  endloop
 endfacet
 facet normal 0.0871561 -0.996195 0
  outer loop
    vertex -42.8473 16.9696 1.5
    vertex -42.5 17 0
    vertex -42.5 17 1.5
  endloop
 endfacet
endsolid solidname
