solid OptoEndstopFlag3MM
facet normal -1.0 -0.0 -0.0
  outer loop
    vertex 3.1999999999999997 7.999999999999999 12.000000000000012
    vertex 3.1999999999999997 1.3188353527097636e-15 4.000000000000011
    vertex 3.1999999999999997 1.3188353527097636e-15 12.000000000000012
  endloop
endfacet
facet normal -1.0 -0.0 -0.0
  outer loop
    vertex 3.1999999999999997 1.3188353527097636e-15 4.000000000000011
    vertex 3.1999999999999997 7.999999999999999 12.000000000000012
    vertex 3.1999999999999997 7.999999999999999 4.000000000000011
  endloop
endfacet
facet normal 1.0 0.0 0.0
  outer loop
    vertex 4.8 7.999999999999999 4.000000000000011
    vertex 4.8 8.120339106831798e-16 12.000000000000012
    vertex 4.8 8.120339106831798e-16 4.000000000000011
  endloop
endfacet
facet normal 1.0 0.0 0.0
  outer loop
    vertex 4.8 8.120339106831798e-16 12.000000000000012
    vertex 4.8 7.999999999999999 4.000000000000011
    vertex 4.8 7.999999999999999 12.000000000000012
  endloop
endfacet
facet normal 0.7071067811865478 0.7071067811865474 0.0
  outer loop
    vertex 5.656854249492381 7.999999999999999 0.0
    vertex 7.999999999999999 5.65685424949238 4.000000000000011
    vertex 7.999999999999999 5.65685424949238 0.0
  endloop
endfacet
facet normal 0.7071067811865478 0.7071067811865474 0.0
  outer loop
    vertex 7.999999999999999 5.65685424949238 4.000000000000011
    vertex 5.656854249492381 7.999999999999999 0.0
    vertex 5.656854249492381 7.999999999999999 4.000000000000011
  endloop
endfacet
facet normal 0.0 0.0 1.0
  outer loop
    vertex 5.656854249492379 7.049916206369744e-16 4.000000000000011
    vertex 4.8 7.999999999999999 4.000000000000011
    vertex 4.8 8.120339106831798e-16 4.000000000000011
  endloop
endfacet
facet normal 0.0 0.0 1.0
  outer loop
    vertex 4.8 7.999999999999999 4.000000000000011
    vertex 5.656854249492379 7.049916206369744e-16 4.000000000000011
    vertex 5.656854249492381 7.999999999999999 4.000000000000011
  endloop
endfacet
facet normal 0.0 0.0 1.0
  outer loop
    vertex 5.656854249492381 7.999999999999999 4.000000000000011
    vertex 5.656854249492379 7.049916206369744e-16 4.000000000000011
    vertex 7.999999999999999 2.3431457505076194 4.000000000000011
  endloop
endfacet
facet normal 0.0 0.0 1.0
  outer loop
    vertex 5.656854249492381 7.999999999999999 4.000000000000011
    vertex 7.999999999999999 2.3431457505076194 4.000000000000011
    vertex 7.999999999999999 5.65685424949238 4.000000000000011
  endloop
endfacet
facet normal 0.0 0.0 1.0
  outer loop
    vertex 2.3431457505076194 1.4099832412739487e-15 4.000000000000011
    vertex 7.049916206369744e-16 5.656854249492381 4.000000000000011
    vertex 0.0 2.343145750507621 4.000000000000011
  endloop
endfacet
facet normal 0.0 0.0 1.0
  outer loop
    vertex 7.049916206369744e-16 5.656854249492381 4.000000000000011
    vertex 2.3431457505076194 1.4099832412739487e-15 4.000000000000011
    vertex 2.34314575050762 7.999999999999999 4.000000000000011
  endloop
endfacet
facet normal 0.0 0.0 1.0
  outer loop
    vertex 2.34314575050762 7.999999999999999 4.000000000000011
    vertex 2.3431457505076194 1.4099832412739487e-15 4.000000000000011
    vertex 3.1999999999999997 1.3188353527097636e-15 4.000000000000011
  endloop
endfacet
facet normal 0.0 0.0 1.0
  outer loop
    vertex 2.34314575050762 7.999999999999999 4.000000000000011
    vertex 3.1999999999999997 1.3188353527097636e-15 4.000000000000011
    vertex 3.1999999999999997 7.999999999999999 4.000000000000011
  endloop
endfacet
facet normal 0.0 0.0 1.0
  outer loop
    vertex 4.8 8.120339106831798e-16 12.000000000000012
    vertex 3.1999999999999997 7.999999999999999 12.000000000000012
    vertex 3.1999999999999997 1.3188353527097636e-15 12.000000000000012
  endloop
endfacet
facet normal 0.0 0.0 1.0
  outer loop
    vertex 3.1999999999999997 7.999999999999999 12.000000000000012
    vertex 4.8 8.120339106831798e-16 12.000000000000012
    vertex 4.8 7.999999999999999 12.000000000000012
  endloop
endfacet
facet normal -0.7071067811865476 0.7071067811865476 0.0
  outer loop
    vertex 2.34314575050762 7.999999999999999 4.000000000000011
    vertex 7.049916206369744e-16 5.656854249492381 0.0
    vertex 7.049916206369744e-16 5.656854249492381 4.000000000000011
  endloop
endfacet
facet normal -0.7071067811865476 0.7071067811865476 0.0
  outer loop
    vertex 7.049916206369744e-16 5.656854249492381 0.0
    vertex 2.34314575050762 7.999999999999999 4.000000000000011
    vertex 2.34314575050762 7.999999999999999 0.0
  endloop
endfacet
facet normal -0.7071067811865476 -0.7071067811865476 0.0
  outer loop
    vertex 0.0 2.343145750507621 4.000000000000011
    vertex 2.3431457505076194 1.4099832412739487e-15 0.0
    vertex 2.3431457505076194 1.4099832412739487e-15 4.000000000000011
  endloop
endfacet
facet normal -0.7071067811865476 -0.7071067811865476 0.0
  outer loop
    vertex 2.3431457505076194 1.4099832412739487e-15 0.0
    vertex 0.0 2.343145750507621 4.000000000000011
    vertex 0.0 2.343145750507621 0.0
  endloop
endfacet
facet normal 0.7071067811865472 -0.7071067811865479 0.0
  outer loop
    vertex 7.999999999999999 2.3431457505076194 4.000000000000011
    vertex 5.656854249492379 7.049916206369744e-16 0.0
    vertex 7.999999999999999 2.3431457505076194 0.0
  endloop
endfacet
facet normal 0.7071067811865472 -0.7071067811865479 0.0
  outer loop
    vertex 5.656854249492379 7.049916206369744e-16 0.0
    vertex 7.999999999999999 2.3431457505076194 4.000000000000011
    vertex 5.656854249492379 7.049916206369744e-16 4.000000000000011
  endloop
endfacet
facet normal -1.8073206733394459e-31 2.190691725259943e-32 -1.0
  outer loop
    vertex 1.343703977705062 4.711752374031932 2.00000000000001
    vertex 1.343703977705062 3.2882476259680686 2.00000000000001
    vertex 1.2499999999999998 3.9999999999999996 2.00000000000001
  endloop
endfacet
facet normal -1.8073206733394459e-31 2.190691725259943e-32 -1.0
  outer loop
    vertex 1.343703977705062 3.2882476259680686 2.00000000000001
    vertex 1.343703977705062 4.711752374031932 2.00000000000001
    vertex 1.6184301395927934 2.6250000000000013 2.00000000000001
  endloop
endfacet
facet normal -1.8073206733394459e-31 2.190691725259943e-32 -1.0
  outer loop
    vertex 1.6184301395927934 2.6250000000000013 2.00000000000001
    vertex 1.343703977705062 4.711752374031932 2.00000000000001
    vertex 1.6184301395927934 5.375000000000001 2.00000000000001
  endloop
endfacet
facet normal -1.8073206733394459e-31 2.190691725259943e-32 -1.0
  outer loop
    vertex 1.6184301395927934 2.6250000000000013 2.00000000000001
    vertex 1.6184301395927934 5.375000000000001 2.00000000000001
    vertex 2.0554563517369946 5.944543648263006 2.00000000000001
  endloop
endfacet
facet normal -1.8073206733394459e-31 2.190691725259943e-32 -1.0
  outer loop
    vertex 1.6184301395927934 2.6250000000000013 2.00000000000001
    vertex 2.0554563517369946 5.944543648263006 2.00000000000001
    vertex 2.0554563517369924 2.0554563517369964 2.00000000000001
  endloop
endfacet
facet normal -1.8073206733394459e-31 2.190691725259943e-32 -1.0
  outer loop
    vertex 2.0554563517369924 2.0554563517369964 2.00000000000001
    vertex 2.0554563517369946 5.944543648263006 2.00000000000001
    vertex 2.624999999999997 1.6184301395927958 2.00000000000001
  endloop
endfacet
facet normal -1.8073206733394459e-31 2.190691725259943e-32 -1.0
  outer loop
    vertex 2.624999999999997 1.6184301395927958 2.00000000000001
    vertex 2.0554563517369946 5.944543648263006 2.00000000000001
    vertex 2.6250000000000004 6.3815698604072075 2.00000000000001
  endloop
endfacet
facet normal -1.8073206733394459e-31 2.190691725259943e-32 -1.0
  outer loop
    vertex 2.624999999999997 1.6184301395927958 2.00000000000001
    vertex 2.6250000000000004 6.3815698604072075 2.00000000000001
    vertex 3.288247625968064 1.343703977705064 2.00000000000001
  endloop
endfacet
facet normal -1.8073206733394459e-31 2.190691725259943e-32 -1.0
  outer loop
    vertex 3.288247625968064 1.343703977705064 2.00000000000001
    vertex 2.6250000000000004 6.3815698604072075 2.00000000000001
    vertex 3.288247625968069 6.656296022294938 2.00000000000001
  endloop
endfacet
facet normal -1.8073206733394459e-31 2.190691725259943e-32 -1.0
  outer loop
    vertex 3.288247625968064 1.343703977705064 2.00000000000001
    vertex 3.288247625968069 6.656296022294938 2.00000000000001
    vertex 3.9999999999999947 1.2500000000000004 2.00000000000001
  endloop
endfacet
facet normal -1.8073206733394459e-31 2.190691725259943e-32 -1.0
  outer loop
    vertex 3.9999999999999947 1.2500000000000004 2.00000000000001
    vertex 3.288247625968069 6.656296022294938 2.00000000000001
    vertex 4.000000000000002 6.749999999999999 2.00000000000001
  endloop
endfacet
facet normal -1.8073206733394459e-31 2.190691725259943e-32 -1.0
  outer loop
    vertex 3.9999999999999947 1.2500000000000004 2.00000000000001
    vertex 4.000000000000002 6.749999999999999 2.00000000000001
    vertex 4.711752374031928 1.3437039777050614 2.00000000000001
  endloop
endfacet
facet normal -1.8073206733394459e-31 2.190691725259943e-32 -1.0
  outer loop
    vertex 4.711752374031928 1.3437039777050614 2.00000000000001
    vertex 4.000000000000002 6.749999999999999 2.00000000000001
    vertex 4.711752374031934 6.656296022294938 2.00000000000001
  endloop
endfacet
facet normal -1.8073206733394459e-31 2.190691725259943e-32 -1.0
  outer loop
    vertex 4.711752374031928 1.3437039777050614 2.00000000000001
    vertex 4.711752374031934 6.656296022294938 2.00000000000001
    vertex 5.374999999999995 1.6184301395927914 2.00000000000001
  endloop
endfacet
facet normal -1.8073206733394459e-31 2.190691725259943e-32 -1.0
  outer loop
    vertex 5.374999999999995 1.6184301395927914 2.00000000000001
    vertex 4.711752374031934 6.656296022294938 2.00000000000001
    vertex 5.375000000000002 6.381569860407205 2.00000000000001
  endloop
endfacet
facet normal -1.8073206733394459e-31 2.190691725259943e-32 -1.0
  outer loop
    vertex 5.374999999999995 1.6184301395927914 2.00000000000001
    vertex 5.375000000000002 6.381569860407205 2.00000000000001
    vertex 5.944543648263 2.0554563517369897 2.00000000000001
  endloop
endfacet
facet normal -1.8073206733394459e-31 2.190691725259943e-32 -1.0
  outer loop
    vertex 5.944543648263 2.0554563517369897 2.00000000000001
    vertex 5.375000000000002 6.381569860407205 2.00000000000001
    vertex 5.944543648263007 5.9445436482630045 2.00000000000001
  endloop
endfacet
facet normal -1.8073206733394459e-31 2.190691725259943e-32 -1.0
  outer loop
    vertex 5.944543648263 2.0554563517369897 2.00000000000001
    vertex 5.944543648263007 5.9445436482630045 2.00000000000001
    vertex 6.381569860407205 2.6249999999999996 2.00000000000001
  endloop
endfacet
facet normal -1.8073206733394459e-31 2.190691725259943e-32 -1.0
  outer loop
    vertex 6.381569860407205 2.6249999999999996 2.00000000000001
    vertex 5.944543648263007 5.9445436482630045 2.00000000000001
    vertex 6.3815698604072075 5.374999999999998 2.00000000000001
  endloop
endfacet
facet normal -1.8073206733394459e-31 2.190691725259943e-32 -1.0
  outer loop
    vertex 6.381569860407205 2.6249999999999996 2.00000000000001
    vertex 6.3815698604072075 5.374999999999998 2.00000000000001
    vertex 6.656296022294938 3.2882476259680664 2.00000000000001
  endloop
endfacet
facet normal -1.8073206733394459e-31 2.190691725259943e-32 -1.0
  outer loop
    vertex 6.656296022294938 3.2882476259680664 2.00000000000001
    vertex 6.3815698604072075 5.374999999999998 2.00000000000001
    vertex 6.656296022294938 4.7117523740319305 2.00000000000001
  endloop
endfacet
facet normal -1.8073206733394459e-31 2.190691725259943e-32 -1.0
  outer loop
    vertex 6.656296022294938 3.2882476259680664 2.00000000000001
    vertex 6.656296022294938 4.7117523740319305 2.00000000000001
    vertex 6.749999999999999 3.9999999999999982 2.00000000000001
  endloop
endfacet
facet normal -1.0 2.1275004148764656e-16 0.0
  outer loop
    vertex 7.049916206369744e-16 5.656854249492381 4.000000000000011
    vertex 0.0 2.343145750507621 0.0
    vertex 0.0 2.343145750507621 4.000000000000011
  endloop
endfacet
facet normal -1.0 2.1275004148764656e-16 0.0
  outer loop
    vertex 0.0 2.343145750507621 0.0
    vertex 7.049916206369744e-16 5.656854249492381 4.000000000000011
    vertex 7.049916206369744e-16 5.656854249492381 0.0
  endloop
endfacet
facet normal 1.0 0.0 0.0
  outer loop
    vertex 7.999999999999999 5.65685424949238 0.0
    vertex 7.999999999999999 2.3431457505076194 4.000000000000011
    vertex 7.999999999999999 2.3431457505076194 0.0
  endloop
endfacet
facet normal 1.0 0.0 0.0
  outer loop
    vertex 7.999999999999999 2.3431457505076194 4.000000000000011
    vertex 7.999999999999999 5.65685424949238 0.0
    vertex 7.999999999999999 5.65685424949238 4.000000000000011
  endloop
endfacet
facet normal -2.1275004148764644e-16 -1.0 0.0
  outer loop
    vertex 4.8 8.120339106831798e-16 12.000000000000012
    vertex 3.1999999999999997 1.3188353527097636e-15 4.000000000000011
    vertex 4.8 8.120339106831798e-16 4.000000000000011
  endloop
endfacet
facet normal -2.1275004148764644e-16 -1.0 0.0
  outer loop
    vertex 3.1999999999999997 1.3188353527097636e-15 4.000000000000011
    vertex 4.8 8.120339106831798e-16 12.000000000000012
    vertex 3.1999999999999997 1.3188353527097636e-15 12.000000000000012
  endloop
endfacet
facet normal -2.1275004148764644e-16 -1.0 0.0
  outer loop
    vertex 5.656854249492379 7.049916206369744e-16 4.000000000000011
    vertex 2.3431457505076194 1.4099832412739487e-15 0.0
    vertex 5.656854249492379 7.049916206369744e-16 0.0
  endloop
endfacet
facet normal -2.1275004148764644e-16 -1.0 0.0
  outer loop
    vertex 2.3431457505076194 1.4099832412739487e-15 0.0
    vertex 5.656854249492379 7.049916206369744e-16 4.000000000000011
    vertex 2.3431457505076194 1.4099832412739487e-15 4.000000000000011
  endloop
endfacet
facet normal -2.1275004148764644e-16 -1.0 0.0
  outer loop
    vertex 2.3431457505076194 1.4099832412739487e-15 4.000000000000011
    vertex 5.656854249492379 7.049916206369744e-16 4.000000000000011
    vertex 4.8 8.120339106831798e-16 4.000000000000011
  endloop
endfacet
facet normal -2.1275004148764644e-16 -1.0 0.0
  outer loop
    vertex 2.3431457505076194 1.4099832412739487e-15 4.000000000000011
    vertex 4.8 8.120339106831798e-16 4.000000000000011
    vertex 3.1999999999999997 1.3188353527097636e-15 4.000000000000011
  endloop
endfacet
facet normal 0.0 1.0 0.0
  outer loop
    vertex 3.1999999999999997 7.999999999999999 12.000000000000012
    vertex 4.8 7.999999999999999 4.000000000000011
    vertex 3.1999999999999997 7.999999999999999 4.000000000000011
  endloop
endfacet
facet normal 0.0 1.0 0.0
  outer loop
    vertex 4.8 7.999999999999999 4.000000000000011
    vertex 3.1999999999999997 7.999999999999999 12.000000000000012
    vertex 4.8 7.999999999999999 12.000000000000012
  endloop
endfacet
facet normal 0.0 1.0 0.0
  outer loop
    vertex 2.34314575050762 7.999999999999999 4.000000000000011
    vertex 5.656854249492381 7.999999999999999 0.0
    vertex 2.34314575050762 7.999999999999999 0.0
  endloop
endfacet
facet normal 0.0 1.0 0.0
  outer loop
    vertex 5.656854249492381 7.999999999999999 0.0
    vertex 2.34314575050762 7.999999999999999 4.000000000000011
    vertex 5.656854249492381 7.999999999999999 4.000000000000011
  endloop
endfacet
facet normal 0.0 1.0 0.0
  outer loop
    vertex 5.656854249492381 7.999999999999999 4.000000000000011
    vertex 2.34314575050762 7.999999999999999 4.000000000000011
    vertex 3.1999999999999997 7.999999999999999 4.000000000000011
  endloop
endfacet
facet normal 0.0 1.0 0.0
  outer loop
    vertex 5.656854249492381 7.999999999999999 4.000000000000011
    vertex 3.1999999999999997 7.999999999999999 4.000000000000011
    vertex 4.8 7.999999999999999 4.000000000000011
  endloop
endfacet
facet normal 0.0 0.0 -1.0
  outer loop
    vertex 7.049916206369744e-16 5.656854249492381 0.0
    vertex 1.343703977705062 4.711752374031932 2.0444756998472255e-14
    vertex 1.2499999999999998 3.9999999999999996 1.9034773757198308e-14
  endloop
endfacet
facet normal 0.0 0.0 -1.0
  outer loop
    vertex 1.343703977705062 4.711752374031932 2.0444756998472255e-14
    vertex 7.049916206369744e-16 5.656854249492381 0.0
    vertex 2.34314575050762 7.999999999999999 0.0
  endloop
endfacet
facet normal 0.0 0.0 -1.0
  outer loop
    vertex 1.343703977705062 4.711752374031932 2.0444756998472255e-14
    vertex 2.34314575050762 7.999999999999999 0.0
    vertex 1.6184301395927934 5.375000000000001 2.1854740239746206e-14
  endloop
endfacet
facet normal 0.0 0.0 -1.0
  outer loop
    vertex 1.6184301395927934 5.375000000000001 2.1854740239746206e-14
    vertex 2.34314575050762 7.999999999999999 0.0
    vertex 2.0554563517369946 5.944543648263006 2.1854740239746206e-14
  endloop
endfacet
facet normal 0.0 0.0 -1.0
  outer loop
    vertex 2.0554563517369946 5.944543648263006 2.1854740239746206e-14
    vertex 2.34314575050762 7.999999999999999 0.0
    vertex 2.6250000000000004 6.3815698604072075 2.1854740239746206e-14
  endloop
endfacet
facet normal 0.0 0.0 -1.0
  outer loop
    vertex 2.6250000000000004 6.3815698604072075 2.1854740239746206e-14
    vertex 2.34314575050762 7.999999999999999 0.0
    vertex 5.656854249492381 7.999999999999999 0.0
  endloop
endfacet
facet normal 0.0 0.0 -1.0
  outer loop
    vertex 2.6250000000000004 6.3815698604072075 2.1854740239746206e-14
    vertex 5.656854249492381 7.999999999999999 0.0
    vertex 3.288247625968069 6.656296022294938 2.0444756998472255e-14
  endloop
endfacet
facet normal 0.0 0.0 -1.0
  outer loop
    vertex 3.288247625968069 6.656296022294938 2.0444756998472255e-14
    vertex 5.656854249492381 7.999999999999999 0.0
    vertex 4.000000000000002 6.749999999999999 1.9034773757198308e-14
  endloop
endfacet
facet normal 0.0 0.0 -1.0
  outer loop
    vertex 4.000000000000002 6.749999999999999 1.9034773757198308e-14
    vertex 5.656854249492381 7.999999999999999 0.0
    vertex 4.711752374031934 6.656296022294938 1.621480727465041e-14
  endloop
endfacet
facet normal 0.0 0.0 -1.0
  outer loop
    vertex 4.711752374031934 6.656296022294938 1.621480727465041e-14
    vertex 5.656854249492381 7.999999999999999 0.0
    vertex 5.375000000000002 6.381569860407205 1.3394840792102513e-14
  endloop
endfacet
facet normal 0.0 0.0 -1.0
  outer loop
    vertex 5.375000000000002 6.381569860407205 1.3394840792102513e-14
    vertex 5.656854249492381 7.999999999999999 0.0
    vertex 5.944543648263007 5.9445436482630045 1.0574874309554616e-14
  endloop
endfacet
facet normal 0.0 0.0 -1.0
  outer loop
    vertex 5.944543648263007 5.9445436482630045 1.0574874309554616e-14
    vertex 5.656854249492381 7.999999999999999 0.0
    vertex 7.999999999999999 5.65685424949238 0.0
  endloop
endfacet
facet normal 0.0 0.0 -1.0
  outer loop
    vertex 5.944543648263007 5.9445436482630045 1.0574874309554616e-14
    vertex 7.999999999999999 5.65685424949238 0.0
    vertex 6.3815698604072075 5.374999999999998 7.754907827006718e-15
  endloop
endfacet
facet normal 0.0 0.0 -1.0
  outer loop
    vertex 6.3815698604072075 5.374999999999998 7.754907827006718e-15
    vertex 7.999999999999999 5.65685424949238 0.0
    vertex 6.656296022294938 4.7117523740319305 4.93494134445882e-15
  endloop
endfacet
facet normal 0.0 0.0 -1.0
  outer loop
    vertex 6.656296022294938 4.7117523740319305 4.93494134445882e-15
    vertex 7.999999999999999 5.65685424949238 0.0
    vertex 6.749999999999999 3.9999999999999982 2.114974861910923e-15
  endloop
endfacet
facet normal 0.0 0.0 -1.0
  outer loop
    vertex 7.049916206369744e-16 5.656854249492381 0.0
    vertex 2.3431457505076194 1.4099832412739487e-15 0.0
    vertex 0.0 2.343145750507621 0.0
  endloop
endfacet
facet normal 0.0 0.0 -1.0
  outer loop
    vertex 2.3431457505076194 1.4099832412739487e-15 0.0
    vertex 7.049916206369744e-16 5.656854249492381 0.0
    vertex 1.343703977705062 3.2882476259680686 1.621480727465041e-14
  endloop
endfacet
facet normal 0.0 0.0 -1.0
  outer loop
    vertex 1.343703977705062 3.2882476259680686 1.621480727465041e-14
    vertex 7.049916206369744e-16 5.656854249492381 0.0
    vertex 1.2499999999999998 3.9999999999999996 1.9034773757198308e-14
  endloop
endfacet
facet normal 0.0 0.0 -1.0
  outer loop
    vertex 2.3431457505076194 1.4099832412739487e-15 0.0
    vertex 1.343703977705062 3.2882476259680686 1.621480727465041e-14
    vertex 1.6184301395927934 2.6250000000000013 1.3394840792102513e-14
  endloop
endfacet
facet normal 0.0 0.0 -1.0
  outer loop
    vertex 2.3431457505076194 1.4099832412739487e-15 0.0
    vertex 1.6184301395927934 2.6250000000000013 1.3394840792102513e-14
    vertex 2.0554563517369924 2.0554563517369964 1.0574874309554616e-14
  endloop
endfacet
facet normal 0.0 0.0 -1.0
  outer loop
    vertex 2.3431457505076194 1.4099832412739487e-15 0.0
    vertex 2.0554563517369924 2.0554563517369964 1.0574874309554616e-14
    vertex 2.624999999999997 1.6184301395927958 7.754907827006718e-15
  endloop
endfacet
facet normal 0.0 0.0 -1.0
  outer loop
    vertex 2.3431457505076194 1.4099832412739487e-15 0.0
    vertex 2.624999999999997 1.6184301395927958 7.754907827006718e-15
    vertex 5.656854249492379 7.049916206369744e-16 0.0
  endloop
endfacet
facet normal 0.0 0.0 -1.0
  outer loop
    vertex 5.656854249492379 7.049916206369744e-16 0.0
    vertex 2.624999999999997 1.6184301395927958 7.754907827006718e-15
    vertex 3.288247625968064 1.343703977705064 4.93494134445882e-15
  endloop
endfacet
facet normal 0.0 0.0 -1.0
  outer loop
    vertex 5.656854249492379 7.049916206369744e-16 0.0
    vertex 3.288247625968064 1.343703977705064 4.93494134445882e-15
    vertex 3.9999999999999947 1.2500000000000004 2.114974861910923e-15
  endloop
endfacet
facet normal 0.0 0.0 -1.0
  outer loop
    vertex 5.656854249492379 7.049916206369744e-16 0.0
    vertex 3.9999999999999947 1.2500000000000004 2.114974861910923e-15
    vertex 4.711752374031928 1.3437039777050614 7.049916206369744e-16
  endloop
endfacet
facet normal 0.0 0.0 -1.0
  outer loop
    vertex 5.656854249492379 7.049916206369744e-16 0.0
    vertex 4.711752374031928 1.3437039777050614 7.049916206369744e-16
    vertex 5.374999999999995 1.6184301395927914 -7.049916206369744e-16
  endloop
endfacet
facet normal 0.0 0.0 -1.0
  outer loop
    vertex 5.656854249492379 7.049916206369744e-16 0.0
    vertex 5.374999999999995 1.6184301395927914 -7.049916206369744e-16
    vertex 5.944543648263 2.0554563517369897 -7.049916206369744e-16
  endloop
endfacet
facet normal 0.0 0.0 -1.0
  outer loop
    vertex 5.656854249492379 7.049916206369744e-16 0.0
    vertex 5.944543648263 2.0554563517369897 -7.049916206369744e-16
    vertex 7.999999999999999 2.3431457505076194 0.0
  endloop
endfacet
facet normal 0.0 0.0 -1.0
  outer loop
    vertex 7.999999999999999 2.3431457505076194 0.0
    vertex 5.944543648263 2.0554563517369897 -7.049916206369744e-16
    vertex 6.381569860407205 2.6249999999999996 -7.049916206369744e-16
  endloop
endfacet
facet normal 0.0 0.0 -1.0
  outer loop
    vertex 7.999999999999999 2.3431457505076194 0.0
    vertex 6.381569860407205 2.6249999999999996 -7.049916206369744e-16
    vertex 6.656296022294938 3.2882476259680664 7.049916206369744e-16
  endloop
endfacet
facet normal 0.0 0.0 -1.0
  outer loop
    vertex 7.999999999999999 2.3431457505076194 0.0
    vertex 6.656296022294938 3.2882476259680664 7.049916206369744e-16
    vertex 6.749999999999999 3.9999999999999982 2.114974861910923e-15
  endloop
endfacet
facet normal 0.0 0.0 -1.0
  outer loop
    vertex 7.999999999999999 2.3431457505076194 0.0
    vertex 6.749999999999999 3.9999999999999982 2.114974861910923e-15
    vertex 7.999999999999999 5.65685424949238 0.0
  endloop
endfacet
facet normal -0.7933533402912347 0.6087614290087213 -7.564061420981403e-32
  outer loop
    vertex 6.381569860407205 2.6249999999999996 2.00000000000001
    vertex 5.944543648263 2.0554563517369897 -7.049916206369744e-16
    vertex 5.944543648263 2.0554563517369897 2.00000000000001
  endloop
endfacet
facet normal -0.7933533402912347 0.6087614290087213 -7.564061420981403e-32
  outer loop
    vertex 5.944543648263 2.0554563517369897 -7.049916206369744e-16
    vertex 6.381569860407205 2.6249999999999996 2.00000000000001
    vertex 6.381569860407205 2.6249999999999996 -7.049916206369744e-16
  endloop
endfacet
facet normal -0.9238795325112857 0.3826834323650926 4.2767864021894e-18
  outer loop
    vertex 6.656296022294938 3.2882476259680664 2.00000000000001
    vertex 6.381569860407205 2.6249999999999996 -7.049916206369744e-16
    vertex 6.381569860407205 2.6249999999999996 2.00000000000001
  endloop
endfacet
facet normal -0.9238795325112857 0.3826834323650926 4.2767864021894e-18
  outer loop
    vertex 6.381569860407205 2.6249999999999996 -7.049916206369744e-16
    vertex 6.656296022294938 3.2882476259680664 2.00000000000001
    vertex 6.656296022294938 3.2882476259680664 7.049916206369744e-16
  endloop
endfacet
facet normal -0.9914448613738107 0.13052619222004985 -8.073633799914415e-19
  outer loop
    vertex 6.749999999999999 3.9999999999999982 2.00000000000001
    vertex 6.656296022294938 3.2882476259680664 7.049916206369744e-16
    vertex 6.656296022294938 3.2882476259680664 2.00000000000001
  endloop
endfacet
facet normal -0.9914448613738107 0.13052619222004985 -8.073633799914415e-19
  outer loop
    vertex 6.656296022294938 3.2882476259680664 7.049916206369744e-16
    vertex 6.749999999999999 3.9999999999999982 2.00000000000001
    vertex 6.749999999999999 3.9999999999999982 2.114974861910923e-15
  endloop
endfacet
facet normal -0.9914448613738107 -0.13052619222004985 1.7300643856959495e-18
  outer loop
    vertex 6.656296022294938 4.7117523740319305 2.00000000000001
    vertex 6.749999999999999 3.9999999999999982 2.114974861910923e-15
    vertex 6.749999999999999 3.9999999999999982 2.00000000000001
  endloop
endfacet
facet normal -0.9914448613738107 -0.13052619222004985 1.7300643856959495e-18
  outer loop
    vertex 6.749999999999999 3.9999999999999982 2.114974861910923e-15
    vertex 6.656296022294938 4.7117523740319305 2.00000000000001
    vertex 6.656296022294938 4.7117523740319305 4.93494134445882e-15
  endloop
endfacet
facet normal -0.9238795325112873 -0.38268343236508845 4.830471677298176e-18
  outer loop
    vertex 6.3815698604072075 5.374999999999998 2.00000000000001
    vertex 6.656296022294938 4.7117523740319305 4.93494134445882e-15
    vertex 6.656296022294938 4.7117523740319305 2.00000000000001
  endloop
endfacet
facet normal -0.9238795325112873 -0.38268343236508845 4.830471677298176e-18
  outer loop
    vertex 6.656296022294938 4.7117523740319305 4.93494134445882e-15
    vertex 6.3815698604072075 5.374999999999998 2.00000000000001
    vertex 6.3815698604072075 5.374999999999998 7.754907827006718e-15
  endloop
endfacet
facet normal -0.7933533402912357 -0.6087614290087199 -2.43811450247429e-18
  outer loop
    vertex 5.944543648263007 5.9445436482630045 2.00000000000001
    vertex 6.3815698604072075 5.374999999999998 7.754907827006718e-15
    vertex 6.3815698604072075 5.374999999999998 2.00000000000001
  endloop
endfacet
facet normal -0.7933533402912357 -0.6087614290087199 -2.43811450247429e-18
  outer loop
    vertex 6.3815698604072075 5.374999999999998 7.754907827006718e-15
    vertex 5.944543648263007 5.9445436482630045 2.00000000000001
    vertex 5.944543648263007 5.9445436482630045 1.0574874309554616e-14
  endloop
endfacet
facet normal -0.6087614290087211 -0.7933533402912347 7.760849533245591e-18
  outer loop
    vertex 5.944543648263007 5.9445436482630045 2.00000000000001
    vertex 5.375000000000002 6.381569860407205 1.3394840792102513e-14
    vertex 5.944543648263007 5.9445436482630045 1.0574874309554616e-14
  endloop
endfacet
facet normal -0.6087614290087211 -0.7933533402912347 7.760849533245591e-18
  outer loop
    vertex 5.375000000000002 6.381569860407205 1.3394840792102513e-14
    vertex 5.944543648263007 5.9445436482630045 2.00000000000001
    vertex 5.375000000000002 6.381569860407205 2.00000000000001
  endloop
endfacet
facet normal -0.38268343236509056 -0.9238795325112865 -7.91478963914943e-19
  outer loop
    vertex 5.375000000000002 6.381569860407205 2.00000000000001
    vertex 4.711752374031934 6.656296022294938 1.621480727465041e-14
    vertex 5.375000000000002 6.381569860407205 1.3394840792102513e-14
  endloop
endfacet
facet normal -0.38268343236509056 -0.9238795325112865 -7.91478963914943e-19
  outer loop
    vertex 4.711752374031934 6.656296022294938 1.621480727465041e-14
    vertex 5.375000000000002 6.381569860407205 2.00000000000001
    vertex 4.711752374031934 6.656296022294938 2.00000000000001
  endloop
endfacet
facet normal -0.13052619222005177 -0.9914448613738105 -1.6147267599831436e-18
  outer loop
    vertex 4.711752374031934 6.656296022294938 2.00000000000001
    vertex 4.000000000000002 6.749999999999999 1.9034773757198308e-14
    vertex 4.711752374031934 6.656296022294938 1.621480727465041e-14
  endloop
endfacet
facet normal -0.13052619222005177 -0.9914448613738105 -1.6147267599831436e-18
  outer loop
    vertex 4.000000000000002 6.749999999999999 1.9034773757198308e-14
    vertex 4.711752374031934 6.656296022294938 2.00000000000001
    vertex 4.000000000000002 6.749999999999999 2.00000000000001
  endloop
endfacet
facet normal 0.13052619222005163 -0.9914448613738105 -1.359823157805722e-18
  outer loop
    vertex 4.000000000000002 6.749999999999999 2.00000000000001
    vertex 3.288247625968069 6.656296022294938 2.0444756998472255e-14
    vertex 4.000000000000002 6.749999999999999 1.9034773757198308e-14
  endloop
endfacet
facet normal 0.13052619222005163 -0.9914448613738105 -1.359823157805722e-18
  outer loop
    vertex 3.288247625968069 6.656296022294938 2.0444756998472255e-14
    vertex 4.000000000000002 6.749999999999999 2.00000000000001
    vertex 3.288247625968069 6.656296022294938 2.00000000000001
  endloop
endfacet
facet normal 0.3826834323650883 -0.9238795325112875 2.4152358386491012e-18
  outer loop
    vertex 3.288247625968069 6.656296022294938 2.00000000000001
    vertex 2.6250000000000004 6.3815698604072075 2.1854740239746206e-14
    vertex 3.288247625968069 6.656296022294938 2.0444756998472255e-14
  endloop
endfacet
facet normal 0.3826834323650883 -0.9238795325112875 2.4152358386491012e-18
  outer loop
    vertex 2.6250000000000004 6.3815698604072075 2.1854740239746206e-14
    vertex 3.288247625968069 6.656296022294938 2.00000000000001
    vertex 2.6250000000000004 6.3815698604072075 2.00000000000001
  endloop
endfacet
facet normal 0.6087614290087204 -0.7933533402912353 -9.857676765552481e-32
  outer loop
    vertex 2.6250000000000004 6.3815698604072075 2.00000000000001
    vertex 2.0554563517369946 5.944543648263006 2.1854740239746206e-14
    vertex 2.6250000000000004 6.3815698604072075 2.1854740239746206e-14
  endloop
endfacet
facet normal 0.6087614290087204 -0.7933533402912353 -9.857676765552481e-32
  outer loop
    vertex 2.0554563517369946 5.944543648263006 2.1854740239746206e-14
    vertex 2.6250000000000004 6.3815698604072075 2.00000000000001
    vertex 2.0554563517369946 5.944543648263006 2.00000000000001
  endloop
endfacet
facet normal 0.7933533402912352 -0.6087614290087209 -4.9288383827762395e-32
  outer loop
    vertex 2.0554563517369946 5.944543648263006 2.1854740239746206e-14
    vertex 1.6184301395927934 5.375000000000001 2.00000000000001
    vertex 1.6184301395927934 5.375000000000001 2.1854740239746206e-14
  endloop
endfacet
facet normal 0.7933533402912352 -0.6087614290087209 -4.9288383827762395e-32
  outer loop
    vertex 1.6184301395927934 5.375000000000001 2.00000000000001
    vertex 2.0554563517369946 5.944543648263006 2.1854740239746206e-14
    vertex 2.0554563517369946 5.944543648263006 2.00000000000001
  endloop
endfacet
facet normal 0.9238795325112868 -0.38268343236508945 2.415235838649267e-18
  outer loop
    vertex 1.6184301395927934 5.375000000000001 2.1854740239746206e-14
    vertex 1.343703977705062 4.711752374031932 2.00000000000001
    vertex 1.343703977705062 4.711752374031932 2.0444756998472255e-14
  endloop
endfacet
facet normal 0.9238795325112868 -0.38268343236508945 2.415235838649267e-18
  outer loop
    vertex 1.343703977705062 4.711752374031932 2.00000000000001
    vertex 1.6184301395927934 5.375000000000001 2.1854740239746206e-14
    vertex 1.6184301395927934 5.375000000000001 2.00000000000001
  endloop
endfacet
facet normal 0.9914448613738105 -0.13052619222005138 -1.3598231578062153e-18
  outer loop
    vertex 1.343703977705062 4.711752374031932 2.0444756998472255e-14
    vertex 1.2499999999999998 3.9999999999999996 2.00000000000001
    vertex 1.2499999999999998 3.9999999999999996 1.9034773757198308e-14
  endloop
endfacet
facet normal 0.9914448613738105 -0.13052619222005138 -1.3598231578062153e-18
  outer loop
    vertex 1.2499999999999998 3.9999999999999996 2.00000000000001
    vertex 1.343703977705062 4.711752374031932 2.0444756998472255e-14
    vertex 1.343703977705062 4.711752374031932 2.00000000000001
  endloop
endfacet
facet normal 0.9914448613738105 0.13052619222005143 5.524597778145393e-19
  outer loop
    vertex 1.2499999999999998 3.9999999999999996 1.9034773757198308e-14
    vertex 1.343703977705062 3.2882476259680686 2.00000000000001
    vertex 1.343703977705062 3.2882476259680686 1.621480727465041e-14
  endloop
endfacet
facet normal 0.9914448613738105 0.13052619222005143 5.524597778145393e-19
  outer loop
    vertex 1.343703977705062 3.2882476259680686 2.00000000000001
    vertex 1.2499999999999998 3.9999999999999996 1.9034773757198308e-14
    vertex 1.2499999999999998 3.9999999999999996 2.00000000000001
  endloop
endfacet
facet normal 0.9238795325112865 0.3826834323650902 -7.914789639147587e-19
  outer loop
    vertex 1.343703977705062 3.2882476259680686 1.621480727465041e-14
    vertex 1.6184301395927934 2.6250000000000013 2.00000000000001
    vertex 1.6184301395927934 2.6250000000000013 1.3394840792102513e-14
  endloop
endfacet
facet normal 0.9238795325112865 0.3826834323650902 -7.914789639147587e-19
  outer loop
    vertex 1.6184301395927934 2.6250000000000013 2.00000000000001
    vertex 1.343703977705062 3.2882476259680686 1.621480727465041e-14
    vertex 1.343703977705062 3.2882476259680686 2.00000000000001
  endloop
endfacet
facet normal 0.7933533402912357 0.60876142900872 -4.498608842538305e-18
  outer loop
    vertex 1.6184301395927934 2.6250000000000013 1.3394840792102513e-14
    vertex 2.0554563517369924 2.0554563517369964 2.00000000000001
    vertex 2.0554563517369924 2.0554563517369964 1.0574874309554616e-14
  endloop
endfacet
facet normal 0.7933533402912357 0.60876142900872 -4.498608842538305e-18
  outer loop
    vertex 2.0554563517369924 2.0554563517369964 2.00000000000001
    vertex 1.6184301395927934 2.6250000000000013 1.3394840792102513e-14
    vertex 1.6184301395927934 2.6250000000000013 2.00000000000001
  endloop
endfacet
facet normal 0.6087614290087217 0.7933533402912345 -2.4381145024738197e-18
  outer loop
    vertex 2.0554563517369924 2.0554563517369964 1.0574874309554616e-14
    vertex 2.624999999999997 1.6184301395927958 2.00000000000001
    vertex 2.624999999999997 1.6184301395927958 7.754907827006718e-15
  endloop
endfacet
facet normal 0.6087614290087217 0.7933533402912345 -2.4381145024738197e-18
  outer loop
    vertex 2.624999999999997 1.6184301395927958 2.00000000000001
    vertex 2.0554563517369924 2.0554563517369964 1.0574874309554616e-14
    vertex 2.0554563517369924 2.0554563517369964 2.00000000000001
  endloop
endfacet
facet normal 0.3826834323650908 0.9238795325112865 4.830471677298795e-18
  outer loop
    vertex 2.624999999999997 1.6184301395927958 7.754907827006718e-15
    vertex 3.288247625968064 1.343703977705064 2.00000000000001
    vertex 3.288247625968064 1.343703977705064 4.93494134445882e-15
  endloop
endfacet
facet normal 0.3826834323650908 0.9238795325112865 4.830471677298795e-18
  outer loop
    vertex 3.288247625968064 1.343703977705064 2.00000000000001
    vertex 2.624999999999997 1.6184301395927958 7.754907827006718e-15
    vertex 2.624999999999997 1.6184301395927958 2.00000000000001
  endloop
endfacet
facet normal 0.13052619222005374 0.9914448613738103 1.7300643856969562e-18
  outer loop
    vertex 3.288247625968064 1.343703977705064 4.93494134445882e-15
    vertex 3.9999999999999947 1.2500000000000004 2.00000000000001
    vertex 3.9999999999999947 1.2500000000000004 2.114974861910923e-15
  endloop
endfacet
facet normal 0.13052619222005374 0.9914448613738103 1.7300643856969562e-18
  outer loop
    vertex 3.9999999999999947 1.2500000000000004 2.00000000000001
    vertex 3.288247625968064 1.343703977705064 4.93494134445882e-15
    vertex 3.288247625968064 1.343703977705064 2.00000000000001
  endloop
endfacet
facet normal -0.13052619222004994 0.9914448613738107 1.359823157806368e-18
  outer loop
    vertex 3.9999999999999947 1.2500000000000004 2.114974861910923e-15
    vertex 4.711752374031928 1.3437039777050614 2.00000000000001
    vertex 4.711752374031928 1.3437039777050614 7.049916206369744e-16
  endloop
endfacet
facet normal -0.13052619222004994 0.9914448613738107 1.359823157806368e-18
  outer loop
    vertex 4.711752374031928 1.3437039777050614 2.00000000000001
    vertex 3.9999999999999947 1.2500000000000004 2.114974861910923e-15
    vertex 3.9999999999999947 1.2500000000000004 2.00000000000001
  endloop
endfacet
facet normal -0.38268343236508834 0.9238795325112875 -2.4152358386490477e-18
  outer loop
    vertex 4.711752374031928 1.3437039777050614 7.049916206369744e-16
    vertex 5.374999999999995 1.6184301395927914 2.00000000000001
    vertex 5.374999999999995 1.6184301395927914 -7.049916206369744e-16
  endloop
endfacet
facet normal -0.38268343236508834 0.9238795325112875 -2.4152358386490477e-18
  outer loop
    vertex 5.374999999999995 1.6184301395927914 2.00000000000001
    vertex 4.711752374031928 1.3437039777050614 7.049916206369744e-16
    vertex 4.711752374031928 1.3437039777050614 2.00000000000001
  endloop
endfacet
facet normal -0.6087614290087187 0.7933533402912366 -5.322735030771606e-18
  outer loop
    vertex 5.374999999999995 1.6184301395927914 2.00000000000001
    vertex 5.944543648263 2.0554563517369897 -7.049916206369744e-16
    vertex 5.374999999999995 1.6184301395927914 -7.049916206369744e-16
  endloop
endfacet
facet normal -0.6087614290087187 0.7933533402912366 -5.322735030771606e-18
  outer loop
    vertex 5.944543648263 2.0554563517369897 -7.049916206369744e-16
    vertex 5.374999999999995 1.6184301395927914 2.00000000000001
    vertex 5.944543648263 2.0554563517369897 2.00000000000001
  endloop
endfacet
endsolid OptoEndstopFlag3MM
