solid OptoEndstopFlag
facet normal 6.96843907259783e-18 3.841760613198989e-17 -1.0
  outer loop
    vertex 14.0 11.799999999999997 7.049916206369744e-16
    vertex 0.0 3.9999999999999996 2.6437185773886536e-16
    vertex 0.0 11.799999999999997 7.049916206369744e-16
  endloop
endfacet
facet normal 6.96843907259783e-18 3.841760613198989e-17 -1.0
  outer loop
    vertex 0.0 3.9999999999999996 2.6437185773886536e-16
    vertex 14.0 11.799999999999997 7.049916206369744e-16
    vertex 6.1999999999999975 0.0 1.762479051592436e-16
  endloop
endfacet
facet normal 6.96843907259783e-18 3.841760613198989e-17 -1.0
  outer loop
    vertex 6.1999999999999975 0.0 1.762479051592436e-16
    vertex 14.0 11.799999999999997 7.049916206369744e-16
    vertex 7.799999999999997 0.0 3.524958103184872e-16
  endloop
endfacet
facet normal 6.96843907259783e-18 3.841760613198989e-17 -1.0
  outer loop
    vertex 7.799999999999997 0.0 3.524958103184872e-16
    vertex 14.0 11.799999999999997 7.049916206369744e-16
    vertex 14.0 3.9999999999999996 4.40619762898109e-16
  endloop
endfacet
facet normal -1.0 0.0 0.0
  outer loop
    vertex 0.0 11.799999999999997 1.2000000000000002
    vertex 0.0 3.9999999999999996 2.6437185773886536e-16
    vertex 0.0 3.9999999999999996 1.2000000000000002
  endloop
endfacet
facet normal -1.0 0.0 0.0
  outer loop
    vertex 0.0 3.9999999999999996 2.6437185773886536e-16
    vertex 0.0 11.799999999999997 1.2000000000000002
    vertex 0.0 11.799999999999997 7.049916206369744e-16
  endloop
endfacet
facet normal 1.0 -0.0 -0.0
  outer loop
    vertex 14.0 11.799999999999997 7.049916206369744e-16
    vertex 14.0 3.9999999999999996 1.2000000000000002
    vertex 14.0 3.9999999999999996 4.40619762898109e-16
  endloop
endfacet
facet normal 1.0 -0.0 -0.0
  outer loop
    vertex 14.0 3.9999999999999996 1.2000000000000002
    vertex 14.0 11.799999999999997 7.049916206369744e-16
    vertex 14.0 11.799999999999997 1.2000000000000002
  endloop
endfacet
facet normal 0.0 -1.0 0.0
  outer loop
    vertex 7.799999999999997 0.0 3.524958103184872e-16
    vertex 6.1999999999999975 0.0 1.2000000000000002
    vertex 6.1999999999999975 0.0 1.762479051592436e-16
  endloop
endfacet
facet normal 0.0 -1.0 0.0
  outer loop
    vertex 6.1999999999999975 0.0 1.2000000000000002
    vertex 7.799999999999997 0.0 3.524958103184872e-16
    vertex 7.799999999999997 0.0 1.2000000000000002
  endloop
endfacet
facet normal 0.0 -1.0 0.0
  outer loop
    vertex 6.1999999999999975 0.0 1.2000000000000002
    vertex 7.799999999999997 0.0 1.2000000000000002
    vertex 7.799999999999997 0.0 11.200000000000001
  endloop
endfacet
facet normal 0.0 -1.0 0.0
  outer loop
    vertex 6.1999999999999975 0.0 1.2000000000000002
    vertex 7.799999999999997 0.0 11.200000000000001
    vertex 6.1999999999999975 0.0 11.200000000000001
  endloop
endfacet
facet normal 0.0 1.0 0.0
  outer loop
    vertex 6.1999999999999975 6.799999999999997 11.200000000000001
    vertex 7.799999999999997 6.799999999999997 1.2000000000000002
    vertex 6.1999999999999975 6.799999999999997 1.2000000000000002
  endloop
endfacet
facet normal 0.0 1.0 0.0
  outer loop
    vertex 7.799999999999997 6.799999999999997 1.2000000000000002
    vertex 6.1999999999999975 6.799999999999997 11.200000000000001
    vertex 7.799999999999997 6.799999999999997 11.200000000000001
  endloop
endfacet
facet normal -0.0 -0.0 1.0
  outer loop
    vertex 7.799999999999997 0.0 11.200000000000001
    vertex 6.1999999999999975 6.799999999999997 11.200000000000001
    vertex 6.1999999999999975 0.0 11.200000000000001
  endloop
endfacet
facet normal -0.0 -0.0 1.0
  outer loop
    vertex 6.1999999999999975 6.799999999999997 11.200000000000001
    vertex 7.799999999999997 0.0 11.200000000000001
    vertex 7.799999999999997 6.799999999999997 11.200000000000001
  endloop
endfacet
facet normal 1.0 -0.0 -0.0
  outer loop
    vertex 7.799999999999997 6.799999999999997 1.2000000000000002
    vertex 7.799999999999997 0.0 11.200000000000001
    vertex 7.799999999999997 0.0 1.2000000000000002
  endloop
endfacet
facet normal 1.0 -0.0 -0.0
  outer loop
    vertex 7.799999999999997 0.0 11.200000000000001
    vertex 7.799999999999997 6.799999999999997 1.2000000000000002
    vertex 7.799999999999997 6.799999999999997 11.200000000000001
  endloop
endfacet
facet normal -1.0 0.0 0.0
  outer loop
    vertex 6.1999999999999975 6.799999999999997 11.200000000000001
    vertex 6.1999999999999975 0.0 1.2000000000000002
    vertex 6.1999999999999975 0.0 11.200000000000001
  endloop
endfacet
facet normal -1.0 0.0 0.0
  outer loop
    vertex 6.1999999999999975 0.0 1.2000000000000002
    vertex 6.1999999999999975 6.799999999999997 11.200000000000001
    vertex 6.1999999999999975 6.799999999999997 1.2000000000000002
  endloop
endfacet
facet normal -0.0 1.0 -0.0
  outer loop
    vertex 0.0 11.799999999999997 1.2000000000000002
    vertex 14.0 11.799999999999997 7.049916206369744e-16
    vertex 0.0 11.799999999999997 7.049916206369744e-16
  endloop
endfacet
facet normal -0.0 1.0 -0.0
  outer loop
    vertex 14.0 11.799999999999997 7.049916206369744e-16
    vertex 0.0 11.799999999999997 1.2000000000000002
    vertex 14.0 11.799999999999997 1.2000000000000002
  endloop
endfacet
facet normal -0.0 -0.0 1.0
  outer loop
    vertex 14.0 3.9999999999999996 1.2000000000000002
    vertex 7.799999999999997 6.799999999999997 1.2000000000000002
    vertex 7.799999999999997 0.0 1.2000000000000002
  endloop
endfacet
facet normal -0.0 -0.0 1.0
  outer loop
    vertex 6.1999999999999975 0.0 1.2000000000000002
    vertex 0.0 11.799999999999997 1.2000000000000002
    vertex 0.0 3.9999999999999996 1.2000000000000002
  endloop
endfacet
facet normal -0.0 -0.0 1.0
  outer loop
    vertex 0.0 11.799999999999997 1.2000000000000002
    vertex 6.1999999999999975 0.0 1.2000000000000002
    vertex 6.1999999999999975 6.799999999999997 1.2000000000000002
  endloop
endfacet
facet normal -0.0 -0.0 1.0
  outer loop
    vertex 0.0 11.799999999999997 1.2000000000000002
    vertex 6.1999999999999975 6.799999999999997 1.2000000000000002
    vertex 14.0 11.799999999999997 1.2000000000000002
  endloop
endfacet
facet normal -0.0 -0.0 1.0
  outer loop
    vertex 14.0 11.799999999999997 1.2000000000000002
    vertex 6.1999999999999975 6.799999999999997 1.2000000000000002
    vertex 7.799999999999997 6.799999999999997 1.2000000000000002
  endloop
endfacet
facet normal -0.0 -0.0 1.0
  outer loop
    vertex 14.0 11.799999999999997 1.2000000000000002
    vertex 7.799999999999997 6.799999999999997 1.2000000000000002
    vertex 14.0 3.9999999999999996 1.2000000000000002
  endloop
endfacet
facet normal -0.5421268698220932 -0.8402966482242443 -2.3700562680387904e-17
  outer loop
    vertex 6.1999999999999975 0.0 1.2000000000000002
    vertex 0.0 3.9999999999999996 2.6437185773886536e-16
    vertex 6.1999999999999975 0.0 1.762479051592436e-16
  endloop
endfacet
facet normal -0.5421268698220932 -0.8402966482242443 -2.3700562680387904e-17
  outer loop
    vertex 0.0 3.9999999999999996 2.6437185773886536e-16
    vertex 6.1999999999999975 0.0 1.2000000000000002
    vertex 0.0 3.9999999999999996 1.2000000000000002
  endloop
endfacet
facet normal 0.5421268698220929 -0.8402966482242447 -2.370056268038779e-17
  outer loop
    vertex 14.0 3.9999999999999996 4.40619762898109e-16
    vertex 7.799999999999997 0.0 1.2000000000000002
    vertex 7.799999999999997 0.0 3.524958103184872e-16
  endloop
endfacet
facet normal 0.5421268698220929 -0.8402966482242447 -2.370056268038779e-17
  outer loop
    vertex 7.799999999999997 0.0 1.2000000000000002
    vertex 14.0 3.9999999999999996 4.40619762898109e-16
    vertex 14.0 3.9999999999999996 1.2000000000000002
  endloop
endfacet
endsolid OptoEndstopFlag
